<svg width="185" height="187" viewBox="0 0 185 187" fill="none" xmlns="http://www.w3.org/2000/svg">
<g clip-path="url(#clip0_642_2296)">
<path d="M69.1126 185V181.288H72.0566V166.312H69.1126V162.6H80.6326C81.998 162.6 83.182 162.835 84.1846 163.304C85.2086 163.752 85.998 164.403 86.5526 165.256C87.1286 166.088 87.4166 167.091 87.4166 168.264V168.584C87.4166 169.608 87.2246 170.451 86.8406 171.112C86.4566 171.752 85.998 172.253 85.4646 172.616C84.9526 172.957 84.462 173.203 83.9926 173.352V173.928C84.462 174.056 84.974 174.301 85.5286 174.664C86.0833 175.005 86.5526 175.507 86.9366 176.168C87.342 176.829 87.5446 177.693 87.5446 178.76V179.08C87.5446 180.317 87.2566 181.384 86.6806 182.28C86.1046 183.155 85.3046 183.827 84.2806 184.296C83.278 184.765 82.1046 185 80.7606 185H69.1126ZM76.2806 181.16H80.2486C81.166 181.16 81.902 180.936 82.4566 180.488C83.0326 180.04 83.3206 179.4 83.3206 178.568V178.248C83.3206 177.416 83.0433 176.776 82.4886 176.328C81.934 175.88 81.1873 175.656 80.2486 175.656H76.2806V181.16ZM76.2806 171.816H80.1846C81.0593 171.816 81.774 171.592 82.3286 171.144C82.9046 170.696 83.1926 170.077 83.1926 169.288V168.968C83.1926 168.157 82.9153 167.539 82.3606 167.112C81.806 166.664 81.0806 166.44 80.1846 166.44H76.2806V171.816ZM99.6426 185.448C97.808 185.448 96.2293 185.117 94.9066 184.456C93.6053 183.773 92.6026 182.813 91.8986 181.576C91.216 180.317 90.8746 178.835 90.8746 177.128V162.6H95.0986V177.256C95.0986 178.621 95.4826 179.699 96.2506 180.488C97.04 181.277 98.1706 181.672 99.6426 181.672C101.115 181.672 102.235 181.277 103.003 180.488C103.792 179.699 104.187 178.621 104.187 177.256V162.6H108.411V177.128C108.411 178.835 108.059 180.317 107.355 181.576C106.672 182.813 105.669 183.773 104.347 184.456C103.045 185.117 101.477 185.448 99.6426 185.448ZM118.263 185V177.288L110.647 162.6H115.351L120.087 172.2H120.663L125.399 162.6H130.103L122.487 177.288V185H118.263Z" fill="white"/>
<path d="M127.165 45.0649H129.683V55.5919H127.266L122.518 47.7219V55.5919H119.999V45.0649H122.467L127.165 52.9179V45.0649Z" fill="white"/>
<path d="M140.516 46.0643H135.277V50.109H139.856V51.1074H135.277V55.5919H132.455V45.0649H140.516V46.0633V46.0643Z" fill="white"/>
<path d="M150.706 45.0649V46.0633H147.259V55.5919H144.538V46.0633H141.125V45.0649H150.707H150.706Z" fill="white"/>
<path d="M100.517 116.338C98.7548 114.574 96.4128 113.603 93.9219 113.603H73.2634L74.1892 111.858C74.229 111.782 74.2698 111.68 74.3134 111.572C74.3495 111.483 74.3893 111.383 74.4358 111.281L74.4965 111.145C74.5638 110.998 74.6227 110.87 74.6691 110.745L74.6824 110.709C74.8181 110.334 74.9309 109.945 75.0191 109.554L75.021 109.544C75.0429 109.449 75.0685 109.362 75.0903 109.285C75.1064 109.227 75.1216 109.172 75.1311 109.132C75.2259 108.599 75.2772 108.056 75.2838 107.514C75.2838 107.482 75.279 107.429 75.2743 107.372C75.2677 107.294 75.2591 107.197 75.2563 107.091C75.2421 106.678 75.2032 106.259 75.1387 105.848C75.1178 105.731 75.0874 105.604 75.0552 105.47C75.04 105.406 75.0239 105.342 75.0097 105.277C74.9262 104.921 74.8209 104.565 74.6995 104.221C74.6407 104.062 74.5638 103.857 74.4775 103.658L74.4709 103.642C74.3172 103.303 74.1408 102.966 73.9435 102.641C73.898 102.565 73.8581 102.496 73.8192 102.428C73.7595 102.324 73.7082 102.234 73.6551 102.153C73.3383 101.679 72.9684 101.226 72.5614 100.814L53.6673 81.8904C50.9677 79.9004 47.7701 78.8108 44.416 78.7395H21.9392L21.6119 78.0832C20.8417 76.5414 19.6607 75.2448 18.1971 74.3357C16.7335 73.4257 15.0489 72.9422 13.3263 72.9355H9.82616C7.33526 72.9355 4.99329 73.9073 3.23088 75.6713C1.47037 77.4353 0.5 79.7807 0.5 82.2751V112.644C0.5 115.139 1.47037 117.484 3.23183 119.249C4.99329 121.012 7.33526 121.984 9.82616 121.984H13.3301C16.375 121.977 19.231 120.477 20.9697 117.97L21.7191 116.889L43.3299 135.474C43.7492 135.835 44.2851 136.034 44.8381 136.034H93.9219C96.4099 136.029 98.75 135.055 100.511 133.292C102.271 131.529 103.243 129.185 103.248 126.691V122.943C103.248 120.449 102.279 118.103 100.517 116.338ZM18.0207 112.643C18.0207 113.897 17.5331 115.077 16.6472 115.964C15.7612 116.85 14.5841 117.339 13.3311 117.339H9.82711C8.57407 117.339 7.39692 116.85 6.51097 115.964C5.62502 115.077 5.13747 113.897 5.13747 112.643V82.2742C5.13747 81.0374 5.6383 79.8272 6.51097 78.9533C7.39597 78.0661 8.57407 77.5778 9.82711 77.5778H13.3311C14.5841 77.5778 15.7612 78.0661 16.6472 78.9533C17.5199 79.8272 18.0207 81.0374 18.0207 82.2742V112.643ZM98.6125 126.697C98.5944 127.939 98.1002 129.106 97.2228 129.984C96.3473 130.862 95.1815 131.356 93.9418 131.375H45.6975L22.6572 111.571V83.3837H44.2111C46.2268 83.4606 48.2396 83.9916 50.0305 84.9207L50.1937 85.0052L69.2766 104.119C70.1521 104.991 70.6549 106.205 70.6549 107.445C70.6549 108.686 70.1654 109.885 69.2757 110.772L68.8403 111.207H68.9712L66.7867 113.261C65.8922 114.101 64.7236 114.564 63.498 114.564C62.2725 114.564 61.1039 114.101 60.2094 113.261L60.1819 113.234L48.2197 101.255L48.2064 101.24C47.7805 100.784 47.1773 100.517 46.5531 100.507C45.928 100.498 45.3181 100.744 44.877 101.186C44.436 101.628 44.1884 102.24 44.1979 102.865C44.2073 103.49 44.4739 104.093 44.9282 104.52L44.9558 104.547L56.9796 116.591C58.5371 118.118 60.585 119.05 62.7601 119.218C64.9702 119.39 67.1727 118.762 68.9607 117.451L69.4578 117.087L70.0411 117.283C71.8055 117.881 73.6428 118.203 75.501 118.242H93.9228C95.1578 118.242 96.3663 118.743 97.239 119.617C98.1249 120.506 98.6125 121.684 98.6125 122.938V126.697Z" fill="white"/>
<path d="M149.676 107.668H145.882V135.026H149.676V107.668Z" fill="white"/>
<path d="M155.483 115.26L147.678 108.499L140.13 115.038L137.647 112.164L147.678 103.475L157.965 112.387L155.483 115.26Z" fill="white"/>
<path d="M123.531 107.668H119.737V135.026H123.531V107.668Z" fill="white"/>
<path d="M129.338 115.26L121.533 108.499L113.985 115.038L111.502 112.164L121.533 103.475L131.82 112.387L129.338 115.26Z" fill="white"/>
<path d="M174.73 52.0565C175.261 53.5621 176.474 54.7258 178 55.1931C179.524 55.6595 181.18 55.3755 182.462 54.4265C183.743 53.4766 184.5 51.9748 184.5 50.378C184.5 48.7812 183.743 47.2793 182.462 46.3294C181.18 45.3795 179.524 45.0955 178 45.5628C176.474 46.0302 175.261 47.1938 174.73 48.6995H164.364V34.2864L168.41 30.235H171.377C171.908 31.7406 173.121 32.9042 174.646 33.3716C176.171 33.838 177.827 33.554 179.108 32.605C180.39 31.6551 181.147 30.1533 181.147 28.5564C181.147 26.9596 180.39 25.4578 179.108 24.5079C177.827 23.558 176.171 23.274 174.646 23.7413C173.121 24.2087 171.908 25.3723 171.377 26.8779H167.716C167.271 26.8779 166.846 27.0546 166.531 27.37L162.377 31.5297L152.631 26.3612V16.8069H157.967C158.498 18.3125 159.712 19.4762 161.237 19.9435C162.761 20.4099 164.417 20.1259 165.699 19.177C166.98 18.227 167.737 16.7252 167.737 15.1284C167.737 13.5316 166.98 12.0298 165.699 11.0798C164.417 10.1299 162.761 9.8459 161.237 10.3133C159.712 10.7806 158.498 11.9443 157.967 13.4499H150.954C150.029 13.4499 149.278 14.2013 149.278 15.1284V24.5839L135.869 17.4785V9.78416C137.372 9.2522 138.534 8.03726 139.001 6.50979C139.467 4.98327 139.183 3.32471 138.235 2.04137C137.287 0.758035 135.787 0 134.193 0C132.598 0 131.098 0.758035 130.15 2.04137C129.201 3.32471 128.918 4.98327 129.384 6.50979C129.851 8.03726 131.013 9.2522 132.517 9.78416V17.4785L119.107 24.5867V15.1284C119.107 14.6829 118.93 14.2564 118.616 13.941C118.302 13.6266 117.875 13.4489 117.43 13.4489H110.417C109.886 11.9433 108.673 10.7797 107.148 10.3123C105.623 9.8459 103.967 10.1299 102.686 11.0789C101.404 12.0288 100.647 13.5306 100.647 15.1275C100.647 16.7243 101.404 18.2261 102.686 19.176C103.967 20.1259 105.623 20.4099 107.148 19.9426C108.673 19.4752 109.886 18.3116 110.417 16.806H115.754V26.3602L106.006 31.5287L101.853 27.369C101.539 27.0546 101.112 26.877 100.667 26.877H97.0066C96.4754 25.3714 95.2622 24.2077 93.7369 23.7404C92.2126 23.274 90.5564 23.558 89.2749 24.5069C87.9934 25.4569 87.2365 26.9587 87.2365 28.5555C87.2365 30.1523 87.9934 31.6541 89.2749 32.604C90.5564 33.554 92.2126 33.838 93.7369 33.3706C95.2622 32.9033 96.4754 31.7396 97.0066 30.234H99.9736L104.019 34.2854V48.6985H93.6534C93.1223 47.1929 91.9091 46.0292 90.3838 45.5619C88.8595 45.0955 87.2033 45.3795 85.9218 46.3285C84.6403 47.2784 83.8834 48.7802 83.8834 50.377C83.8834 51.9738 84.6403 53.4757 85.9218 54.4256C87.2033 55.3755 88.8595 55.6595 90.3838 55.1922C91.9091 54.7248 93.1223 53.5611 93.6534 52.0555H104.019V66.4686L99.9736 70.52H97.0066C96.4754 69.0144 95.2622 67.8508 93.7369 67.3834C92.2126 66.917 90.5564 67.201 89.2749 68.15C87.9934 69.0999 87.2365 70.6017 87.2365 72.1985C87.2365 73.7954 87.9934 75.2972 89.2749 76.2471C90.5564 77.197 92.2126 77.481 93.7369 77.0137C95.2622 76.5463 96.4754 75.3827 97.0066 73.8771H100.667C101.112 73.8771 101.538 73.7004 101.853 73.385L106.006 69.2253L115.753 74.3938V83.9481H110.416C109.885 82.4425 108.672 81.2788 107.147 80.8115C105.622 80.345 103.966 80.6291 102.685 81.578C101.403 82.528 100.646 84.0298 100.646 85.6266C100.646 87.2234 101.403 88.7252 102.685 89.6751C103.966 90.6251 105.622 90.9091 107.147 90.4417C108.672 89.9744 109.885 88.8107 110.416 87.3051H117.429C117.874 87.3051 118.3 87.1284 118.615 86.813C118.929 86.4986 119.106 86.0712 119.106 85.6256V76.1702L132.516 83.2755V90.967C131.012 91.499 129.85 92.7139 129.383 94.2405C128.918 95.7679 129.201 97.4255 130.149 98.7098C131.098 99.9932 132.597 100.75 134.192 100.75C135.786 100.75 137.286 99.9932 138.234 98.7098C139.183 97.4265 139.467 95.7679 139 94.2405C138.533 92.7139 137.371 91.499 135.868 90.967V83.2755L149.277 76.1673V85.6256C149.277 86.0712 149.454 86.4977 149.769 86.813C150.083 87.1275 150.51 87.3051 150.954 87.3051H157.967C158.498 88.8107 159.712 89.9744 161.237 90.4417C162.761 90.9081 164.417 90.6241 165.699 89.6751C166.98 88.7252 167.737 87.2234 167.737 85.6266C167.737 84.0298 166.98 82.528 165.699 81.578C164.417 80.6281 162.761 80.3441 161.237 80.8115C159.712 81.2788 158.498 82.4425 157.967 83.9481H152.631V74.3938L162.378 69.2253L166.532 73.385C166.846 73.6994 167.272 73.8771 167.717 73.8771H171.378C171.909 75.3827 173.122 76.5463 174.647 77.0137C176.172 77.4801 177.828 77.1961 179.109 76.2471C180.391 75.2972 181.148 73.7954 181.148 72.1985C181.148 70.6017 180.391 69.0999 179.109 68.15C177.828 67.2001 176.172 66.9161 174.647 67.3834C173.122 67.8508 171.909 69.0144 171.378 70.52H168.411L164.365 66.4686V52.0555H174.731L174.73 52.0565ZM179.45 48.6995C180.128 48.6995 180.739 49.1089 180.998 49.7358C181.258 50.3628 181.115 51.0847 180.635 51.5654C180.155 52.046 179.435 52.1885 178.808 51.9292C178.182 51.6699 177.773 51.0581 177.773 50.3789C177.773 49.4518 178.523 48.7004 179.449 48.7004L179.45 48.6995ZM176.098 26.8779C176.776 26.8779 177.387 27.2874 177.646 27.9143C177.906 28.5412 177.762 29.2632 177.282 29.7438C176.803 30.2245 176.083 30.367 175.456 30.1077C174.83 29.8483 174.421 29.2366 174.421 28.5574C174.421 27.6303 175.171 26.8789 176.097 26.8789L176.098 26.8779ZM162.688 13.4489C163.366 13.4489 163.977 13.8584 164.236 14.4853C164.496 15.1123 164.353 15.8342 163.873 16.3148C163.393 16.7955 162.673 16.938 162.046 16.6787C161.42 16.4193 161.011 15.8076 161.011 15.1284C161.011 14.2013 161.761 13.4499 162.687 13.4499L162.688 13.4489ZM105.697 16.806C105.019 16.806 104.408 16.3965 104.149 15.7696C103.889 15.1426 104.032 14.4207 104.512 13.9401C104.992 13.4594 105.712 13.3169 106.339 13.5762C106.965 13.8356 107.374 14.4473 107.374 15.1265C107.374 15.572 107.198 15.9985 106.883 16.3139C106.569 16.6283 106.142 16.806 105.697 16.806ZM92.2875 30.235C91.6093 30.235 90.9984 29.8255 90.7395 29.1986C90.4796 28.5716 90.6228 27.8497 91.1028 27.369C91.5828 26.8884 92.3027 26.7459 92.9297 27.0052C93.5557 27.2646 93.9646 27.8763 93.9646 28.5555C93.9646 29.001 93.7881 29.4275 93.4732 29.7429C93.1592 30.0573 92.7324 30.235 92.2875 30.235ZM88.9353 52.0565C88.2571 52.0565 87.6463 51.6471 87.3873 51.0201C87.1274 50.3932 87.2706 49.6712 87.7506 49.1906C88.2306 48.7099 88.9505 48.5674 89.5775 48.8268C90.2036 49.0861 90.6124 49.6978 90.6124 50.377C90.6124 50.8225 90.436 51.2491 90.121 51.5644C89.8071 51.8788 89.3802 52.0565 88.9353 52.0565ZM92.2875 73.878C91.6093 73.878 90.9984 73.4686 90.7395 72.8416C90.4796 72.2147 90.6228 71.4928 91.1028 71.0121C91.5828 70.5314 92.3027 70.389 92.9297 70.6483C93.5557 70.9076 93.9646 71.5194 93.9646 72.1985C93.9646 72.6441 93.7881 73.0706 93.4732 73.3859C93.1592 73.7004 92.7324 73.878 92.2875 73.878ZM105.697 87.307C105.019 87.307 104.408 86.8976 104.149 86.2706C103.889 85.6437 104.032 84.9218 104.512 84.4411C104.992 83.9604 105.712 83.8179 106.339 84.0773C106.965 84.3366 107.374 84.9483 107.374 85.6275C107.374 86.0731 107.198 86.4996 106.883 86.8149C106.569 87.1294 106.142 87.307 105.697 87.307ZM162.688 83.95C163.366 83.95 163.977 84.3594 164.236 84.9864C164.496 85.6133 164.353 86.3352 163.873 86.8159C163.393 87.2965 162.673 87.439 162.046 87.1797C161.42 86.9204 161.011 86.3086 161.011 85.6294C161.011 84.7023 161.761 83.9509 162.687 83.9509L162.688 83.95ZM176.098 70.521C176.776 70.521 177.387 70.9304 177.646 71.5574C177.906 72.1843 177.762 72.9062 177.282 73.3869C176.803 73.8676 176.083 74.01 175.456 73.7507C174.83 73.4914 174.421 72.8796 174.421 72.2004C174.421 71.2733 175.171 70.5219 176.097 70.5219L176.098 70.521ZM134.194 3.37696C134.872 3.37696 135.483 3.78637 135.742 4.41332C136.002 5.04027 135.858 5.76221 135.378 6.24286C134.898 6.72352 134.178 6.86601 133.551 6.60668C132.925 6.34735 132.517 5.73561 132.517 5.05642C132.517 4.1293 133.267 3.37791 134.193 3.37791L134.194 3.37696ZM134.194 97.379C133.515 97.379 132.904 96.9696 132.646 96.3426C132.386 95.7157 132.529 94.9937 133.009 94.5131C133.489 94.0324 134.209 93.8899 134.836 94.1493C135.462 94.4086 135.871 95.0203 135.871 95.6995C135.871 96.145 135.694 96.5716 135.379 96.8869C135.065 97.2014 134.638 97.379 134.194 97.379ZM161.013 66.1571L134.194 80.3735L107.374 66.1571V34.5989L134.194 20.3795L161.013 34.5989V66.1571Z" fill="white"/>
<path d="M133.444 23.6964L109.978 35.4469C109.409 35.7319 109.051 36.3133 109.051 36.9497V63.8077C109.047 64.447 109.408 65.0331 109.978 65.3181L133.444 77.0686C133.916 77.3051 134.471 77.3051 134.942 77.0686L158.408 65.3181C158.979 65.0321 159.339 64.447 159.335 63.8077V36.9497C159.335 36.3133 158.976 35.7319 158.408 35.4469L134.942 23.6964C134.471 23.4599 133.916 23.4599 133.444 23.6964ZM155.984 37.9861V62.7704L134.194 73.6811L112.403 62.7704V37.9861L134.194 27.0753L155.984 37.9861Z" fill="white"/>
</g>
<defs>
<clipPath id="clip0_642_2296">
<rect width="184" height="187" fill="white" transform="translate(0.5)"/>
</clipPath>
</defs>
</svg>
