<svg width="194" height="187" viewBox="0 0 194 187" fill="none" xmlns="http://www.w3.org/2000/svg">
<g clip-path="url(#clip0_642_2288)">
<path d="M84.5232 69.1909H87.951V82.8905H84.6612L78.199 72.6484V82.8905H74.7712V69.1909H78.1293L84.5232 79.4106V69.1909Z" fill="white"/>
<path d="M102.693 70.4916H95.5632V75.755H101.796V77.0541H95.5632V82.8905H91.723V69.1909H102.693V70.4901V70.4916Z" fill="white"/>
<path d="M116.563 69.1909V70.4901H111.871V82.8905H108.169V70.4901H103.523V69.1909H116.564H116.563Z" fill="white"/>
<path d="M149.259 78.2888C149.982 80.2488 151.633 81.7631 153.709 82.3712C155.784 82.9779 158.038 82.6081 159.782 81.3736C161.526 80.137 162.556 78.1827 162.556 76.1046C162.556 74.0265 161.526 72.0721 159.782 70.8363C158.038 69.6 155.784 69.2304 153.709 69.8386C151.633 70.4468 149.982 71.9611 149.259 73.9203H135.152V55.1638L140.658 49.8915H144.695C145.419 51.8508 147.07 53.3652 149.145 53.9734C151.22 54.5803 153.474 54.2108 155.219 52.9758C156.962 51.7396 157.992 49.7852 157.992 47.7072C157.992 45.6291 156.962 43.6747 155.219 42.4385C153.474 41.2023 151.22 40.8327 149.145 41.4409C147.07 42.0491 145.419 43.5634 144.695 45.5228H139.714C139.109 45.5228 138.529 45.7527 138.1 46.1631L132.447 51.5764L119.182 44.8504V32.4168H126.445C127.168 34.3761 128.819 35.8905 130.895 36.4986C132.97 37.1056 135.224 36.736 136.968 35.5011C138.712 34.2649 139.742 32.3105 139.742 30.2324C139.742 28.1544 138.712 26.2 136.968 24.9638C135.224 23.7276 132.97 23.358 130.895 23.9662C128.819 24.5744 127.168 26.0887 126.445 28.0481H116.901C115.641 28.0481 114.62 29.0259 114.62 30.2324V42.5374L96.3689 33.2907V23.2777C98.4149 22.5854 99.997 21.0043 100.632 19.0165C101.266 17.03 100.88 14.8716 99.5898 13.2015C98.2989 11.5314 96.2581 10.5449 94.0881 10.5449C91.9174 10.5449 89.8766 11.5314 88.5858 13.2015C87.295 14.8716 86.909 17.03 87.5438 19.0165C88.1793 21.0043 89.7607 22.5854 91.8066 23.2777V33.2907L73.5561 42.5411V30.2324C73.5561 29.6527 73.316 29.0976 72.8874 28.6872C72.46 28.278 71.8791 28.0469 71.2736 28.0469H61.7295C61.0065 26.0875 59.3553 24.5732 57.2794 23.965C55.2048 23.358 52.9507 23.7276 51.2067 24.9626C49.4626 26.1987 48.4323 28.1532 48.4323 30.2312C48.4323 32.3092 49.4626 34.2636 51.2067 35.4998C52.9507 36.736 55.2048 37.1056 57.2794 36.4974C59.3553 35.8892 61.0065 34.3749 61.7295 32.4156H68.9925V44.8491L55.7264 51.5752L50.0732 46.162C49.6459 45.7527 49.0649 45.5216 48.4594 45.5216H43.4775C42.7546 43.5622 41.1035 42.0479 39.0275 41.4397C36.953 40.8327 34.6989 41.2023 32.9548 42.4373C31.2107 43.6735 30.1805 45.6279 30.1805 47.7059C30.1805 49.7839 31.2107 51.7383 32.9548 52.9745C34.6989 54.2108 36.953 54.5803 39.0275 53.9722C41.1035 53.3639 42.7546 51.8496 43.4775 49.8903H47.5158L53.0218 55.1626V73.9189H38.9139C38.191 71.9597 36.5399 70.4454 34.4639 69.8374C32.3893 69.2304 30.1353 69.6 28.3912 70.8348C26.647 72.0714 25.6169 74.0258 25.6169 76.1039C25.6169 78.1813 26.647 80.1363 28.3912 81.3722C30.1353 82.6081 32.3893 82.9779 34.4639 82.3698C36.5399 81.7617 38.191 80.2474 38.9139 78.2881H53.0218V97.0444L47.5158 102.317H43.4775C42.7546 100.358 41.1035 98.8434 39.0275 98.2353C36.953 97.6279 34.6989 97.9977 32.9548 99.2328C31.2107 100.469 30.1805 102.423 30.1805 104.501C30.1805 106.579 31.2107 108.534 32.9548 109.77C34.6989 111.006 36.953 111.376 39.0275 110.768C41.1035 110.159 42.7546 108.645 43.4775 106.685H48.4594C49.0649 106.685 49.6446 106.456 50.0732 106.045L55.7264 100.632L68.9912 107.358V119.792H61.7281C61.0052 117.832 59.354 116.318 57.2781 115.71C55.2036 115.103 52.9495 115.472 51.2054 116.707C49.4613 117.943 48.431 119.898 48.431 121.976C48.431 124.054 49.4613 126.008 51.2054 127.245C52.9495 128.481 55.2036 128.851 57.2781 128.242C59.354 127.634 61.0052 126.119 61.7281 124.16H71.2724C71.8778 124.16 72.4575 123.93 72.8861 123.52C73.3134 123.11 73.5549 122.554 73.5549 121.974V109.67L91.8052 118.916V128.926C89.7592 129.618 88.1778 131.199 87.5423 133.186C86.909 135.173 87.295 137.331 88.5843 139.002C89.8752 140.672 91.9167 141.657 94.0867 141.657C96.2566 141.657 98.2975 140.672 99.589 139.002C100.88 137.332 101.266 135.173 100.63 133.186C99.9956 131.199 98.4141 129.618 96.3675 128.926V118.916L114.618 109.666V121.974C114.618 122.554 114.859 123.11 115.287 123.52C115.714 123.929 116.296 124.16 116.901 124.16H126.445C127.168 126.119 128.819 127.634 130.895 128.242C132.97 128.849 135.224 128.479 136.968 127.245C138.712 126.008 139.742 124.054 139.742 121.976C139.742 119.898 138.712 117.943 136.968 116.707C135.224 115.471 132.97 115.102 130.895 115.71C128.819 116.318 127.168 117.832 126.445 119.792H119.182V107.358L132.448 100.632L138.101 106.045C138.529 106.454 139.109 106.685 139.715 106.685H144.697C145.42 108.645 147.071 110.159 149.147 110.768C151.221 111.374 153.476 111.005 155.22 109.77C156.964 108.534 157.994 106.579 157.994 104.501C157.994 102.423 156.964 100.469 155.22 99.2328C153.476 97.9962 151.221 97.6272 149.147 98.2353C147.071 98.8434 145.42 100.358 144.697 102.317H140.658L135.152 97.0444V78.2881H149.26L149.259 78.2888ZM155.683 73.9203C156.606 73.9203 157.438 74.4532 157.79 75.2694C158.144 76.0849 157.949 77.0248 157.295 77.6498C156.642 78.2755 155.662 78.4611 154.809 78.1236C153.957 77.7862 153.401 76.9897 153.401 76.106C153.401 74.8996 154.422 73.9218 155.682 73.9218L155.683 73.9203ZM151.121 45.5228C152.044 45.5228 152.875 46.0556 153.228 46.8715C153.581 47.6873 153.386 48.6269 152.733 49.2524C152.08 49.8779 151.1 50.0633 150.247 49.7258C149.395 49.3883 148.838 48.5923 148.838 47.7084C148.838 46.5019 149.859 45.524 151.119 45.524L151.121 45.5228ZM132.87 28.0469C133.793 28.0469 134.625 28.5797 134.977 29.3955C135.331 30.2114 135.136 31.1509 134.482 31.7765C133.829 32.4019 132.85 32.5874 131.996 32.2499C131.144 31.9124 130.588 31.1163 130.588 30.2324C130.588 29.0259 131.609 28.0481 132.869 28.0481L132.87 28.0469ZM55.3055 32.4156C54.3825 32.4156 53.5511 31.8827 53.1986 31.0668C52.8449 30.251 53.0398 29.3115 53.6931 28.686C54.3464 28.0604 55.3262 27.875 56.1795 28.2125C57.0316 28.55 57.588 29.3461 57.588 30.23C57.588 30.8097 57.3478 31.3648 56.9193 31.7752C56.492 32.1843 55.911 32.4156 55.3055 32.4156ZM37.055 49.8915C36.1319 49.8915 35.3005 49.3587 34.948 48.5428C34.5943 47.7269 34.7893 46.7874 35.4425 46.162C36.0958 45.5364 37.0756 45.351 37.929 45.6885C38.7809 46.0259 39.3374 46.822 39.3374 47.7059C39.3374 48.2857 39.0972 48.8408 38.6687 49.2512C38.2414 49.6603 37.6604 49.8915 37.055 49.8915ZM32.4926 78.2888C31.5696 78.2888 30.7382 77.7567 30.3857 76.9405C30.032 76.1243 30.2269 75.1851 30.8802 74.5594C31.5334 73.9344 32.5133 73.7488 33.3666 74.0863C34.2187 74.4237 34.7751 75.2195 34.7751 76.1039C34.7751 76.6832 34.535 77.2385 34.1063 77.6491C33.679 78.0583 33.0981 78.2888 32.4926 78.2888ZM37.055 106.687C36.1319 106.687 35.3005 106.154 34.948 105.338C34.5943 104.522 34.7893 103.583 35.4425 102.957C36.0958 102.332 37.0756 102.146 37.929 102.484C38.7809 102.821 39.3374 103.617 39.3374 104.501C39.3374 105.081 39.0972 105.636 38.6687 106.046C38.2414 106.456 37.6604 106.687 37.055 106.687ZM55.3055 124.163C54.3825 124.163 53.5511 123.63 53.1986 122.814C52.8449 121.998 53.0398 121.058 53.6931 120.433C54.3464 119.808 55.3262 119.622 56.1795 119.96C57.0316 120.297 57.588 121.094 57.588 121.977C57.588 122.557 57.3478 123.112 56.9193 123.522C56.492 123.932 55.911 124.163 55.3055 124.163ZM132.87 119.794C133.793 119.794 134.625 120.327 134.977 121.143C135.331 121.959 135.136 122.898 134.482 123.524C133.829 124.15 132.85 124.334 131.996 123.997C131.144 123.66 130.588 122.864 130.588 121.979C130.588 120.773 131.609 119.795 132.869 119.795L132.87 119.794ZM151.121 102.318C152.044 102.318 152.875 102.851 153.228 103.667C153.581 104.483 153.386 105.422 152.733 106.048C152.08 106.673 151.1 106.858 150.247 106.521C149.395 106.183 148.838 105.388 148.838 104.504C148.838 103.297 149.859 102.32 151.119 102.32L151.121 102.318ZM94.0889 14.9396C95.012 14.9396 95.8435 15.4724 96.1957 16.2882C96.5494 17.1041 96.355 18.0436 95.7019 18.6692C95.048 19.2946 94.0683 19.4801 93.2149 19.1426C92.3629 18.8051 91.8066 18.009 91.8066 17.1251C91.8066 15.9186 92.8281 14.9408 94.0881 14.9408L94.0889 14.9396ZM94.0889 137.27C93.1664 137.27 92.335 136.738 91.982 135.921C91.6283 135.105 91.8235 134.166 92.4766 133.54C93.1297 132.915 94.1102 132.73 94.9629 133.067C95.8149 133.405 96.3718 134.2 96.3718 135.085C96.3718 135.664 96.1311 136.219 95.7026 136.63C95.2755 137.039 94.6943 137.27 94.0889 137.27ZM130.59 96.6394L94.0889 115.14L57.588 96.6394V55.5705L94.0889 37.0661L130.59 55.5705V96.6394Z" fill="white"/>
<path d="M93.0681 41.3827L61.1308 56.6743C60.3561 57.0452 59.8694 57.8018 59.8694 58.63V93.5821C59.8643 94.4138 60.3549 95.1765 61.1308 95.5477L93.0681 110.839C93.7102 111.147 94.4653 111.147 95.1067 110.839L127.044 95.5477C127.821 95.1751 128.311 94.4138 128.306 93.5821V58.63C128.306 57.8018 127.818 57.0452 127.044 56.6743L95.1067 41.3827C94.4653 41.0749 93.7102 41.0749 93.0681 41.3827ZM123.745 59.9787V92.2323L94.0881 106.431L64.4317 92.2323V59.9787L94.0881 45.7798L123.745 59.9787Z" fill="white"/>
<path d="M58.4714 186V163.6H62.6954V172.848H71.0154V163.6H75.2394V186H71.0154V176.688H62.6954V186H58.4714ZM88.1754 186.448C85.3594 186.448 83.1194 185.68 81.4554 184.144C79.7914 182.587 78.9594 180.368 78.9594 177.488V172.112C78.9594 169.232 79.7914 167.024 81.4554 165.488C83.1194 163.931 85.3594 163.152 88.1754 163.152C90.9914 163.152 93.2314 163.931 94.8954 165.488C96.5594 167.024 97.3914 169.232 97.3914 172.112V177.488C97.3914 180.368 96.5594 182.587 94.8954 184.144C93.2314 185.68 90.9914 186.448 88.1754 186.448ZM88.1754 182.672C89.754 182.672 90.9807 182.213 91.8554 181.296C92.73 180.379 93.1674 179.152 93.1674 177.616V171.984C93.1674 170.448 92.73 169.221 91.8554 168.304C90.9807 167.387 89.754 166.928 88.1754 166.928C86.618 166.928 85.3914 167.387 84.4954 168.304C83.6207 169.221 83.1834 170.448 83.1834 171.984V177.616C83.1834 179.152 83.6207 180.379 84.4954 181.296C85.3914 182.213 86.618 182.672 88.1754 182.672ZM101.096 186V163.6H105.32V182.16H115.56V186H101.096ZM117.8 186V182.288H120.744V167.312H117.8V163.6H127.016C130.024 163.6 132.307 164.368 133.864 165.904C135.443 167.419 136.232 169.68 136.232 172.688V176.912C136.232 179.92 135.443 182.192 133.864 183.728C132.307 185.243 130.024 186 127.016 186H117.8ZM124.968 182.16H127.08C128.787 182.16 130.035 181.712 130.824 180.816C131.613 179.92 132.008 178.661 132.008 177.04V172.56C132.008 170.917 131.613 169.659 130.824 168.784C130.035 167.888 128.787 167.44 127.08 167.44H124.968V182.16Z" fill="white"/>
</g>
<defs>
<clipPath id="clip0_642_2288">
<rect width="193" height="187" fill="white" transform="translate(0.5)"/>
</clipPath>
</defs>
</svg>
