<svg width="120" height="24" viewBox="0 0 120 24" fill="none" xmlns="http://www.w3.org/2000/svg">
<path d="M0.193079 4.00684C0.0681457 3.88738 0 3.7462 0 3.5833V0.694564C0 0.509945 0.0681457 0.357906 0.193079 0.227587C0.318013 0.108128 0.47702 0.0429688 0.636026 0.0429688H20.6141C20.7844 0.0429688 20.9321 0.108128 21.057 0.227587C21.1819 0.357906 21.2501 0.509945 21.2501 0.683704V3.5833C21.2501 3.7462 21.1933 3.88738 21.0684 4.00684C20.9434 4.13716 20.7958 4.19146 20.6027 4.19146H0.636026C0.47702 4.20232 0.329371 4.13716 0.193079 4.00684ZM8.42735 23.7284C8.30241 23.609 8.23427 23.4569 8.23427 23.3049V10.6314C8.23427 10.4468 8.30241 10.3056 8.42735 10.1861C8.55228 10.0775 8.71129 10.0124 8.87029 10.0124H17.309C17.5021 10.0124 17.6611 10.0775 17.786 10.197C17.911 10.3273 17.9791 10.4685 17.9791 10.6205V13.8242C17.9791 14.0088 17.911 14.1609 17.786 14.2803C17.6611 14.4106 17.4907 14.4649 17.309 14.4649H13.7086C13.5383 14.4649 13.3906 14.5192 13.2657 14.6387C13.1408 14.7582 13.0726 14.8993 13.0726 15.084V23.294C13.0726 23.4569 13.0045 23.5981 12.8795 23.7176C12.7546 23.837 12.5842 23.9022 12.4025 23.9022H8.88165C8.69993 23.9131 8.55228 23.8479 8.42735 23.7284Z" fill="black"/>
<path d="M30.6312 22.7624C29.3024 22.0239 28.2461 21.0139 27.4624 19.7325C26.6788 18.451 26.2812 17.0609 26.2812 15.5623V9.03545C26.2812 8.86169 26.3494 8.70965 26.4743 8.60105C26.5993 8.49245 26.7469 8.43815 26.9173 8.43815H30.2223C30.4041 8.43815 30.5631 8.49245 30.6766 8.60105C30.7902 8.70965 30.847 8.86169 30.847 9.03545V15.5623C30.847 16.6808 31.2445 17.6365 32.0396 18.4076C32.8346 19.1786 33.8113 19.5696 34.9585 19.5696C35.8444 19.5696 36.6735 19.3958 37.4231 19.0266C38.1727 18.6682 38.7746 18.1795 39.2176 17.5605C39.6605 16.9415 39.8877 16.279 39.8877 15.5623V0.619015C39.8877 0.466976 39.9558 0.325797 40.0807 0.195478C40.2057 0.0760194 40.3647 0.0108599 40.5578 0.0108599H43.7947C43.9764 0.0108599 44.1354 0.0760194 44.2717 0.195478C44.3966 0.314938 44.4648 0.456116 44.4648 0.619015V15.5623C44.4648 17.0935 44.0559 18.4836 43.2495 19.7542C42.4431 21.0248 41.3187 22.0239 39.8763 22.7624C38.4339 23.5009 36.7984 23.8701 34.9698 23.8701C33.4025 23.8701 31.9601 23.5009 30.6312 22.7624ZM26.4743 3.96387C26.3494 3.84441 26.2812 3.70323 26.2812 3.54033V0.608155C26.2812 0.423537 26.3494 0.282358 26.4743 0.173759C26.5993 0.0651595 26.7469 0 26.9173 0H30.2223C30.4041 0 30.5631 0.0542996 30.6766 0.173759C30.7902 0.282358 30.847 0.434397 30.847 0.608155V3.54033C30.847 3.69237 30.7902 3.83355 30.6766 3.96387C30.5631 4.08333 30.4041 4.14849 30.2223 4.14849H26.9173C26.7469 4.14849 26.5993 4.09419 26.4743 3.96387Z" fill="black"/>
<path d="M65.4883 23.8483C65.4883 23.8483 65.3974 23.7397 65.2043 23.5007C64.273 22.1107 62.7511 19.8518 60.6386 16.7242C58.5261 13.5965 56.936 11.2182 55.8684 9.57833C55.7207 9.41543 55.6299 9.33941 55.5844 9.33941C55.539 9.33941 55.5049 9.38285 55.4936 9.48059C55.4822 9.56747 55.4709 9.64349 55.4709 9.68693L55.539 13.7268C55.539 13.8897 55.4822 14.0309 55.3573 14.1504C55.2324 14.2807 55.0847 14.335 54.8916 14.335H51.4276C51.2345 14.335 51.0755 14.2807 50.9392 14.1612C50.8029 14.0526 50.7461 13.9006 50.7461 13.716V0.662337C50.7461 0.477719 50.8142 0.32568 50.9392 0.195361C51.0641 0.0650418 51.2345 0.0107422 51.4276 0.0107422H54.9371C55.1074 0.0107422 55.2437 0.0759017 55.3686 0.217081L64.0231 13.9983C64.2389 14.3893 64.4207 14.5739 64.557 14.5739C64.6705 14.5739 64.7387 14.3784 64.7387 13.9983L64.6932 0.662337C64.6932 0.477719 64.7614 0.32568 64.8863 0.195361C65.0226 0.0650418 65.1703 0.0107422 65.3293 0.0107422H69.1227C69.3158 0.0107422 69.4748 0.0759017 69.6111 0.195361C69.7474 0.32568 69.8042 0.477719 69.8042 0.662337V23.2292C69.8042 23.4139 69.736 23.555 69.6111 23.6745C69.4748 23.7831 69.3158 23.8483 69.1227 23.8483H65.829H65.7949H65.7609C65.5791 23.8483 65.4883 23.8483 65.4883 23.8483Z" fill="black"/>
<path d="M76.154 23.7293C76.0177 23.6098 75.9609 23.4578 75.9609 23.3058V0.695422C75.9609 0.510804 76.0291 0.358765 76.154 0.239306C76.279 0.119847 76.438 0.0546875 76.597 0.0546875H80.4472C80.6176 0.0546875 80.7652 0.119847 80.8901 0.239306C81.0151 0.369625 81.0832 0.521664 81.0832 0.695422V8.52542L88.318 0.423924C88.5338 0.174147 88.795 0.0546875 89.1017 0.0546875H94.1899C94.4511 0.0546875 94.6101 0.0981272 94.6556 0.195866C94.701 0.282746 94.6896 0.380485 94.6215 0.467364L81.6625 14.9653C81.2877 15.3997 81.0946 15.9427 81.0946 16.6052V23.3166C81.0946 23.4795 81.0378 23.6207 80.9129 23.7402C80.7879 23.8596 80.6403 23.9248 80.4472 23.9248H76.597C76.438 23.9139 76.2903 23.8488 76.154 23.7293ZM89.1926 23.7293C88.9654 23.6316 88.7837 23.4687 88.636 23.2732L84.8653 18.1364C84.6949 17.8867 84.6154 17.6803 84.6154 17.5283C84.6154 17.3219 84.7063 17.1047 84.8994 16.8767C85.0925 16.6704 85.3083 16.4314 85.5581 16.1491C85.808 15.8667 86.0465 15.5952 86.285 15.3454L87.0346 14.4984C87.1823 14.3137 87.3413 14.2269 87.5343 14.2269C87.7501 14.2269 87.9205 14.3246 88.0682 14.5309L94.4738 23.2189C94.5193 23.3058 94.542 23.3926 94.542 23.4578C94.542 23.751 94.3262 23.9139 93.906 23.9356H90.2715C89.7832 23.8922 89.4197 23.827 89.1926 23.7293Z" fill="black"/>
<path d="M99.0369 0.727143C98.9915 0.640264 98.9688 0.542525 98.9688 0.455646C98.9688 0.184148 99.1505 0.0429688 99.5026 0.0429688H102.887C103.296 0.0429688 103.546 0.0755485 103.648 0.140708C103.75 0.205868 103.853 0.325327 103.955 0.477365L104.489 1.43304C104.659 1.74798 105.397 3.10547 106.737 5.48379C106.885 5.79872 106.953 6.05936 106.953 6.2657C106.953 6.51548 106.885 6.77612 106.737 7.04761L105.238 9.66485C105.113 9.91463 104.943 10.0341 104.704 10.0341C104.489 10.0341 104.33 9.92549 104.205 9.69743L99.0369 0.727143Z" fill="black"/>
<path d="M107.318 23.7284C107.193 23.609 107.125 23.4569 107.125 23.3049V15.4749C107.125 14.7256 107.352 13.8025 107.818 12.6948C108.283 11.5979 108.988 10.2513 109.942 8.65488C110.271 8.09017 111.316 6.2114 113.076 3.04031L114.394 0.661984C114.485 0.477365 114.61 0.336186 114.746 0.216727C114.882 0.108128 115.109 0.0429688 115.427 0.0429688H118.846C119.278 0.0429688 119.482 0.162428 119.482 0.379626C119.482 0.466505 119.448 0.585964 119.38 0.716283L111.941 13.7265C111.702 14.1391 111.577 14.6278 111.554 15.1925V17.5383V23.294C111.554 23.4569 111.498 23.5981 111.373 23.7176C111.259 23.837 111.1 23.9022 110.907 23.9022H107.772C107.602 23.9131 107.454 23.8479 107.318 23.7284Z" fill="black"/>
</svg>
