<svg width="38" height="38" viewBox="0 0 38 38" fill="none" xmlns="http://www.w3.org/2000/svg">
<path fill-rule="evenodd" clip-rule="evenodd" d="M33.2453 17.3756H33.25C34.1224 17.3756 34.8318 18.0817 34.8334 18.9541C34.846 23.1832 33.2104 27.1653 30.2274 30.1642C27.246 33.163 23.275 34.8207 19.0459 34.8334H19C14.7868 34.8334 10.8237 33.1994 7.83595 30.2275C4.83712 27.2461 3.17937 23.2751 3.1667 19.046C3.15403 14.8153 4.78962 10.8348 7.77262 7.83598C10.754 4.83715 14.725 3.1794 18.9541 3.16673C20.2129 3.18573 21.4954 3.3124 22.724 3.6069C23.5727 3.81273 24.0968 4.66773 23.8909 5.51798C23.6867 6.36665 22.8269 6.88915 21.9814 6.68648C20.9982 6.44898 19.9548 6.34923 18.9636 6.3334C15.58 6.3429 12.4023 7.66973 10.0178 10.0685C7.6317 12.4672 6.32387 15.6529 6.33337 19.0365C6.34287 22.4201 7.6697 25.5962 10.0684 27.9823C12.4593 30.3589 15.6291 31.6667 19 31.6667H19.0364C22.42 31.6572 25.5978 30.3304 27.9823 27.9317C30.3684 25.5313 31.6762 22.3472 31.6667 18.9636C31.6651 18.0897 32.3713 17.3771 33.2453 17.3756ZM13.1306 17.8805C13.7497 17.2614 14.7504 17.2614 15.3694 17.8805L18.9224 21.4335L28.8927 10.0398C29.469 9.38591 30.4681 9.31624 31.1268 9.89257C31.7839 10.4673 31.8504 11.468 31.274 12.1267L20.1907 24.7933C19.9025 25.1227 19.4909 25.3174 19.0523 25.3332H19C18.5804 25.3332 18.1783 25.167 17.8806 24.8693L13.1306 20.1193C12.5115 19.5002 12.5115 18.4996 13.1306 17.8805Z" fill="white"/>
</svg>
