<svg width="15" height="16" viewBox="0 0 15 16" fill="none" xmlns="http://www.w3.org/2000/svg">
<path d="M2.12402 15.0239H9.59473C10.5035 15.0239 11.2427 14.2848 11.2427 13.376V5.90527C11.2427 4.9965 10.5035 4.25732 9.59473 4.25732H2.12402C1.21525 4.25732 0.476074 4.9965 0.476074 5.90527V13.376C0.476074 14.2848 1.21525 15.0239 2.12402 15.0239ZM9.59473 5.35596C9.89762 5.35596 10.144 5.60238 10.144 5.90527V13.376C10.144 13.6789 9.89762 13.9253 9.59473 13.9253H2.12402C1.82113 13.9253 1.57471 13.6789 1.57471 13.376V5.90527C1.57471 5.60238 1.82113 5.35596 2.12402 5.35596H9.59473ZM12.3413 10.6294H12.8906C13.1935 10.6294 13.4399 10.383 13.4399 10.0801V2.60938C13.4399 2.30648 13.1935 2.06006 12.8906 2.06006H5.41992C5.11703 2.06006 4.87061 2.30648 4.87061 2.60938V3.13123H3.77197V2.60938C3.77197 1.7006 4.51115 0.961426 5.41992 0.961426H12.8906C13.7994 0.961426 14.5386 1.7006 14.5386 2.60938V10.0801C14.5386 10.9889 13.7994 11.728 12.8906 11.728H12.3413V10.6294Z" fill="#C7C7C7"/>
</svg>
