<svg width="38" height="30" viewBox="0 0 38 30" fill="none" xmlns="http://www.w3.org/2000/svg">
<path d="M37.9163 29.3965C37.6652 29.815 37.3304 29.8987 36.9119 29.8987C24.9427 29.8987 12.9736 29.8987 1.00441 29.8987C0.920705 29.8987 0.837004 29.8987 0.753304 29.8987C0.334802 29.8987 0 29.5639 0 29.1454C0 28.7269 0.334802 28.3921 0.753304 28.3921C1.08811 28.3921 1.50661 28.3921 1.84141 28.3921C2.17621 28.3921 2.34361 28.3084 2.51101 28.0573C6.36123 22.533 10.2115 16.9251 14.0617 11.4009C14.3128 11.0661 14.7313 10.815 15.0661 10.4802C15.1498 10.3965 15.2335 10.2291 15.2335 10.0617C15.2335 7.13216 15.2335 4.11894 15.2335 1.18942C15.2335 0.35242 15.4009 0.101318 16.3216 0.101318C19.0837 0.101318 21.8458 0.101318 24.6916 0.101318C25.1101 0.101318 25.4449 0.185019 25.6123 0.603521C25.7797 1.02202 25.5286 1.27312 25.2775 1.52423C24.5242 2.27753 23.7709 3.03083 23.0176 3.78414C23.4361 4.28634 23.8546 4.70484 24.2731 5.12335C24.6079 5.45815 24.9427 5.79295 25.2775 6.12775C25.5286 6.37885 25.7797 6.71365 25.6123 7.04846C25.4449 7.46696 25.1101 7.55066 24.6916 7.55066C22.1806 7.55066 19.6696 7.55066 17.1586 7.55066C16.9912 7.55066 16.9075 7.55066 16.7401 7.55066C16.7401 8.47136 16.7401 9.39207 16.7401 10.3128C16.7401 10.3965 16.8238 10.4802 16.9075 10.5639C17.2423 10.8987 17.6608 11.1498 17.9119 11.4846C19.1674 13.326 20.4229 15.1674 21.6784 17.0088C21.7621 17.0925 21.8458 17.1762 21.9295 17.3436C22.348 16.7577 22.6828 16.2555 23.1013 15.6696C23.8546 14.7489 25.1101 14.4978 26.1145 15.1674C26.3656 15.3348 26.6167 15.6696 26.8678 15.9207C29.63 19.9383 32.4758 24.0396 35.2379 28.0573C35.4053 28.3921 35.6564 28.4758 35.9912 28.4758C36.326 28.4758 36.6608 28.4758 36.9956 28.4758C37.4141 28.4758 37.7489 28.5595 38 28.978C37.9163 29.0617 37.9163 29.2291 37.9163 29.3965ZM4.10132 28.3921C12.0529 28.3921 19.9207 28.3921 27.7885 28.3921C25.2775 24.7093 22.7665 21.0264 20.2555 17.4273C20.0881 17.511 20.0044 17.5947 19.837 17.5947C18.6652 18.1806 17.5771 18.7665 16.4053 19.3524C16.0705 19.5198 15.7357 19.5198 15.4009 19.3524C14.2291 18.7665 13.0573 18.1806 11.8855 17.511C11.8018 17.4273 11.7181 17.4273 11.6344 17.4273C9.12335 21.1101 6.61233 24.7093 4.10132 28.3921ZM25.3612 22.1982C25.3612 22.2819 25.3612 22.2819 25.3612 22.2819C26.7004 24.2908 28.0396 26.2159 29.4626 28.2247C29.5463 28.3084 29.7137 28.3921 29.8811 28.3921C30.7181 28.3921 31.6388 28.3921 32.4758 28.3921C32.8106 28.3921 33.2291 28.3921 33.6476 28.3921C31.8062 25.7137 29.9648 23.0352 28.1233 20.3568C27.2026 21.0264 26.2819 21.6123 25.3612 22.1982ZM16.7401 6.04405C18.8326 6.04405 20.9251 6.04405 23.1013 6.04405C22.5154 5.45815 22.0132 4.95594 21.511 4.45374C21.0925 4.03524 21.0925 3.70044 21.511 3.28194C21.7621 3.03083 21.9295 2.86343 22.1806 2.61233C22.5154 2.27753 22.7665 2.02643 23.1013 1.69163C20.9251 1.69163 18.8326 1.69163 16.7401 1.69163C16.7401 3.11453 16.7401 4.53744 16.7401 6.04405ZM19.4185 16.1718C19.3348 16.0044 19.2511 16.0044 19.2511 15.9207C18.4141 14.6652 17.5771 13.4934 16.7401 12.2379C16.3216 11.5683 15.7357 11.5683 15.3172 12.2379C14.5639 13.2423 13.8943 14.3304 13.141 15.3348C12.9736 15.5859 12.8062 15.837 12.5551 16.1718C13.6432 16.7577 14.7313 17.3436 15.8194 17.8458C15.9031 17.8458 15.9868 17.8458 16.0705 17.8458C17.1586 17.3436 18.2467 16.7577 19.4185 16.1718ZM24.5242 21.0264C25.4449 20.4405 26.3656 19.8546 27.37 19.185C26.7004 18.2643 26.1145 17.4273 25.5286 16.5066C25.1938 16.0881 24.6916 16.0881 24.3568 16.5066C23.8546 17.0925 23.4361 17.7621 23.0176 18.4317C22.9339 18.5154 22.9339 18.6828 23.0176 18.6828C23.4361 19.4361 24.022 20.1894 24.5242 21.0264Z" fill="url(#paint0_linear_573_381)"/>
<defs>
<linearGradient id="paint0_linear_573_381" x1="4.67692" y1="7.55066" x2="34.08" y2="13.3195" gradientUnits="userSpaceOnUse">
<stop stop-color="#E8A3FF"/>
<stop offset="0.197917" stop-color="#A8BFFF"/>
<stop offset="0.375" stop-color="#2EFCA8"/>
<stop offset="0.744792" stop-color="#A8BFFF"/>
<stop offset="0.932292" stop-color="#E8A3FF"/>
</linearGradient>
</defs>
</svg>
