<svg width="31" height="42" viewBox="0 0 31 42" fill="none" xmlns="http://www.w3.org/2000/svg">
<path d="M20.9867 13.9954L17.7022 13.5185L16.2332 10.5415C16.1538 10.3806 16.0236 10.2504 15.8627 10.171C15.4586 9.97139 14.9692 10.1373 14.7696 10.5415L13.3006 13.5185L10.0153 13.9954C9.83745 14.0211 9.67306 14.1047 9.54762 14.2333C9.23284 14.5559 9.23929 15.0727 9.5619 15.3874L11.9386 17.7042L11.3773 20.9759C11.3695 21.0214 11.3656 21.0676 11.3656 21.1137C11.3656 21.5644 11.7309 21.9299 12.1817 21.9299C12.3143 21.9288 12.4447 21.8956 12.5616 21.8328L15.4997 20.2913L18.4377 21.8328C18.5965 21.917 18.7787 21.9463 18.9559 21.9165C19.4003 21.8414 19.6997 21.4204 19.6248 20.9759L19.0634 17.7042L21.4401 15.3874C21.5687 15.2619 21.6523 15.0975 21.678 14.9197C21.7422 14.4735 21.4328 14.0597 20.9867 13.9954ZM17.6152 16.8282C17.4218 17.0164 17.334 17.2879 17.3804 17.5536L17.734 19.6184L15.8797 18.6436C15.7622 18.5831 15.6318 18.552 15.4997 18.5529C15.3671 18.5539 15.2367 18.5871 15.1197 18.65L13.2653 19.6248L13.6199 17.56C13.6663 17.2942 13.5785 17.0227 13.3851 16.8346L11.8852 15.3719L13.9581 15.0708C14.224 15.0323 14.4538 14.8655 14.5729 14.6247L15.4997 12.7459L16.4264 14.6247C16.5454 14.8655 16.7754 15.0324 17.0413 15.0708L19.1151 15.3665L17.6152 16.8282Z" fill="url(#paint0_linear_573_114)"/>
<path d="M15.4997 5.5686C9.6343 5.5686 4.87939 10.3235 4.87939 16.1889C4.87939 22.0543 9.6343 26.8092 15.4997 26.8092C21.3624 26.8027 26.1136 22.0516 26.12 16.1889C26.12 10.3235 21.3651 5.5686 15.4997 5.5686ZM15.4997 25.177C10.5357 25.177 6.51161 21.1529 6.51161 16.1889C6.51161 11.2249 10.5357 7.20082 15.4997 7.20082C20.4615 7.20634 24.4823 11.2272 24.4878 16.1889C24.4878 21.153 20.4637 25.177 15.4997 25.177Z" fill="url(#paint1_linear_573_114)"/>
<path d="M30.4473 18.3897L28.9203 18.9673C29.1579 19.5957 29.4535 20.3774 29.3519 20.6903C29.2376 21.0421 28.5458 21.4928 27.9346 21.8908C27.2091 22.3642 26.3839 22.901 25.8172 23.6808C25.2504 24.4607 24.983 25.4264 24.7535 26.2697C24.5721 26.9326 24.3491 27.7578 24.0598 27.9681C23.7705 28.1785 22.9326 28.1323 22.2463 28.0996C21.3694 28.0579 20.3755 28.0089 19.4407 28.3154C18.5339 28.6092 17.7803 29.2222 17.1129 29.76C16.5407 30.2225 15.8915 30.7466 15.5007 30.7466C15.1099 30.7466 14.4606 30.2225 13.8875 29.7582C13.2201 29.2186 12.4639 28.6075 11.5607 28.3146C11.0439 28.1468 10.4644 28.0689 9.73633 28.0689C9.3999 28.0689 9.07075 28.0843 8.75339 28.0997C8.07243 28.1323 7.22543 28.1723 6.94527 27.9682C6.66512 27.7642 6.43202 26.9309 6.25069 26.268C6.02128 25.4237 5.76193 24.4679 5.1879 23.679C4.61387 22.8902 3.79689 22.3633 3.06961 21.8891C2.45938 21.491 1.76746 21.0403 1.65317 20.6885C1.55159 20.3775 1.84814 19.595 2.08575 18.9656C2.40044 18.134 2.75584 17.1919 2.75584 16.189C2.75584 15.1861 2.39942 14.2439 2.08482 13.4124C1.84722 12.784 1.55159 12.0014 1.65225 11.6895C1.76654 11.3376 2.45837 10.8869 3.06961 10.488C3.79504 10.0146 4.6193 9.47777 5.18698 8.69892C5.75466 7.91997 6.02118 6.95333 6.25069 6.11001C6.43202 5.4471 6.65508 4.62192 6.94435 4.41158C7.23363 4.20123 8.07151 4.24746 8.75339 4.28006C9.63023 4.32178 10.6251 4.37078 11.5644 4.06428C12.4712 3.7705 13.2238 3.15751 13.8922 2.61976C14.4598 2.1555 15.1091 1.63222 15.4999 1.63222C15.8906 1.63222 16.54 2.15541 17.1121 2.61967C17.7795 3.15916 18.5357 3.77041 19.4398 4.06419C20.3756 4.36792 21.3703 4.32077 22.2509 4.27997C22.9318 4.2482 23.7788 4.20832 24.059 4.41148C24.3391 4.61465 24.5677 5.44609 24.7491 6.10992C24.9785 6.95416 25.2378 7.90993 25.8118 8.69882C26.3859 9.48772 27.2029 10.0155 27.9301 10.4888C28.5405 10.8868 29.2323 11.3376 29.3475 11.6894C29.4491 12.0013 29.1525 12.7838 28.9149 13.4123C28.6002 14.2438 28.2439 15.1869 28.2439 16.1889C28.2439 17.1909 28.6003 18.134 28.9149 18.9655L29.6784 18.6771L30.4419 18.3888C30.1507 17.6199 29.876 16.8935 29.876 16.1889C29.876 15.4843 30.1481 14.758 30.4409 13.989C30.8191 12.9915 31.1772 12.0421 30.8988 11.1852C30.606 10.2848 29.6983 9.69355 28.8205 9.12136C28.1858 8.70518 27.522 8.27537 27.1312 7.73854C26.7403 7.20171 26.5255 6.42461 26.3232 5.68195C26.0376 4.63187 25.7683 3.63981 25.0147 3.09212C24.2612 2.54442 23.2501 2.59885 22.1693 2.6496C21.3958 2.68588 20.5951 2.72392 19.9431 2.51173C19.3265 2.31133 18.7217 1.82258 18.1377 1.35013C17.3133 0.686483 16.4682 0 15.4998 0C14.5314 0 13.6862 0.686483 12.861 1.35114C12.2771 1.82359 11.6723 2.31142 11.0556 2.51182C10.4037 2.72309 9.63825 2.68773 8.82946 2.64969C7.74853 2.59895 6.72756 2.55087 5.98306 3.09221C5.23855 3.63355 4.96024 4.63371 4.67456 5.68287C4.47232 6.42553 4.26381 7.19361 3.8666 7.73946C3.46939 8.28531 2.81653 8.7061 2.17729 9.12228C1.29952 9.69447 0.391828 10.2857 0.0989629 11.1861C-0.179443 12.0431 0.178718 12.9888 0.556863 13.9908C0.847057 14.7598 1.12178 15.4861 1.12178 16.1898C1.12178 16.8935 0.849728 17.6198 0.556863 18.3897C0.178718 19.3872 -0.179443 20.3375 0.0989629 21.1935C0.391828 22.0948 1.29952 22.6861 2.17729 23.2583C2.81201 23.6744 3.47584 24.1043 3.86568 24.6411C4.25562 25.1779 4.4714 25.955 4.67364 26.6977C4.8477 27.3397 5.01734 27.9599 5.29482 28.4704L1.98868 36.9254C1.82475 37.3452 2.03224 37.8185 2.4521 37.9825C2.57717 38.0313 2.71237 38.0485 2.84563 38.0326L7.47022 37.4794L10.4908 41.0213C10.7836 41.364 11.2987 41.4045 11.6414 41.1116C11.7445 41.0236 11.824 40.9112 11.8728 40.7847L15.169 32.3515C15.3884 32.3881 15.6124 32.3881 15.8319 32.3515L19.1272 40.7847C19.2914 41.2044 19.7647 41.4116 20.1845 41.2473C20.3098 41.1984 20.4209 41.1192 20.5082 41.0168L23.5288 37.4749L28.1534 38.028C28.601 38.081 29.0067 37.761 29.0597 37.3134C29.0753 37.182 29.0586 37.0489 29.0112 36.9254L25.7038 28.4687C25.9813 27.9582 26.1499 27.3379 26.325 26.6959C26.5263 25.9533 26.7348 25.1852 27.133 24.6393C27.531 24.0935 28.183 23.6727 28.8223 23.2565C29.7 22.6843 30.6086 22.0931 30.9006 21.1926C31.179 20.3357 30.8218 19.3908 30.4473 18.3897ZM10.8452 38.9249L8.42673 36.0875C8.24935 35.8798 7.97979 35.7746 7.70856 35.8073L4.00521 36.2508L6.60682 29.5968C7.25518 29.8035 8.02501 29.7672 8.82845 29.7292C9.12767 29.7146 9.43693 29.7002 9.73523 29.7002C10.2865 29.7002 10.7064 29.7528 11.0555 29.8661C11.6721 30.0665 12.2761 30.5544 12.861 31.0277C13.133 31.2463 13.4051 31.4667 13.6843 31.6625L10.8452 38.9249ZM26.9942 36.2508L23.2917 35.8073C23.0204 35.7749 22.7508 35.8804 22.5736 36.0884L20.1542 38.9258L17.3132 31.6642C17.5926 31.4666 17.8664 31.2462 18.1366 31.0295C18.7206 30.557 19.3253 30.0692 19.942 29.8688C20.5931 29.6575 21.3575 29.6929 22.1691 29.7309C22.9806 29.7691 23.7424 29.8043 24.3907 29.5985L26.9942 36.2508Z" fill="url(#paint2_linear_573_114)"/>
<defs>
<linearGradient id="paint0_linear_573_114" x1="10.8382" y1="13.0473" x2="20.5285" y2="14.6045" gradientUnits="userSpaceOnUse">
<stop stop-color="#E8A3FF"/>
<stop offset="0.197917" stop-color="#A8BFFF"/>
<stop offset="0.375" stop-color="#2EFCA8"/>
<stop offset="0.744792" stop-color="#A8BFFF"/>
<stop offset="0.932292" stop-color="#E8A3FF"/>
</linearGradient>
<linearGradient id="paint1_linear_573_114" x1="7.49362" y1="10.8788" x2="24.1669" y2="13.4439" gradientUnits="userSpaceOnUse">
<stop stop-color="#E8A3FF"/>
<stop offset="0.197917" stop-color="#A8BFFF"/>
<stop offset="0.375" stop-color="#2EFCA8"/>
<stop offset="0.744792" stop-color="#A8BFFF"/>
<stop offset="0.932292" stop-color="#E8A3FF"/>
</linearGradient>
<linearGradient id="paint2_linear_573_114" x1="3.81526" y1="10.3268" x2="28.3976" y2="13.165" gradientUnits="userSpaceOnUse">
<stop stop-color="#E8A3FF"/>
<stop offset="0.197917" stop-color="#A8BFFF"/>
<stop offset="0.375" stop-color="#2EFCA8"/>
<stop offset="0.744792" stop-color="#A8BFFF"/>
<stop offset="0.932292" stop-color="#E8A3FF"/>
</linearGradient>
</defs>
</svg>
