<svg width="34" height="40" viewBox="0 0 34 40" fill="none" xmlns="http://www.w3.org/2000/svg">
<mask id="path-1-outside-1_573_123" maskUnits="userSpaceOnUse" x="-0.0684814" y="-0.32251" width="34" height="41" fill="black">
<rect fill="white" x="-0.0684814" y="-0.32251" width="34" height="41"/>
<path fill-rule="evenodd" clip-rule="evenodd" d="M1.17273 8.72847C0.936478 8.87143 0.860853 9.17885 1.00382 9.4151L4.99316 16.0076C5.13612 16.2438 5.44354 16.3195 5.67979 16.1765L6.90013 15.438L13.1158 25.7096C13.1211 25.719 13.1267 25.7283 13.1326 25.7373L16.3557 31.0636L15.1353 31.8021C14.899 31.9451 14.8234 32.2525 14.9664 32.4888L18.9557 39.0813C19.0987 39.3175 19.4061 39.3931 19.6423 39.2502L32.8273 31.2715C33.0636 31.1285 33.1392 30.8211 32.9962 30.5849L29.0069 23.9924C28.8639 23.7561 28.5565 23.6805 28.3203 23.8235L27.1 24.5619L17.6444 8.93631L18.8648 8.19783C19.101 8.05487 19.1767 7.74745 19.0337 7.5112L15.0444 0.918703C14.9014 0.68245 14.594 0.606825 14.3577 0.749789L1.17273 8.72847ZM7.75568 14.9203L16.7889 9.45403L23.2413 20.1169C22.2956 20.5805 21.4438 20.6524 20.5159 20.7273L20.4969 20.7288C19.4243 20.8154 18.2516 20.91 16.9144 21.7192C15.0481 22.8485 14.109 23.8344 13.5768 24.5398L7.75568 14.9203ZM14.141 25.4722L17.2112 30.5459L26.2444 25.0796L23.7607 20.9751C22.6028 21.5622 21.5695 21.6455 20.6154 21.7225L20.5964 21.7241C19.5273 21.8104 18.5592 21.8927 17.4321 22.5747C15.3651 23.8255 14.5509 24.8559 14.141 25.4722ZM16.7042 8.33641L17.9193 7.60114L14.4477 1.8642L2.11823 9.32515L5.58984 15.0621L6.80487 14.3268C6.80662 14.3258 6.80839 14.3247 6.81016 14.3236L16.6989 8.33959C16.7007 8.33852 16.7024 8.33746 16.7042 8.33641ZM17.2933 31.6651C17.296 31.6635 17.2986 31.662 17.3012 31.6604L27.19 25.6764C27.1926 25.6748 27.1952 25.6732 27.1978 25.6715L28.4102 24.9379L31.8818 30.6748L19.5524 38.1358L16.0808 32.3988L17.2933 31.6651Z"/>
</mask>
<path fill-rule="evenodd" clip-rule="evenodd" d="M1.17273 8.72847C0.936478 8.87143 0.860853 9.17885 1.00382 9.4151L4.99316 16.0076C5.13612 16.2438 5.44354 16.3195 5.67979 16.1765L6.90013 15.438L13.1158 25.7096C13.1211 25.719 13.1267 25.7283 13.1326 25.7373L16.3557 31.0636L15.1353 31.8021C14.899 31.9451 14.8234 32.2525 14.9664 32.4888L18.9557 39.0813C19.0987 39.3175 19.4061 39.3931 19.6423 39.2502L32.8273 31.2715C33.0636 31.1285 33.1392 30.8211 32.9962 30.5849L29.0069 23.9924C28.8639 23.7561 28.5565 23.6805 28.3203 23.8235L27.1 24.5619L17.6444 8.93631L18.8648 8.19783C19.101 8.05487 19.1767 7.74745 19.0337 7.5112L15.0444 0.918703C14.9014 0.68245 14.594 0.606825 14.3577 0.749789L1.17273 8.72847ZM7.75568 14.9203L16.7889 9.45403L23.2413 20.1169C22.2956 20.5805 21.4438 20.6524 20.5159 20.7273L20.4969 20.7288C19.4243 20.8154 18.2516 20.91 16.9144 21.7192C15.0481 22.8485 14.109 23.8344 13.5768 24.5398L7.75568 14.9203ZM14.141 25.4722L17.2112 30.5459L26.2444 25.0796L23.7607 20.9751C22.6028 21.5622 21.5695 21.6455 20.6154 21.7225L20.5964 21.7241C19.5273 21.8104 18.5592 21.8927 17.4321 22.5747C15.3651 23.8255 14.5509 24.8559 14.141 25.4722ZM16.7042 8.33641L17.9193 7.60114L14.4477 1.8642L2.11823 9.32515L5.58984 15.0621L6.80487 14.3268C6.80662 14.3258 6.80839 14.3247 6.81016 14.3236L16.6989 8.33959C16.7007 8.33852 16.7024 8.33746 16.7042 8.33641ZM17.2933 31.6651C17.296 31.6635 17.2986 31.662 17.3012 31.6604L27.19 25.6764C27.1926 25.6748 27.1952 25.6732 27.1978 25.6715L28.4102 24.9379L31.8818 30.6748L19.5524 38.1358L16.0808 32.3988L17.2933 31.6651Z" fill="url(#paint0_linear_573_123)"/>
<path d="M1.00382 9.4151L0.576043 9.67396H0.576043L1.00382 9.4151ZM1.17273 8.72847L1.43159 9.15624L1.43159 9.15624L1.17273 8.72847ZM4.99316 16.0076L5.42093 15.7487H5.42093L4.99316 16.0076ZM5.67979 16.1765L5.93865 16.6043L5.93865 16.6043L5.67979 16.1765ZM6.90013 15.438L7.3279 15.1792C7.18494 14.9429 6.87752 14.8673 6.64127 15.0103L6.90013 15.438ZM13.1158 25.7096L13.5517 25.4648C13.5491 25.4601 13.5464 25.4554 13.5436 25.4508L13.1158 25.7096ZM13.1326 25.7373L13.5603 25.4785C13.5575 25.4738 13.5546 25.4692 13.5517 25.4647L13.1326 25.7373ZM16.3557 31.0636L16.6145 31.4914C16.8508 31.3484 16.9264 31.041 16.7835 30.8048L16.3557 31.0636ZM15.1353 31.8021L14.8764 31.3744H14.8764L15.1353 31.8021ZM14.9664 32.4888L15.3941 32.2299L14.9664 32.4888ZM18.9557 39.0813L19.3835 38.8224L18.9557 39.0813ZM19.6423 39.2502L19.3835 38.8224L19.3835 38.8224L19.6423 39.2502ZM32.8273 31.2715L32.5685 30.8437L32.5685 30.8437L32.8273 31.2715ZM32.9962 30.5849L32.5685 30.8437L32.5685 30.8437L32.9962 30.5849ZM29.0069 23.9924L28.5791 24.2512L28.5791 24.2512L29.0069 23.9924ZM28.3203 23.8235L28.5791 24.2512L28.3203 23.8235ZM27.1 24.5619L26.6722 24.8208C26.7409 24.9342 26.8518 25.0157 26.9805 25.0474C27.1093 25.0791 27.2454 25.0583 27.3588 24.9897L27.1 24.5619ZM17.6444 8.93631L17.3856 8.50854C17.1493 8.6515 17.0737 8.95892 17.2166 9.19517L17.6444 8.93631ZM18.8648 8.19783L18.6059 7.77006H18.6059L18.8648 8.19783ZM19.0337 7.5112L18.6059 7.77006V7.77006L19.0337 7.5112ZM15.0444 0.918703L14.6166 1.17756L14.6166 1.17756L15.0444 0.918703ZM14.3577 0.749789L14.6166 1.17756V1.17756L14.3577 0.749789ZM16.7889 9.45403L17.2166 9.19517C17.148 9.08172 17.0371 9.00019 16.9083 8.96851C16.7795 8.93683 16.6435 8.95761 16.53 9.02626L16.7889 9.45403ZM7.75568 14.9203L7.49681 14.4925C7.38336 14.5612 7.30183 14.6721 7.27015 14.8009C7.23847 14.9296 7.25925 15.0657 7.3279 15.1792L7.75568 14.9203ZM23.2413 20.1169L23.4614 20.5658C23.5874 20.5041 23.6816 20.3923 23.7211 20.2577C23.7606 20.1231 23.7417 19.978 23.6691 19.858L23.2413 20.1169ZM20.5159 20.7273L20.5561 21.2257L20.5562 21.2257L20.5159 20.7273ZM20.4969 20.7288L20.4567 20.2305L20.4566 20.2305L20.4969 20.7288ZM16.9144 21.7192L17.1733 22.147H17.1733L16.9144 21.7192ZM13.5768 24.5398L13.149 24.7987C13.2349 24.9406 13.3856 25.0307 13.5512 25.0392C13.7169 25.0477 13.876 24.9734 13.9759 24.841L13.5768 24.5398ZM14.141 25.4722L13.7247 25.1953C13.6174 25.3566 13.6129 25.5653 13.7132 25.7311L14.141 25.4722ZM17.2112 30.5459L16.7835 30.8048C16.9264 31.041 17.2338 31.1166 17.4701 30.9737L17.2112 30.5459ZM26.2444 25.0796L26.5033 25.5074C26.7395 25.3644 26.8152 25.057 26.6722 24.8208L26.2444 25.0796ZM23.7607 20.9751L24.1885 20.7163C24.053 20.4925 23.7679 20.4109 23.5346 20.5292L23.7607 20.9751ZM20.6154 21.7225L20.5752 21.2241L20.5752 21.2241L20.6154 21.7225ZM20.5964 21.7241L20.6366 22.2224H20.6366L20.5964 21.7241ZM17.4321 22.5747L17.691 23.0025H17.691L17.4321 22.5747ZM16.7042 8.33641L16.9579 8.76732L16.9631 8.76419L16.7042 8.33641ZM17.9193 7.60114L18.1781 8.02892C18.2916 7.96026 18.3731 7.84935 18.4048 7.72058C18.4365 7.59181 18.4157 7.45574 18.3471 7.34228L17.9193 7.60114ZM14.4477 1.8642L14.8754 1.60534C14.8068 1.49189 14.6959 1.41035 14.5671 1.37867C14.4383 1.347 14.3023 1.36777 14.1888 1.43642L14.4477 1.8642ZM2.11823 9.32515L1.85937 8.89738C1.74591 8.96603 1.66438 9.07694 1.6327 9.20571C1.60103 9.33448 1.6218 9.47056 1.69045 9.58401L2.11823 9.32515ZM5.58984 15.0621L5.16207 15.321C5.30503 15.5572 5.61245 15.6328 5.8487 15.4899L5.58984 15.0621ZM6.80487 14.3268L7.06375 14.7547L7.06892 14.7514L6.80487 14.3268ZM6.81016 14.3236L6.5513 13.8958L6.55124 13.8959L6.81016 14.3236ZM16.6989 8.33959L16.4401 7.91179L16.44 7.91182L16.6989 8.33959ZM17.3012 31.6604L17.0424 31.2326L17.0423 31.2326L17.3012 31.6604ZM17.2933 31.6651L17.0423 31.2326L17.0345 31.2373L17.2933 31.6651ZM27.19 25.6764L26.9312 25.2485L26.9311 25.2486L27.19 25.6764ZM27.1978 25.6715L26.9389 25.2437L26.9314 25.2484L27.1978 25.6715ZM28.4102 24.9379L28.838 24.679C28.695 24.4427 28.3876 24.3671 28.1514 24.5101L28.4102 24.9379ZM31.8818 30.6748L32.1407 31.1026C32.2542 31.0339 32.3357 30.923 32.3674 30.7942C32.399 30.6655 32.3783 30.5294 32.3096 30.4159L31.8818 30.6748ZM19.5524 38.1358L19.1246 38.3946C19.2676 38.6309 19.575 38.7065 19.8113 38.5635L19.5524 38.1358ZM16.0808 32.3988L15.8219 31.971C15.7085 32.0397 15.6269 32.1506 15.5953 32.2794C15.5636 32.4081 15.5844 32.5442 15.653 32.6577L16.0808 32.3988ZM1.43159 9.15624L1.43159 9.15624L0.913872 8.30069C0.441364 8.58662 0.290114 9.20145 0.576043 9.67396L1.43159 9.15624ZM5.42093 15.7487L1.43159 9.15624L0.576043 9.67396L4.56538 16.2665L5.42093 15.7487ZM5.42093 15.7487H5.42093L4.56538 16.2665C4.85131 16.739 5.46614 16.8902 5.93865 16.6043L5.42093 15.7487ZM6.64127 15.0103L5.42093 15.7487L5.93865 16.6043L7.15899 15.8658L6.64127 15.0103ZM13.5436 25.4508L7.3279 15.1792L6.47235 15.6969L12.688 25.9685L13.5436 25.4508ZM13.5517 25.4647L13.5517 25.4648L12.6798 25.9544C12.6904 25.9732 12.7016 25.9917 12.7134 26.01L13.5517 25.4647ZM16.7835 30.8048L13.5603 25.4785L12.7048 25.9962L15.9279 31.3225L16.7835 30.8048ZM16.0968 30.6358L14.8764 31.3744L15.3941 32.2299L16.6145 31.4914L16.0968 30.6358ZM14.8764 31.3744C14.4039 31.6603 14.2527 32.2751 14.5386 32.7476L15.3941 32.2299H15.3941L14.8764 31.3744ZM14.5386 32.7476L18.5279 39.3401L19.3835 38.8224L15.3941 32.2299L14.5386 32.7476ZM18.5279 39.3401C18.8139 39.8126 19.4287 39.9639 19.9012 39.6779L19.3835 38.8224L19.3835 38.8224L18.5279 39.3401ZM19.9012 39.6779L33.0862 31.6993L32.5685 30.8437L19.3835 38.8224L19.9012 39.6779ZM33.0862 31.6993C33.5587 31.4133 33.71 30.7985 33.424 30.326L32.5685 30.8437L32.5685 30.8437L33.0862 31.6993ZM33.424 30.326L29.4347 23.7335L28.5791 24.2512L32.5685 30.8437L33.424 30.326ZM29.4347 23.7335C29.1488 23.261 28.5339 23.1097 28.0614 23.3957L28.5791 24.2512L28.5791 24.2512L29.4347 23.7335ZM28.0614 23.3957L26.8411 24.1341L27.3588 24.9897L28.5791 24.2512L28.0614 23.3957ZM17.2166 9.19517L26.6722 24.8208L27.5278 24.303L18.0722 8.67745L17.2166 9.19517ZM18.6059 7.77006L17.3856 8.50854L17.9033 9.36409L19.1236 8.62561L18.6059 7.77006ZM18.6059 7.77006V7.77006L19.1236 8.62561C19.5961 8.33968 19.7474 7.72484 19.4615 7.25234L18.6059 7.77006ZM14.6166 1.17756L18.6059 7.77006L19.4615 7.25234L15.4721 0.659843L14.6166 1.17756ZM14.6166 1.17756L14.6166 1.17756L15.4721 0.659843C15.1862 0.187335 14.5714 0.0360852 14.0989 0.322015L14.6166 1.17756ZM1.43159 9.15624L14.6166 1.17756L14.0989 0.322015L0.913871 8.30069L1.43159 9.15624ZM16.53 9.02626L7.49681 14.4925L8.01454 15.3481L17.0477 9.88181L16.53 9.02626ZM23.6691 19.858L17.2166 9.19517L16.3611 9.71289L22.8135 20.3757L23.6691 19.858ZM20.5562 21.2257C21.4814 21.151 22.421 21.0758 23.4614 20.5658L23.0212 19.6679C22.1701 20.0851 21.4062 20.1538 20.4757 20.2289L20.5562 21.2257ZM20.5371 21.2272L20.5561 21.2257L20.4757 20.2289L20.4567 20.2305L20.5371 21.2272ZM17.1733 22.147C18.4021 21.4033 19.4706 21.3133 20.5371 21.2272L20.4566 20.2305C19.3779 20.3175 18.101 20.4167 16.6555 21.2914L17.1733 22.147ZM13.9759 24.841C14.467 24.1901 15.3572 23.2459 17.1733 22.147L16.6555 21.2914C14.739 22.4512 13.7509 23.4788 13.1776 24.2387L13.9759 24.841ZM7.3279 15.1792L13.149 24.7987L14.0045 24.281L8.18345 14.6615L7.3279 15.1792ZM13.7132 25.7311L16.7835 30.8048L17.639 30.287L14.5687 25.2133L13.7132 25.7311ZM25.9856 24.6518L16.9524 30.1181L17.4701 30.9737L26.5033 25.5074L25.9856 24.6518ZM26.6722 24.8208L24.1885 20.7163L23.3329 21.234L25.8167 25.3385L26.6722 24.8208ZM23.5346 20.5292C22.4728 21.0675 21.5284 21.1472 20.5752 21.2241L20.6557 22.2209C21.6107 22.1438 22.7329 22.0568 23.9868 21.4211L23.5346 20.5292ZM20.5752 21.2241L20.5561 21.2257L20.6366 22.2224L20.6557 22.2209L20.5752 21.2241ZM20.5562 21.2257C19.4831 21.3123 18.4095 21.3989 17.1733 22.147L17.691 23.0025C18.7089 22.3865 19.5716 22.3084 20.6366 22.2224L20.5562 21.2257ZM17.1733 22.147C15.0438 23.4356 14.1756 24.5173 13.7247 25.1953L14.5573 25.7491C14.9262 25.1945 15.6865 24.2155 17.691 23.0025L17.1733 22.147ZM16.9631 8.76419L18.1781 8.02892L17.6604 7.17337L16.4454 7.90864L16.9631 8.76419ZM18.3471 7.34228L14.8754 1.60534L14.0199 2.12306L17.4915 7.86L18.3471 7.34228ZM14.1888 1.43642L1.85937 8.89738L2.37709 9.75293L14.7065 2.29197L14.1888 1.43642ZM1.69045 9.58401L5.16207 15.321L6.01762 14.8032L2.546 9.06629L1.69045 9.58401ZM5.8487 15.4899L7.06373 14.7546L6.54601 13.8991L5.33098 14.6343L5.8487 15.4899ZM7.06892 14.7514C7.06895 14.7514 7.069 14.7514 7.06908 14.7513L6.55124 13.8959C6.54778 13.898 6.5443 13.9001 6.54082 13.9023L7.06892 14.7514ZM7.06902 14.7514L16.9578 8.76737L16.44 7.91182L6.5513 13.8958L7.06902 14.7514ZM16.9577 8.76739C16.9578 8.76733 16.9579 8.76729 16.9579 8.76729L16.4506 7.90554C16.447 7.90763 16.4435 7.90971 16.4401 7.91179L16.9577 8.76739ZM17.0423 31.2326L17.0423 31.2326L17.5443 32.0975C17.5497 32.0944 17.555 32.0912 17.5601 32.0881L17.0423 31.2326ZM26.9311 25.2486L17.0424 31.2326L17.5601 32.0882L27.4488 26.1041L26.9311 25.2486ZM26.9314 25.2484L26.9312 25.2485L27.4487 26.1042C27.4543 26.1009 27.4594 26.0977 27.4642 26.0947L26.9314 25.2484ZM27.4567 26.0993L28.6691 25.3656L28.1514 24.5101L26.9389 25.2438L27.4567 26.0993ZM27.9824 25.1967L31.4541 30.9337L32.3096 30.4159L28.838 24.679L27.9824 25.1967ZM31.623 30.247L19.2935 37.708L19.8113 38.5635L32.1407 31.1026L31.623 30.247ZM19.9802 37.8769L16.5086 32.14L15.653 32.6577L19.1246 38.3946L19.9802 37.8769ZM16.3396 32.8266L17.5522 32.0928L17.0345 31.2373L15.8219 31.971L16.3396 32.8266Z" fill="url(#paint1_linear_573_123)" mask="url(#path-1-outside-1_573_123)"/>
<defs>
<linearGradient id="paint0_linear_573_123" x1="4.88684" y1="10.3387" x2="30.2947" y2="13.5894" gradientUnits="userSpaceOnUse">
<stop stop-color="#E8A3FF"/>
<stop offset="0.197917" stop-color="#A8BFFF"/>
<stop offset="0.375" stop-color="#2EFCA8"/>
<stop offset="0.744792" stop-color="#A8BFFF"/>
<stop offset="0.932292" stop-color="#E8A3FF"/>
</linearGradient>
<linearGradient id="paint1_linear_573_123" x1="4.88684" y1="10.3387" x2="30.2947" y2="13.5894" gradientUnits="userSpaceOnUse">
<stop stop-color="#E8A3FF"/>
<stop offset="0.197917" stop-color="#A8BFFF"/>
<stop offset="0.375" stop-color="#2EFCA8"/>
<stop offset="0.744792" stop-color="#A8BFFF"/>
<stop offset="0.932292" stop-color="#E8A3FF"/>
</linearGradient>
</defs>
</svg>
