<svg width="33" height="23" viewBox="0 0 33 23" fill="none" xmlns="http://www.w3.org/2000/svg">
<path d="M31.8682 0.6824C31.7658 0.56656 31.6175 0.5 31.4611 0.5H1.57111C1.25645 0.5 1.00012 0.76432 1.00012 1.0888V22.0379L1.03488 22.0744V22.1096L1.06963 22.1461V22.1659C1.08143 22.1819 1.09446 22.2037 1.10067 22.2325C1.11618 22.2517 1.13418 22.2818 1.1379 22.324L1.17204 22.3586L1.20555 22.3938C1.24776 22.3982 1.27693 22.4174 1.29493 22.4328C1.3241 22.4392 1.34644 22.4539 1.36133 22.4661C1.39671 22.4699 1.42092 22.4808 1.4445 22.5H31.6231C31.6231 22.5 31.6287 22.4974 31.6312 22.4955C31.6436 22.4898 31.6591 22.4814 31.6771 22.475L31.6858 22.4661L31.7193 22.4322L31.7553 22.3944L31.8589 22.2875C31.8626 22.2485 31.8782 22.2203 31.8924 22.2011V22.1781L31.9278 22.1448C31.9303 22.0853 31.9477 22.0546 31.9837 22.0162C31.9862 22.0027 31.9905 21.9906 31.9967 21.9784V1.08304L31.9979 1.07728C32.011 0.93136 31.9651 0.7912 31.8682 0.6824ZM2.1421 20.6715V4.80272L2.34319 4.96656L11.7273 12.6363L11.8501 12.7368L11.7273 12.8373L2.34319 20.507L2.1421 20.6715ZM3.2307 21.2872L3.50999 21.0587L12.7203 13.5323L12.7972 13.4696L12.8742 13.5323L16.176 16.2203C16.2772 16.299 16.3864 16.3362 16.5161 16.3362C16.626 16.3362 16.7699 16.3086 16.8457 16.2306L16.8506 16.2254L16.8562 16.2203L20.158 13.5323L20.235 13.4696L20.3119 13.5323L29.5222 21.0587L29.8015 21.2872H3.2307ZM30.8901 20.6715L30.689 20.507L21.305 12.8373L21.1821 12.7368L21.305 12.637L30.689 4.9672L30.8901 4.80272V20.6715ZM30.8901 3.29936L30.8454 3.33776L30.429 3.69616L30.4277 3.69744H30.4265L16.5937 14.9877L16.5161 15.051L16.4391 14.9877L2.60634 3.69808H2.6051L2.60385 3.69616L2.18678 3.33776L2.1421 3.29936V1.67824H30.8901V3.29936Z" fill="url(#paint0_linear_573_379)" stroke="url(#paint1_linear_573_379)"/>
<defs>
<linearGradient id="paint0_linear_573_379" x1="4.81551" y1="6" x2="28.6075" y2="11.1577" gradientUnits="userSpaceOnUse">
<stop stop-color="#E8A3FF"/>
<stop offset="0.197917" stop-color="#A8BFFF"/>
<stop offset="0.375" stop-color="#2EFCA8"/>
<stop offset="0.744792" stop-color="#A8BFFF"/>
<stop offset="0.932292" stop-color="#E8A3FF"/>
</linearGradient>
<linearGradient id="paint1_linear_573_379" x1="4.81551" y1="6" x2="28.6075" y2="11.1577" gradientUnits="userSpaceOnUse">
<stop stop-color="#E8A3FF"/>
<stop offset="0.197917" stop-color="#A8BFFF"/>
<stop offset="0.375" stop-color="#2EFCA8"/>
<stop offset="0.744792" stop-color="#A8BFFF"/>
<stop offset="0.932292" stop-color="#E8A3FF"/>
</linearGradient>
</defs>
</svg>
