<svg width="32" height="32" viewBox="0 0 32 32" fill="none" xmlns="http://www.w3.org/2000/svg">
<path d="M0.290754 5.31608C0.102619 5.15587 0 4.96653 0 4.74806V0.873876C0 0.626278 0.102619 0.422373 0.290754 0.247598C0.478888 0.0873876 0.718332 0 0.957777 0H31.0422C31.2988 0 31.5211 0.0873876 31.7092 0.247598C31.8974 0.422373 32 0.626278 32 0.859311V4.74806C32 4.96653 31.9145 5.15587 31.7263 5.31608C31.5382 5.49086 31.3159 5.56368 31.0251 5.56368H0.957777C0.718332 5.57824 0.495991 5.49086 0.290754 5.31608ZM12.6905 31.7654C12.5024 31.6052 12.3998 31.4013 12.3998 31.1974V14.2005C12.3998 13.9529 12.5024 13.7635 12.6905 13.6033C12.8787 13.4577 13.1181 13.3703 13.3576 13.3703H26.0652C26.356 13.3703 26.5954 13.4577 26.7835 13.6179C26.9717 13.7927 27.0743 13.982 27.0743 14.1859V18.4825C27.0743 18.7301 26.9717 18.934 26.7835 19.0942C26.5954 19.269 26.3389 19.3418 26.0652 19.3418H20.6435C20.387 19.3418 20.1646 19.4146 19.9765 19.5748C19.7883 19.735 19.6857 19.9244 19.6857 20.172V31.1828C19.6857 31.4013 19.5831 31.5906 19.395 31.7508C19.2068 31.911 18.9503 31.9984 18.6766 31.9984H13.3747C13.101 32.013 12.8787 31.9256 12.6905 31.7654Z" fill="url(#paint0_linear_573_4)"/>
<defs>
<linearGradient id="paint0_linear_573_4" x1="3.93846" y1="8" x2="29.0575" y2="11.8645" gradientUnits="userSpaceOnUse">
<stop stop-color="#E8A3FF"/>
<stop offset="0.197917" stop-color="#A8BFFF"/>
<stop offset="0.375" stop-color="#2EFCA8"/>
<stop offset="0.744792" stop-color="#A8BFFF"/>
<stop offset="0.932292" stop-color="#E8A3FF"/>
</linearGradient>
</defs>
</svg>
