<svg width="36" height="30" viewBox="0 0 36 30" fill="none" xmlns="http://www.w3.org/2000/svg">
<path d="M0.0112 18.0161C0.0112 17.9995 0.0165253 17.9828 0.0222321 17.9662C0.0275612 17.9051 0.0385933 17.8498 0.0659866 17.7999V17.7945L2.83697 11.9073C2.92981 11.7132 3.12043 11.5914 3.32779 11.5914H8.73281V6.44169C8.73281 6.43628 8.73813 6.43048 8.73813 6.42507C8.73813 6.39723 8.74917 6.36397 8.75449 6.33652C8.76553 6.29205 8.76553 6.25338 8.78721 6.21471C8.78721 6.2093 8.78721 6.2035 8.79254 6.2035L11.5635 0.316302C11.6564 0.122194 11.847 0.000386677 12.0543 0.000386677L23.6072 0C23.8088 0 23.9945 0.110977 24.0873 0.288079L27.2129 6.17528C27.2183 6.18069 27.2183 6.1919 27.2183 6.19732C27.2346 6.23598 27.2457 6.27504 27.2563 6.31371C27.2616 6.34155 27.2727 6.3748 27.2727 6.40226C27.2727 6.41347 27.278 6.4243 27.278 6.43551V11.5852H32.3288C32.5304 11.5852 32.7161 11.6962 32.8089 11.8733L35.9346 17.7605C35.9346 17.7659 35.9346 17.7717 35.9399 17.7771C35.9616 17.8216 35.9726 17.8715 35.9836 17.9214C35.989 17.9434 35.9947 17.9658 35.9947 17.9879C35.9947 17.9991 36 18.0099 36 18.0211V29.4455C36 29.7502 35.7546 30 35.4544 30H0.545609C0.245796 30 0 29.7506 0 29.4455V18.038C0.00532532 18.0322 0.0110321 18.0213 0.0110321 18.0155L0.0112 18.0161ZM3.66571 12.7058L1.41866 17.4843L8.73294 17.4839V12.7054L3.66571 12.7058ZM9.82374 17.3065H26.1872V6.99581H9.82374V17.3065ZM23.2798 1.10891H12.3922L10.1394 5.88742L25.8211 5.88704L23.2798 1.10891ZM32.0072 12.7055H27.2778V17.484L34.5434 17.4836L32.0072 12.7055ZM34.9144 18.5923H18.5509V28.908L34.9144 28.9084V18.5923ZM1.09655 28.9031H17.46V18.5923H1.09655V28.9031Z" fill="url(#paint0_linear_573_346)"/>
<defs>
<linearGradient id="paint0_linear_573_346" x1="31.5692" y1="7.5" x2="3.59487" y2="12.6645" gradientUnits="userSpaceOnUse">
<stop stop-color="#E8A3FF"/>
<stop offset="0.197917" stop-color="#A8BFFF"/>
<stop offset="0.375" stop-color="#2EFCA8"/>
<stop offset="0.744792" stop-color="#A8BFFF"/>
<stop offset="0.932292" stop-color="#E8A3FF"/>
</linearGradient>
</defs>
</svg>
