<svg width="20" height="21" viewBox="0 0 20 21" fill="none" xmlns="http://www.w3.org/2000/svg">
<rect y="0.5" width="20" height="20" rx="2.5" fill="#4D0099"/>
<path d="M14.1585 6.32895C13.3937 5.94526 12.5735 5.66258 11.7159 5.50068C11.7003 5.49755 11.6847 5.50536 11.6767 5.52098C11.5712 5.72609 11.4544 5.99368 11.3725 6.204C10.4502 6.05303 9.53259 6.05303 8.62916 6.204C8.54732 5.989 8.42624 5.72609 8.32029 5.52098C8.31224 5.50588 8.29664 5.49808 8.28102 5.50068C7.42395 5.66206 6.60378 5.94475 5.83847 6.32895C5.83184 6.33207 5.82616 6.33728 5.82239 6.34404C4.2667 8.88506 3.84052 11.3636 4.04959 13.8115C4.05054 13.8234 4.05668 13.8349 4.0652 13.8422C5.0916 14.6663 6.08585 15.1666 7.06164 15.4982C7.07726 15.5034 7.0938 15.4971 7.10374 15.4831C7.33456 15.1385 7.54032 14.7751 7.71674 14.393C7.72715 14.3706 7.71721 14.344 7.69593 14.3352C7.36957 14.1998 7.0588 14.0348 6.75986 13.8474C6.73622 13.8323 6.73433 13.7953 6.75608 13.7776C6.81899 13.7261 6.88191 13.6725 6.94198 13.6183C6.95285 13.6084 6.96799 13.6063 6.98077 13.6126C8.94464 14.5929 11.0708 14.5929 13.0115 13.6126C13.0243 13.6058 13.0394 13.6079 13.0507 13.6178C13.1108 13.6719 13.1737 13.7261 13.2371 13.7776C13.2589 13.7953 13.2574 13.8323 13.2338 13.8474C12.9349 14.0384 12.6241 14.1998 12.2973 14.3347C12.276 14.3435 12.2665 14.3706 12.2769 14.393C12.4571 14.7745 12.6629 15.1379 12.8894 15.4826C12.8989 15.4971 12.9159 15.5034 12.9315 15.4982C13.9121 15.1666 14.9063 14.6663 15.9327 13.8422C15.9417 13.8349 15.9474 13.824 15.9483 13.812C16.1985 10.982 15.5292 8.52378 14.1741 6.34456C14.1708 6.33728 14.1651 6.33207 14.1585 6.32895ZM8.01001 12.321C7.41875 12.321 6.93157 11.7275 6.93157 10.9987C6.93157 10.2698 7.4093 9.67638 8.01001 9.67638C8.61544 9.67638 9.0979 10.2751 9.08844 10.9987C9.08844 11.7275 8.6107 12.321 8.01001 12.321ZM11.9974 12.321C11.4061 12.321 10.9189 11.7275 10.9189 10.9987C10.9189 10.2698 11.3967 9.67638 11.9974 9.67638C12.6028 9.67638 13.0853 10.2751 13.0758 10.9987C13.0758 11.7275 12.6028 12.321 11.9974 12.321Z" fill="white"/>
</svg>
