<svg width="5" height="20" viewBox="0 0 5 20" fill="none" xmlns="http://www.w3.org/2000/svg">
<path fill-rule="evenodd" clip-rule="evenodd" d="M2.5 0C1.12 0 0 1.12 0 2.5C0 3.88 1.12 5 2.5 5C3.88 5 5 3.88 5 2.5C5 1.12 3.88 0 2.5 0" fill="#1C1C28"/>
<path fill-rule="evenodd" clip-rule="evenodd" d="M2.5 7.5C1.12 7.5 0 8.62 0 10C0 11.38 1.12 12.5 2.5 12.5C3.88 12.5 5 11.38 5 10C5 8.62 3.88 7.5 2.5 7.5" fill="#1C1C28"/>
<path fill-rule="evenodd" clip-rule="evenodd" d="M2.5 15C1.12 15 0 16.12 0 17.5C0 18.88 1.12 20 2.5 20C3.88 20 5 18.88 5 17.5C5 16.12 3.88 15 2.5 15" fill="#1C1C28"/>
</svg>
