<svg width="275" height="191" viewBox="0 0 275 191" fill="none" xmlns="http://www.w3.org/2000/svg">
<path d="M273.172 2.38786C271.79 0.870697 269.797 0 267.708 0H7.57156C3.39719 0 0 3.3993 0 7.57626V185.559L0.302767 185.866V186.162L0.672286 186.539L0.996509 186.966L1.07518 187.319L1.24444 187.522L1.29689 188.097L2.25764 189.042L3.18978 189.993L3.77148 190.053L4.00034 190.241L4.3341 190.313L4.72031 190.618L5.13989 190.664L5.56424 191H269.67L270.173 190.776C270.245 190.745 270.314 190.711 270.381 190.676C270.402 190.664 270.426 190.652 270.452 190.642L271.003 190.454L273.668 187.787L273.725 187.198L273.883 186.992L274.324 186.592L274.355 185.888L274.667 185.564L274.77 185.02L274.97 184.638V7.717C275.151 5.74422 274.512 3.85254 273.17 2.38786H273.172ZM15.1431 167.568V44.3197L92.8446 105.944L15.1431 167.568ZM260.139 44.3245V167.568L182.44 105.946L260.139 44.3245ZM105.277 115.45L133.07 137.406L133.115 137.441C134.455 138.453 135.935 138.944 137.642 138.944C138.551 138.944 140.811 138.787 142.305 137.334L170.007 115.452L245.799 175.552H29.4852L105.277 115.452V115.45ZM257.231 27.452L137.642 122.165L18.197 27.5689L18.1827 27.557L15.1431 25.0212V15.1573H260.139V25.026L257.233 27.4544L257.231 27.452Z" fill="white"/>
</svg>
