<svg width="16" height="17" viewBox="0 0 16 17" fill="none" xmlns="http://www.w3.org/2000/svg">
<path fill-rule="evenodd" clip-rule="evenodd" d="M11.9974 10.2239C11.7334 10.3419 11.2141 10.4999 10.3307 10.4999C9.5814 10.4999 8.93006 10.2446 8.24073 9.97461C7.46606 9.67127 6.66473 9.35727 5.66406 9.35727C4.9594 9.35727 4.4134 9.44194 3.9974 9.55594V8.49994V4.11061C4.2614 3.99261 4.78206 3.83327 5.66406 3.83327C6.4134 3.83327 7.06473 4.08861 7.75406 4.35861C8.52873 4.66194 9.33006 4.97594 10.3307 4.97594C10.9561 4.97594 11.5147 4.90861 11.9974 4.77594V10.2239ZM12.8427 3.61994C12.5347 3.39727 12.1361 3.33394 11.7767 3.45127C11.3927 3.57594 10.8927 3.64261 10.3307 3.64261C9.5814 3.64261 8.93006 3.38727 8.24073 3.11727C7.46606 2.81394 6.66473 2.49994 5.66406 2.49994C3.7394 2.49994 2.99406 3.13461 2.86406 3.26261C2.73606 3.38727 2.66406 3.55927 2.66406 3.73794V8.49994V10.5953V13.8333C2.66406 14.2019 2.96206 14.4999 3.33073 14.4999C3.6994 14.4999 3.9974 14.2019 3.9974 13.8333V10.9679C4.26073 10.8506 4.7794 10.6906 5.66406 10.6906C6.4134 10.6906 7.06473 10.9459 7.75406 11.2159C8.52873 11.5193 9.33006 11.8333 10.3307 11.8333C11.5367 11.8333 12.2794 11.5813 12.6914 11.3699C13.0861 11.1653 13.3307 10.7679 13.3307 10.3326V4.57061C13.3307 4.19727 13.1487 3.84194 12.8427 3.61994V3.61994Z" fill="white"/>
</svg>
