<svg width="18" height="20" viewBox="0 0 18 20" fill="none" xmlns="http://www.w3.org/2000/svg">
    <path d="M0.163549 3.32255C0.0577231 3.22242 0 3.10408 0 2.96754V0.546173C0 0.391424 0.0577231 0.263983 0.163549 0.154749C0.269375 0.0546173 0.404062 0 0.538749 0H17.4613C17.6056 0 17.7306 0.0546173 17.8365 0.154749C17.9423 0.263983 18 0.391424 18 0.53707V2.96754C18 3.10408 17.9519 3.22242 17.8461 3.32255C17.7402 3.43178 17.6152 3.4773 17.4516 3.4773H0.538749C0.404062 3.4864 0.278995 3.43178 0.163549 3.32255ZM7.13843 19.8534C7.0326 19.7532 6.97488 19.6258 6.97488 19.4984V8.8753C6.97488 8.72056 7.0326 8.60222 7.13843 8.50209C7.24425 8.41106 7.37894 8.35644 7.51363 8.35644H14.6617C14.8252 8.35644 14.9599 8.41106 15.0657 8.51119C15.1716 8.62042 15.2293 8.73876 15.2293 8.8662V11.5515C15.2293 11.7063 15.1716 11.8337 15.0657 11.9339C14.9599 12.0431 14.8156 12.0886 14.6617 12.0886H11.612C11.4677 12.0886 11.3426 12.1341 11.2368 12.2343C11.1309 12.3344 11.0732 12.4527 11.0732 12.6075V19.4893C11.0732 19.6258 11.0155 19.7441 10.9097 19.8443C10.8038 19.9444 10.6595 19.999 10.5056 19.999H7.52325C7.36932 20.0081 7.24425 19.9535 7.13843 19.8534Z"
          fill="white"/>
</svg>
