<svg width="38" height="40" viewBox="0 0 38 40" fill="none" xmlns="http://www.w3.org/2000/svg">
<path d="M0.34527 6.97897C0.12186 6.78372 0 6.55296 0 6.2867V1.56504C0 1.26328 0.12186 1.01477 0.34527 0.80176C0.56868 0.606504 0.85302 0.5 1.13736 0.5H36.8626C37.1673 0.5 37.4313 0.606504 37.6547 0.80176C37.8781 1.01477 38 1.26328 38 1.54729V6.2867C38 6.55296 37.8984 6.78372 37.675 6.97897C37.4516 7.19198 37.1876 7.28073 36.8423 7.28073H1.13736C0.85302 7.29848 0.58899 7.19198 0.34527 6.97897ZM15.07 39.2141C14.8466 39.0188 14.7247 38.7703 14.7247 38.5218V17.8068C14.7247 17.5051 14.8466 17.2743 15.07 17.0791C15.2934 16.9016 15.5778 16.7951 15.8621 16.7951H30.9524C31.2977 16.7951 31.582 16.9016 31.8055 17.0968C32.0289 17.3098 32.1507 17.5406 32.1507 17.7891V23.0255C32.1507 23.3273 32.0289 23.5758 31.8055 23.771C31.582 23.9841 31.2774 24.0728 30.9524 24.0728H24.5142C24.2095 24.0728 23.9455 24.1616 23.7221 24.3568C23.4987 24.5521 23.3768 24.7828 23.3768 25.0846V38.504C23.3768 38.7703 23.2549 39.0011 23.0315 39.1963C22.8081 39.3916 22.5035 39.4981 22.1785 39.4981H15.8824C15.5575 39.5158 15.2934 39.4093 15.07 39.2141Z" fill="url(#paint0_linear_347_926)"/>
<defs>
<linearGradient id="paint0_linear_347_926" x1="4.67692" y1="10.25" x2="34.5408" y2="14.7266" gradientUnits="userSpaceOnUse">
<stop stop-color="#E8A3FF"/>
<stop offset="0.197917" stop-color="#A8BFFF"/>
<stop offset="0.375" stop-color="#2EFCA8"/>
<stop offset="0.744792" stop-color="#A8BFFF"/>
<stop offset="0.932292" stop-color="#E8A3FF"/>
</linearGradient>
</defs>
</svg>
