<svg width="16" height="16" viewBox="0 0 16 16" fill="none" xmlns="http://www.w3.org/2000/svg">
<path d="M14.1336 6.97223H13.5099C13.3964 6.54601 13.2264 6.13408 13.0137 5.75049L13.4531 5.31012C13.694 5.06862 13.694 4.67086 13.4531 4.42935L12.3191 3.29282C12.0781 3.05133 11.6812 3.05133 11.4403 3.29282L11.0009 3.73319C10.6181 3.52014 10.2213 3.3496 9.78187 3.23592L9.78197 2.6251C9.79611 2.28413 9.51262 2 9.17241 2H7.58487C7.2305 2 6.96116 2.2841 6.96116 2.6251V3.2502C6.53589 3.36387 6.12488 3.53431 5.74214 3.74748L5.30275 3.30711C5.06179 3.06561 4.66491 3.06561 4.42394 3.30711L3.28994 4.44363C3.04899 4.68513 3.04899 5.08289 3.28994 5.3244L3.72933 5.76477C3.51675 6.14836 3.34659 6.54614 3.23317 6.98651L2.62371 6.98641C2.26934 6.97224 2 7.25636 2 7.59733V9.20267C2 9.52939 2.26934 9.81349 2.62371 9.81349H3.24742C3.36083 10.2397 3.53089 10.6516 3.74359 11.0352L3.3042 11.4756C3.06324 11.7171 3.06324 12.1149 3.3042 12.3564L4.43819 13.4929C4.67915 13.7344 5.07603 13.7344 5.317 13.4929L5.75639 13.0525C6.13913 13.2656 6.53602 13.4361 6.97541 13.5498V14.1749C6.97541 14.5159 7.25888 14.8 7.59912 14.8H9.20088C9.5411 14.8 9.82459 14.5159 9.82459 14.1749V13.5498C10.2499 13.4361 10.6609 13.2657 11.0436 13.0525L11.483 13.4929C11.724 13.7344 12.1208 13.7344 12.3618 13.4929L13.4958 12.3564C13.7368 12.1149 13.7368 11.7171 13.4958 11.4756L13.0564 11.0352C13.269 10.6516 13.4392 10.2539 13.5526 9.81349H14.1763C14.5165 9.81349 14.8 9.52939 14.8 9.18839L14.7998 7.59731C14.7573 7.25633 14.4738 6.97221 14.1336 6.97221L14.1336 6.97223ZM8.37865 11.2341C6.81939 11.2341 5.54372 9.9556 5.54372 8.39286C5.54372 6.83011 6.81939 5.5516 8.37865 5.5516C9.93792 5.5516 11.2136 6.83011 11.2136 8.39286C11.2136 9.9556 9.93792 11.2341 8.37865 11.2341Z" fill="white"/>
</svg>
