<svg width="17" height="17" viewBox="0 0 17 17" fill="none" xmlns="http://www.w3.org/2000/svg">
<path fill-rule="evenodd" clip-rule="evenodd" d="M5.30946 4.50002C4.73346 4.50002 4.19346 4.72269 3.78946 5.12735C2.95079 5.96735 2.95079 7.33469 3.79012 8.17602L8.49613 12.89L13.2028 8.17602C14.0421 7.33469 14.0421 5.96735 13.2028 5.12735C12.3948 4.31735 10.9708 4.31869 10.1628 5.12735L8.96813 6.32402C8.71746 6.57535 8.27479 6.57535 8.02412 6.32402L6.82946 5.12669C6.42546 4.72269 5.88613 4.50002 5.30946 4.50002M8.49613 14.5V14.5C8.31946 14.5 8.14946 14.43 8.02479 14.304L2.84613 9.11735C1.48879 7.75735 1.48879 5.54469 2.84613 4.18469C3.50213 3.52869 4.37679 3.16669 5.30946 3.16669C6.24213 3.16669 7.11746 3.52869 7.77279 4.18469L8.49613 4.90935L9.21946 4.18535C9.87546 3.52869 10.7501 3.16669 11.6835 3.16669C12.6155 3.16669 13.4908 3.52869 14.1461 4.18469C15.5041 5.54469 15.5041 7.75735 14.1468 9.11735L8.96813 14.3047C8.84279 14.43 8.67346 14.5 8.49613 14.5" fill="#FFF7FB"/>
</svg>
