<svg width="11" height="16" viewBox="0 0 11 16" fill="none" xmlns="http://www.w3.org/2000/svg">
<path d="M0.305565 6H1.22223V4.66666C1.22223 2.09344 3.14119 0 5.5 0C7.85881 0 9.77777 2.09344 9.77777 4.66666V6H10.6944C10.8633 6 11 6.14909 11 6.33334V14.6667C11 15.402 10.4519 16 9.77777 16H1.2222C0.548138 16 0 15.402 0 14.6667V6.33334C0 6.14909 0.136669 6 0.305565 6ZM4.58511 12.9632C4.57557 13.0573 4.6033 13.1517 4.66119 13.2223C4.71909 13.293 4.80204 13.3333 4.88887 13.3333H6.1111C6.19793 13.3333 6.28089 13.293 6.33878 13.2223C6.39667 13.1517 6.42443 13.0573 6.41486 12.9632L6.2221 11.0723C6.53512 10.8239 6.7222 10.431 6.7222 10C6.7222 9.26466 6.17406 8.66666 5.49997 8.66666C4.82588 8.66666 4.27774 9.26463 4.27774 10C4.27774 10.431 4.46483 10.8239 4.77784 11.0723L4.58511 12.9632ZM3.05556 6H7.94443V4.66666C7.94443 3.19628 6.84784 2 5.5 2C4.15216 2 3.05556 3.19628 3.05556 4.66666V6Z" fill="#646464"/>
</svg>
