<svg width="173" height="12" viewBox="0 0 173 12" fill="none" xmlns="http://www.w3.org/2000/svg">
<path d="M4.928 11.724C4.16 11.724 3.46133 11.5533 2.832 11.212C2.21333 10.86 1.71733 10.3533 1.344 9.692C0.981333 9.02 0.8 8.204 0.8 7.244V4.556C0.8 3.116 1.20533 2.012 2.016 1.244C2.82667 0.465333 3.92533 0.0759993 5.312 0.0759993C6.688 0.0759993 7.74933 0.443999 8.496 1.18C9.25333 1.90533 9.632 2.892 9.632 4.14V4.204H7.552V4.076C7.552 3.68133 7.46667 3.324 7.296 3.004C7.136 2.684 6.89067 2.43333 6.56 2.252C6.22933 2.06 5.81333 1.964 5.312 1.964C4.56533 1.964 3.97867 2.19333 3.552 2.652C3.12533 3.11067 2.912 3.73467 2.912 4.524V7.276C2.912 8.05467 3.12533 8.684 3.552 9.164C3.97867 9.63333 4.576 9.868 5.344 9.868C6.112 9.868 6.672 9.66533 7.024 9.26C7.376 8.85467 7.552 8.34267 7.552 7.724V7.564H4.896V5.772H9.632V11.5H7.68V10.428H7.392C7.31733 10.6093 7.19467 10.8013 7.024 11.004C6.864 11.2067 6.61867 11.3773 6.288 11.516C5.95733 11.6547 5.504 11.724 4.928 11.724ZM11.6497 11.5V0.299999H18.8498V2.22H13.7618V4.892H18.4018V6.812H13.7618V9.58H18.9458V11.5H11.6497ZM23.1011 11.5V2.22H19.8371V0.299999H28.4771V2.22H25.2131V11.5H23.1011ZM37.3815 11.724C36.5175 11.724 35.7548 11.5693 35.0935 11.26C34.4322 10.9507 33.9148 10.508 33.5415 9.932C33.1682 9.356 32.9815 8.66267 32.9815 7.852V7.404H35.0615V7.852C35.0615 8.524 35.2695 9.03067 35.6855 9.372C36.1015 9.70267 36.6668 9.868 37.3815 9.868C38.1068 9.868 38.6455 9.724 38.9975 9.436C39.3602 9.148 39.5415 8.78 39.5415 8.332C39.5415 8.02267 39.4508 7.772 39.2695 7.58C39.0988 7.388 38.8428 7.23333 38.5015 7.116C38.1708 6.988 37.7655 6.87067 37.2855 6.764L36.9175 6.684C36.1495 6.51333 35.4882 6.3 34.9335 6.044C34.3895 5.77733 33.9682 5.43067 33.6695 5.004C33.3815 4.57733 33.2375 4.02267 33.2375 3.34C33.2375 2.65733 33.3975 2.076 33.7175 1.596C34.0482 1.10533 34.5068 0.732 35.0935 0.476C35.6908 0.209333 36.3895 0.0759993 37.1895 0.0759993C37.9895 0.0759993 38.6988 0.214666 39.3175 0.492C39.9468 0.758666 40.4375 1.164 40.7895 1.708C41.1522 2.24133 41.3335 2.91333 41.3335 3.724V4.204H39.2535V3.724C39.2535 3.29733 39.1682 2.956 38.9975 2.7C38.8375 2.43333 38.6028 2.24133 38.2935 2.124C37.9842 1.996 37.6162 1.932 37.1895 1.932C36.5495 1.932 36.0748 2.05467 35.7655 2.3C35.4668 2.53467 35.3175 2.86 35.3175 3.276C35.3175 3.55333 35.3868 3.788 35.5255 3.98C35.6748 4.172 35.8935 4.332 36.1815 4.46C36.4695 4.588 36.8375 4.7 37.2855 4.796L37.6535 4.876C38.4535 5.04667 39.1468 5.26533 39.7335 5.532C40.3308 5.79867 40.7948 6.15067 41.1255 6.588C41.4562 7.02533 41.6215 7.58533 41.6215 8.268C41.6215 8.95067 41.4455 9.55333 41.0935 10.076C40.7522 10.588 40.2615 10.9933 39.6215 11.292C38.9922 11.58 38.2455 11.724 37.3815 11.724ZM45.4293 11.5V2.22H42.1653V0.299999H50.8053V2.22H47.5413V11.5H45.4293ZM50.4443 11.5L53.3883 0.299999H57.0683L60.0123 11.5H57.8363L57.2283 9.036H53.2283L52.6203 11.5H50.4443ZM53.7243 7.084H56.7323L55.3723 1.628H55.0843L53.7243 7.084ZM61.3529 11.5V0.299999H66.2169C66.9209 0.299999 67.5342 0.422666 68.0569 0.667999C68.5795 0.913333 68.9849 1.26 69.2729 1.708C69.5609 2.156 69.7049 2.684 69.7049 3.292V3.484C69.7049 4.156 69.5449 4.7 69.2249 5.116C68.9049 5.532 68.5102 5.836 68.0409 6.028V6.316C68.4675 6.33733 68.7982 6.48667 69.0329 6.764C69.2675 7.03067 69.3849 7.388 69.3849 7.836V11.5H67.2729V8.14C67.2729 7.884 67.2035 7.676 67.0649 7.516C66.9369 7.356 66.7182 7.276 66.4089 7.276H63.4649V11.5H61.3529ZM63.4649 5.356H65.9929C66.4942 5.356 66.8835 5.22267 67.1609 4.956C67.4489 4.67867 67.5929 4.316 67.5929 3.868V3.708C67.5929 3.26 67.4542 2.90267 67.1769 2.636C66.8995 2.35867 66.5049 2.22 65.9929 2.22H63.4649V5.356ZM73.8668 11.5V2.22H70.6028V0.299999H79.2428V2.22H75.9788V11.5H73.8668ZM80.681 11.5V0.299999H87.881V2.22H82.793V4.892H87.433V6.812H82.793V9.58H87.977V11.5H80.681ZM89.2204 11.5V9.644H90.6924V2.156H89.2204V0.299999H93.8284C95.3324 0.299999 96.4737 0.683999 97.2524 1.452C98.0417 2.20933 98.4364 3.34 98.4364 4.844V6.956C98.4364 8.46 98.0417 9.596 97.2524 10.364C96.4737 11.1213 95.3324 11.5 93.8284 11.5H89.2204ZM92.8044 9.58H93.8604C94.7137 9.58 95.3377 9.356 95.7324 8.908C96.127 8.46 96.3244 7.83067 96.3244 7.02V4.78C96.3244 3.95867 96.127 3.32933 95.7324 2.892C95.3377 2.444 94.7137 2.22 93.8604 2.22H92.8044V9.58ZM104.259 11.5V0.299999H111.299V2.22H106.371V4.924H110.915V6.844H106.371V11.5H104.259ZM117.064 11.724C115.656 11.724 114.536 11.34 113.704 10.572C112.872 9.79333 112.456 8.684 112.456 7.244V4.556C112.456 3.116 112.872 2.012 113.704 1.244C114.536 0.465333 115.656 0.0759993 117.064 0.0759993C118.472 0.0759993 119.592 0.465333 120.424 1.244C121.256 2.012 121.672 3.116 121.672 4.556V7.244C121.672 8.684 121.256 9.79333 120.424 10.572C119.592 11.34 118.472 11.724 117.064 11.724ZM117.064 9.836C117.854 9.836 118.467 9.60667 118.904 9.148C119.342 8.68933 119.56 8.076 119.56 7.308V4.492C119.56 3.724 119.342 3.11067 118.904 2.652C118.467 2.19333 117.854 1.964 117.064 1.964C116.286 1.964 115.672 2.19333 115.224 2.652C114.787 3.11067 114.568 3.724 114.568 4.492V7.308C114.568 8.076 114.787 8.68933 115.224 9.148C115.672 9.60667 116.286 9.836 117.064 9.836ZM123.525 11.5V0.299999H128.389C129.093 0.299999 129.706 0.422666 130.229 0.667999C130.751 0.913333 131.157 1.26 131.445 1.708C131.733 2.156 131.877 2.684 131.877 3.292V3.484C131.877 4.156 131.717 4.7 131.397 5.116C131.077 5.532 130.682 5.836 130.213 6.028V6.316C130.639 6.33733 130.97 6.48667 131.205 6.764C131.439 7.03067 131.557 7.388 131.557 7.836V11.5H129.445V8.14C129.445 7.884 129.375 7.676 129.237 7.516C129.109 7.356 128.89 7.276 128.581 7.276H125.637V11.5H123.525ZM125.637 5.356H128.165C128.666 5.356 129.055 5.22267 129.333 4.956C129.621 4.67867 129.765 4.316 129.765 3.868V3.708C129.765 3.26 129.626 2.90267 129.349 2.636C129.071 2.35867 128.677 2.22 128.165 2.22H125.637V5.356ZM137.697 11.5V0.299999H144.737V2.22H139.809V4.924H144.353V6.844H139.809V11.5H137.697ZM146.243 11.5V0.299999H151.108C151.812 0.299999 152.425 0.422666 152.948 0.667999C153.47 0.913333 153.876 1.26 154.164 1.708C154.452 2.156 154.595 2.684 154.595 3.292V3.484C154.595 4.156 154.436 4.7 154.116 5.116C153.796 5.532 153.401 5.836 152.932 6.028V6.316C153.358 6.33733 153.689 6.48667 153.924 6.764C154.158 7.03067 154.276 7.388 154.276 7.836V11.5H152.164V8.14C152.164 7.884 152.094 7.676 151.956 7.516C151.828 7.356 151.609 7.276 151.3 7.276H148.356V11.5H146.243ZM148.356 5.356H150.884C151.385 5.356 151.774 5.22267 152.052 4.956C152.34 4.67867 152.484 4.316 152.484 3.868V3.708C152.484 3.26 152.345 2.90267 152.068 2.636C151.79 2.35867 151.396 2.22 150.884 2.22H148.356V5.356ZM156.353 11.5V0.299999H163.553V2.22H158.465V4.892H163.105V6.812H158.465V9.58H163.649V11.5H156.353ZM165.212 11.5V0.299999H172.412V2.22H167.324V4.892H171.964V6.812H167.324V9.58H172.508V11.5H165.212Z" fill="white"/>
</svg>
