<svg width="53" height="40" viewBox="0 0 53 40" fill="none" xmlns="http://www.w3.org/2000/svg">
<path d="M52.2501 0.325003C52.0794 0.118598 51.8322 0 51.5715 0H1.74678C1.22226 0 0.794983 0.470971 0.794983 1.04913V38.3767L0.852918 38.4417V38.5044L0.910854 38.5694V38.6047C0.930511 38.6332 0.952237 38.672 0.962582 38.7233C0.988447 38.7575 1.01845 38.8111 1.02466 38.8864L1.08156 38.948L1.13742 39.0107C1.20777 39.0187 1.2564 39.0529 1.2864 39.0803C1.33503 39.0917 1.37227 39.1179 1.3971 39.1396C1.45607 39.1464 1.49642 39.1658 1.53573 39.2H51.8415C51.8415 39.2 51.8508 39.1954 51.8549 39.192C51.8756 39.1818 51.9015 39.1669 51.9315 39.1555L51.946 39.1396L52.0018 39.0791L52.0618 39.0118L52.2346 38.8214C52.2408 38.7518 52.2667 38.7017 52.2905 38.6674V38.6264L52.3495 38.5671C52.3536 38.461 52.3826 38.4063 52.4426 38.3379C52.4467 38.3139 52.454 38.2923 52.4643 38.2706V1.03887L52.4664 1.02861C52.4881 0.768605 52.4115 0.518865 52.2501 0.325003ZM2.69858 35.942V7.66666L3.03378 7.9586L18.6764 21.6247L18.8813 21.8038L18.6764 21.9828L3.03378 35.6489L2.69858 35.942ZM4.51321 37.039L4.97877 36.6319L20.3317 23.2212L20.46 23.1095L20.5883 23.2212L26.0922 28.0107C26.2608 28.151 26.4429 28.2172 26.6591 28.2172C26.8422 28.2172 27.0823 28.1681 27.2085 28.029L27.2168 28.0199L27.2261 28.0107L32.73 23.2212L32.8582 23.1095L32.9865 23.2212L48.3395 36.6319L48.805 37.039H4.51321ZM50.6197 35.942L50.2845 35.6489L34.6418 21.9828L34.437 21.8038L34.6418 21.6259L50.2845 7.95974L50.6197 7.66666V35.942ZM50.6197 4.98795L50.5452 5.05637L49.851 5.69497L49.8489 5.69726H49.8468L26.7884 25.8144L26.6591 25.9273L26.5308 25.8144L3.47244 5.6984H3.47037L3.4683 5.69497L2.77307 5.05637L2.69858 4.98795V2.09941H50.6197V4.98795Z" fill="url(#paint0_linear_347_940)"/>
<defs>
<linearGradient id="paint0_linear_347_940" x1="7.15498" y1="9.8" x2="47.038" y2="17.8885" gradientUnits="userSpaceOnUse">
<stop stop-color="#E8A3FF"/>
<stop offset="0.197917" stop-color="#A8BFFF"/>
<stop offset="0.375" stop-color="#2EFCA8"/>
<stop offset="0.744792" stop-color="#A8BFFF"/>
<stop offset="0.932292" stop-color="#E8A3FF"/>
</linearGradient>
</defs>
</svg>
