<svg width="23" height="28" viewBox="0 0 23 28" fill="none" xmlns="http://www.w3.org/2000/svg">
<mask id="path-1-outside-1_4491_7963" maskUnits="userSpaceOnUse" x="-0.74707" y="0" width="24" height="28" fill="black">
<rect fill="white" x="-0.74707" width="24" height="28"/>
<path fill-rule="evenodd" clip-rule="evenodd" d="M0.494143 6.45939C0.257889 6.60235 0.182264 6.90977 0.325229 7.14602L3.01877 11.5972C3.16174 11.8334 3.46916 11.9091 3.70541 11.7661L4.39044 11.3516L8.50072 18.1439C8.50581 18.1529 8.51118 18.1618 8.51684 18.1705L10.6066 21.6239L9.92146 22.0384C9.68521 22.1814 9.60958 22.4888 9.75255 22.7251L12.4461 27.1762C12.5891 27.4125 12.8965 27.4881 13.1327 27.3451L22.035 21.958C22.2713 21.8151 22.3469 21.5077 22.204 21.2714L19.5104 16.8202C19.3674 16.584 19.06 16.5084 18.8238 16.6513L18.1388 17.0658L11.9227 6.79352L12.6077 6.37901C12.844 6.23604 12.9196 5.92862 12.7766 5.69237L10.0831 1.24121C9.94013 1.00496 9.63271 0.929334 9.39646 1.0723L0.494143 6.45939ZM11.0672 7.31123L5.24599 10.8338L8.97103 16.9896C9.35954 16.52 9.99667 15.9119 11.1227 15.2305C12.0584 14.6642 12.8824 14.5978 13.6071 14.5393L13.6254 14.5378C14.1943 14.4919 14.7003 14.4485 15.2454 14.2159L11.0672 7.31123ZM15.767 15.0778C15.0111 15.4293 14.3326 15.484 13.7241 15.5331L13.7058 15.5346C12.9854 15.5927 12.366 15.6469 11.6404 16.086C10.3636 16.8586 9.81226 17.4997 9.5271 17.9085L11.4621 21.1061L17.2833 17.5835L15.767 15.0778ZM10.9801 6.19511L11.6622 5.78232L9.48641 2.18671L1.43964 7.05608L3.61546 10.6517L4.29772 10.2388C4.29864 10.2383 4.29957 10.2377 4.30049 10.2371L10.9772 6.19682C10.9782 6.19625 10.9791 6.19568 10.9801 6.19511ZM11.5461 22.2241C11.5481 22.223 11.5501 22.2218 11.5521 22.2206L18.2288 18.1803C18.2308 18.1791 18.2328 18.1779 18.2347 18.1766L18.9137 17.7657L21.0895 21.3614L13.0428 26.2307L10.867 22.6351L11.5461 22.2241Z"/>
</mask>
<path fill-rule="evenodd" clip-rule="evenodd" d="M0.494143 6.45939C0.257889 6.60235 0.182264 6.90977 0.325229 7.14602L3.01877 11.5972C3.16174 11.8334 3.46916 11.9091 3.70541 11.7661L4.39044 11.3516L8.50072 18.1439C8.50581 18.1529 8.51118 18.1618 8.51684 18.1705L10.6066 21.6239L9.92146 22.0384C9.68521 22.1814 9.60958 22.4888 9.75255 22.7251L12.4461 27.1762C12.5891 27.4125 12.8965 27.4881 13.1327 27.3451L22.035 21.958C22.2713 21.8151 22.3469 21.5077 22.204 21.2714L19.5104 16.8202C19.3674 16.584 19.06 16.5084 18.8238 16.6513L18.1388 17.0658L11.9227 6.79352L12.6077 6.37901C12.844 6.23604 12.9196 5.92862 12.7766 5.69237L10.0831 1.24121C9.94013 1.00496 9.63271 0.929334 9.39646 1.0723L0.494143 6.45939ZM11.0672 7.31123L5.24599 10.8338L8.97103 16.9896C9.35954 16.52 9.99667 15.9119 11.1227 15.2305C12.0584 14.6642 12.8824 14.5978 13.6071 14.5393L13.6254 14.5378C14.1943 14.4919 14.7003 14.4485 15.2454 14.2159L11.0672 7.31123ZM15.767 15.0778C15.0111 15.4293 14.3326 15.484 13.7241 15.5331L13.7058 15.5346C12.9854 15.5927 12.366 15.6469 11.6404 16.086C10.3636 16.8586 9.81226 17.4997 9.5271 17.9085L11.4621 21.1061L17.2833 17.5835L15.767 15.0778ZM10.9801 6.19511L11.6622 5.78232L9.48641 2.18671L1.43964 7.05608L3.61546 10.6517L4.29772 10.2388C4.29864 10.2383 4.29957 10.2377 4.30049 10.2371L10.9772 6.19682C10.9782 6.19625 10.9791 6.19568 10.9801 6.19511ZM11.5461 22.2241C11.5481 22.223 11.5501 22.2218 11.5521 22.2206L18.2288 18.1803C18.2308 18.1791 18.2328 18.1779 18.2347 18.1766L18.9137 17.7657L21.0895 21.3614L13.0428 26.2307L10.867 22.6351L11.5461 22.2241Z" fill="white"/>
<path d="M0.325229 7.14602L0.539116 7.01659H0.539116L0.325229 7.14602ZM0.494143 6.45939L0.364712 6.2455H0.364712L0.494143 6.45939ZM3.01877 11.5972L2.80489 11.7266L3.01877 11.5972ZM3.70541 11.7661L3.83484 11.98L3.83484 11.98L3.70541 11.7661ZM4.39044 11.3516L4.60433 11.2221C4.57 11.1654 4.51455 11.1246 4.45016 11.1088C4.38578 11.093 4.31774 11.1033 4.26101 11.1377L4.39044 11.3516ZM8.50072 18.1439L8.71866 18.0212L8.71461 18.0145L8.50072 18.1439ZM8.51684 18.1705L8.73083 18.041L8.72658 18.0345L8.51684 18.1705ZM10.6066 21.6239L10.736 21.8377C10.8541 21.7663 10.8919 21.6126 10.8204 21.4944L10.6066 21.6239ZM9.92146 22.0384L9.79203 21.8245L9.92146 22.0384ZM9.75255 22.7251L9.96644 22.5956L9.75255 22.7251ZM12.4461 27.1762L12.66 27.0468V27.0468L12.4461 27.1762ZM13.1327 27.3451L13.0033 27.1312L13.1327 27.3451ZM22.035 21.958L22.1645 22.1719L22.035 21.958ZM22.204 21.2714L21.9901 21.4008H21.9901L22.204 21.2714ZM19.5104 16.8202L19.7243 16.6908L19.7243 16.6908L19.5104 16.8202ZM18.8238 16.6513L18.6943 16.4374L18.8238 16.6513ZM18.1388 17.0658L17.9249 17.1952C17.9964 17.3134 18.1501 17.3512 18.2683 17.2797L18.1388 17.0658ZM11.9227 6.79352L11.7933 6.57963C11.7366 6.61396 11.6958 6.66942 11.68 6.7338C11.6641 6.79818 11.6745 6.86622 11.7088 6.92295L11.9227 6.79352ZM12.6077 6.37901L12.7372 6.59289V6.59289L12.6077 6.37901ZM12.7766 5.69237L12.9905 5.56294V5.56294L12.7766 5.69237ZM10.0831 1.24121L10.297 1.11178V1.11178L10.0831 1.24121ZM9.39646 1.0723L9.52589 1.28619V1.28619L9.39646 1.0723ZM11.0672 7.31123L11.2811 7.1818C11.2096 7.06368 11.0559 7.02586 10.9377 7.09735L11.0672 7.31123ZM5.24599 10.8338L5.11656 10.6199C5.05983 10.6543 5.01906 10.7097 5.00322 10.7741C4.98738 10.8385 4.99777 10.9065 5.0321 10.9633L5.24599 10.8338ZM8.97103 16.9896L8.75714 17.119C8.79906 17.1883 8.87192 17.2329 8.95267 17.2389C9.03341 17.2448 9.11204 17.2113 9.16365 17.1489L8.97103 16.9896ZM11.1227 15.2305L10.9932 15.0166H10.9932L11.1227 15.2305ZM13.6071 14.5393L13.587 14.2901H13.587L13.6071 14.5393ZM13.6254 14.5378L13.6455 14.787L13.6455 14.787L13.6254 14.5378ZM15.2454 14.2159L15.3435 14.4458C15.4101 14.4174 15.4612 14.3615 15.4834 14.2925C15.5056 14.2236 15.4968 14.1484 15.4593 14.0865L15.2454 14.2159ZM15.767 15.0778L15.9809 14.9484C15.9148 14.8393 15.7772 14.7973 15.6616 14.8511L15.767 15.0778ZM13.7241 15.5331L13.7442 15.7823L13.7442 15.7823L13.7241 15.5331ZM13.7058 15.5346L13.6857 15.2854L13.6857 15.2854L13.7058 15.5346ZM11.6404 16.086L11.7698 16.2999L11.6404 16.086ZM9.5271 17.9085L9.32206 17.7654C9.26549 17.8465 9.26202 17.9533 9.31321 18.0379L9.5271 17.9085ZM11.4621 21.1061L11.2482 21.2356C11.2825 21.2923 11.338 21.3331 11.4024 21.3489C11.4668 21.3647 11.5348 21.3543 11.5915 21.32L11.4621 21.1061ZM17.2833 17.5835L17.4127 17.7974C17.4694 17.7631 17.5102 17.7076 17.5261 17.6433C17.5419 17.5789 17.5315 17.5108 17.4972 17.4541L17.2833 17.5835ZM10.9801 6.19511L11.1081 6.40985L11.1095 6.409L10.9801 6.19511ZM11.6622 5.78232L11.7917 5.99621C11.9098 5.92472 11.9476 5.77101 11.8761 5.65289L11.6622 5.78232ZM9.48641 2.18671L9.70029 2.05728C9.66597 2.00055 9.61051 1.95979 9.54613 1.94395C9.48174 1.92811 9.4137 1.93849 9.35698 1.97282L9.48641 2.18671ZM1.43964 7.05608L1.31021 6.84219C1.25348 6.87652 1.21272 6.93197 1.19688 6.99636C1.18104 7.06074 1.19142 7.12878 1.22575 7.18551L1.43964 7.05608ZM3.61546 10.6517L3.40157 10.7811C3.4359 10.8378 3.49136 10.8786 3.55574 10.8944C3.62013 10.9103 3.68817 10.8999 3.74489 10.8656L3.61546 10.6517ZM4.29772 10.2388L4.42716 10.4527L4.42855 10.4519L4.29772 10.2388ZM4.30049 10.2371L4.42986 10.4511L4.42992 10.451L4.30049 10.2371ZM10.9772 6.19682L11.1067 6.41071L11.1067 6.41067L10.9772 6.19682ZM11.5521 22.2206L11.4226 22.0067L11.4226 22.0067L11.5521 22.2206ZM11.5461 22.2241L11.4195 22.0085L11.4167 22.0102L11.5461 22.2241ZM18.2288 18.1803L18.0994 17.9664L18.0994 17.9664L18.2288 18.1803ZM18.2347 18.1766L18.1053 17.9627L18.1024 17.9645L18.2347 18.1766ZM18.9137 17.7657L19.1276 17.6363C19.0561 17.5182 18.9024 17.4804 18.7843 17.5519L18.9137 17.7657ZM21.0895 21.3614L21.219 21.5752C21.2757 21.5409 21.3165 21.4855 21.3323 21.4211C21.3481 21.3567 21.3378 21.2886 21.3034 21.2319L21.0895 21.3614ZM13.0428 26.2307L12.8289 26.3602C12.9004 26.4783 13.0541 26.5161 13.1722 26.4446L13.0428 26.2307ZM10.867 22.6351L10.7375 22.4212C10.6194 22.4927 10.5816 22.6464 10.6531 22.7645L10.867 22.6351ZM0.539116 7.01659C0.467634 6.89847 0.505446 6.74476 0.623573 6.67328L0.364712 6.2455C0.0103324 6.45995 -0.103106 6.92107 0.111342 7.27545L0.539116 7.01659ZM3.23266 11.4678L0.539116 7.01659L0.111342 7.27545L2.80489 11.7266L3.23266 11.4678ZM3.57598 11.5522C3.45785 11.6237 3.30414 11.5859 3.23266 11.4678L2.80489 11.7266C3.01933 12.081 3.48046 12.1944 3.83484 11.98L3.57598 11.5522ZM4.26101 11.1377L3.57598 11.5522L3.83484 11.98L4.51987 11.5654L4.26101 11.1377ZM8.71461 18.0145L4.60433 11.2221L4.17655 11.481L8.28684 18.2733L8.71461 18.0145ZM8.72658 18.0345C8.72375 18.0301 8.72108 18.0257 8.71855 18.0212L8.28289 18.2666C8.29053 18.2802 8.2986 18.2935 8.3071 18.3066L8.72658 18.0345ZM10.8204 21.4944L8.73072 18.0411L8.30295 18.3L10.3927 21.7533L10.8204 21.4944ZM10.4771 21.41L9.79203 21.8245L10.0509 22.2523L10.736 21.8377L10.4771 21.41ZM9.79203 21.8245C9.43765 22.039 9.32421 22.5001 9.53866 22.8545L9.96644 22.5956C9.89495 22.4775 9.93277 22.3238 10.0509 22.2523L9.79203 21.8245ZM9.53866 22.8545L12.2322 27.3056L12.66 27.0468L9.96644 22.5956L9.53866 22.8545ZM12.2322 27.3056C12.4467 27.66 12.9078 27.7735 13.2622 27.559L13.0033 27.1312C12.8852 27.2027 12.7315 27.1649 12.66 27.0468L12.2322 27.3056ZM13.2622 27.559L22.1645 22.1719L21.9056 21.7442L13.0033 27.1312L13.2622 27.559ZM22.1645 22.1719C22.5189 21.9575 22.6323 21.4964 22.4178 21.142L21.9901 21.4008C22.0616 21.519 22.0237 21.6727 21.9056 21.7442L22.1645 22.1719ZM22.4178 21.142L19.7243 16.6908L19.2965 16.9497L21.9901 21.4008L22.4178 21.142ZM19.7243 16.6908C19.5099 16.3364 19.0487 16.223 18.6943 16.4374L18.9532 16.8652C19.0713 16.7937 19.225 16.8316 19.2965 16.9497L19.7243 16.6908ZM18.6943 16.4374L18.0094 16.8519L18.2683 17.2797L18.9532 16.8652L18.6943 16.4374ZM11.7088 6.92295L17.9249 17.1952L18.3527 16.9364L12.1366 6.66409L11.7088 6.92295ZM12.4783 6.16512L11.7933 6.57963L12.0522 7.00741L12.7372 6.59289L12.4783 6.16512ZM12.5628 5.8218C12.6342 5.93993 12.5964 6.09364 12.4783 6.16512L12.7372 6.59289C13.0915 6.37845 13.205 5.91732 12.9905 5.56294L12.5628 5.8218ZM9.86921 1.37064L12.5628 5.8218L12.9905 5.56294L10.297 1.11178L9.86921 1.37064ZM9.52589 1.28619C9.64402 1.2147 9.79772 1.25252 9.86921 1.37064L10.297 1.11178C10.0825 0.757403 9.62141 0.643964 9.26703 0.858412L9.52589 1.28619ZM0.623573 6.67328L9.52589 1.28619L9.26703 0.858412L0.364712 6.2455L0.623573 6.67328ZM10.9377 7.09735L5.11656 10.6199L5.37542 11.0477L11.1966 7.52512L10.9377 7.09735ZM5.0321 10.9633L8.75714 17.119L9.18492 16.8601L5.45987 10.7044L5.0321 10.9633ZM9.16365 17.1489C9.53261 16.703 10.1477 16.1127 11.2521 15.4444L10.9932 15.0166C9.84565 15.711 9.18648 16.337 8.77841 16.8302L9.16365 17.1489ZM11.2521 15.4444C12.1338 14.9108 12.9059 14.8467 13.6272 14.7885L13.587 14.2901C12.8588 14.3489 11.983 14.4177 10.9932 15.0166L11.2521 15.4444ZM13.6272 14.7885L13.6455 14.787L13.6053 14.2886L13.587 14.2901L13.6272 14.7885ZM13.6455 14.787C14.2119 14.7413 14.7563 14.6964 15.3435 14.4458L15.1473 13.9859C14.6444 14.2005 14.1768 14.2425 13.6053 14.2886L13.6455 14.787ZM15.4593 14.0865L11.2811 7.1818L10.8533 7.44066L15.0315 14.3453L15.4593 14.0865ZM15.6616 14.8511C14.9503 15.1819 14.3124 15.2349 13.704 15.2839L13.7442 15.7823C14.3528 15.7332 15.0719 15.6768 15.8724 15.3045L15.6616 14.8511ZM13.704 15.2839L13.6857 15.2854L13.7259 15.7838L13.7442 15.7823L13.704 15.2839ZM13.6857 15.2854C12.9634 15.3437 12.2911 15.4 11.511 15.8721L11.7698 16.2999C12.4408 15.8939 13.0075 15.8418 13.7259 15.7838L13.6857 15.2854ZM11.511 15.8721C10.2063 16.6616 9.62849 17.3262 9.32206 17.7654L9.73213 18.0515C9.99603 17.6733 10.5209 17.0556 11.7698 16.2999L11.511 15.8721ZM9.31321 18.0379L11.2482 21.2356L11.676 20.9767L9.74098 17.7791L9.31321 18.0379ZM17.1539 17.3696L11.3327 20.8922L11.5915 21.32L17.4127 17.7974L17.1539 17.3696ZM17.4972 17.4541L15.9809 14.9484L15.5531 15.2072L17.0694 17.713L17.4972 17.4541ZM11.1095 6.409L11.7917 5.99621L11.5328 5.56843L10.8506 5.98122L11.1095 6.409ZM11.8761 5.65289L9.70029 2.05728L9.27252 2.31614L11.4483 5.91175L11.8761 5.65289ZM9.35698 1.97282L1.31021 6.84219L1.56907 7.26996L9.61584 2.4006L9.35698 1.97282ZM1.22575 7.18551L3.40157 10.7811L3.82935 10.5223L1.65353 6.92665L1.22575 7.18551ZM3.74489 10.8656L4.42715 10.4527L4.16829 10.0249L3.48603 10.4378L3.74489 10.8656ZM4.42855 10.4519C4.42895 10.4516 4.42939 10.4513 4.42986 10.4511L4.17112 10.0232C4.16974 10.024 4.16833 10.0249 4.1669 10.0258L4.42855 10.4519ZM4.42992 10.451L11.1067 6.41071L10.8478 5.98293L4.17106 10.0233L4.42992 10.451ZM11.1067 6.41067C11.1071 6.41042 11.1076 6.41015 11.1081 6.40984L10.8521 5.98038C10.8507 5.98121 10.8492 5.98207 10.8477 5.98297L11.1067 6.41067ZM11.4226 22.0067C11.4217 22.0073 11.4207 22.0079 11.4196 22.0085L11.6727 22.4397C11.6755 22.438 11.6785 22.4363 11.6815 22.4345L11.4226 22.0067ZM18.0994 17.9664L11.4226 22.0067L11.6815 22.4345L18.3582 18.3942L18.0994 17.9664ZM18.1024 17.9645C18.1014 17.9652 18.1004 17.9658 18.0994 17.9664L18.3582 18.3942C18.3612 18.3924 18.3641 18.3906 18.367 18.3888L18.1024 17.9645ZM18.3641 18.3905L19.0432 17.9796L18.7843 17.5519L18.1053 17.9627L18.3641 18.3905ZM18.6998 17.8952L20.8757 21.4908L21.3034 21.2319L19.1276 17.6363L18.6998 17.8952ZM20.9601 21.1475L12.9134 26.0168L13.1722 26.4446L21.219 21.5752L20.9601 21.1475ZM13.2567 26.1013L11.0808 22.5057L10.6531 22.7645L12.8289 26.3602L13.2567 26.1013ZM10.9964 22.849L11.6756 22.438L11.4167 22.0102L10.7375 22.4212L10.9964 22.849Z" fill="white" mask="url(#path-1-outside-1_4491_7963)"/>
</svg>
