<svg width="24" height="28" viewBox="0 0 24 28" fill="none" xmlns="http://www.w3.org/2000/svg">
<mask id="path-1-outside-1_1568_4040" maskUnits="userSpaceOnUse" x="0" y="-0.5" width="24" height="28" fill="black">
<rect fill="white" y="-0.5" width="24" height="28"/>
<path fill-rule="evenodd" clip-rule="evenodd" d="M1.24121 5.95939C1.00496 6.10235 0.929334 6.40977 1.0723 6.64602L3.76584 11.0972C3.90881 11.3334 4.21623 11.4091 4.45248 11.2661L5.13751 10.8516L9.24779 17.6439C9.25288 17.6529 9.25825 17.6618 9.26391 17.6705L11.3536 21.1239L10.6685 21.5384C10.4323 21.6814 10.3567 21.9888 10.4996 22.2251L13.1932 26.6762C13.3361 26.9125 13.6435 26.9881 13.8798 26.8451L22.7821 21.458C23.0184 21.3151 23.094 21.0077 22.951 20.7714L20.2575 16.3202C20.1145 16.084 19.8071 16.0084 19.5708 16.1513L18.8859 16.5658L12.6698 6.29352L13.3548 5.87901C13.591 5.73604 13.6667 5.42862 13.5237 5.19237L10.8302 0.741213C10.6872 0.50496 10.3798 0.429334 10.1435 0.572299L1.24121 5.95939ZM11.8142 6.81123L5.99306 10.3338L9.7181 16.4896C10.1066 16.02 10.7437 15.4119 11.8697 14.7305C12.8055 14.1642 13.6295 14.0978 14.3542 14.0393L14.3724 14.0378C14.9414 13.9919 15.4474 13.9485 15.9925 13.7159L11.8142 6.81123ZM16.5141 14.5778C15.7582 14.9293 15.0797 14.984 14.4712 15.0331L14.4529 15.0346C13.7325 15.0927 13.113 15.1469 12.3875 15.586C11.1107 16.3586 10.5593 16.9997 10.2742 17.4085L12.2092 20.6061L18.0304 17.0835L16.5141 14.5778ZM11.7271 5.69511L12.4093 5.28232L10.2335 1.68671L2.18671 6.55608L4.36253 10.1517L5.04479 9.73882C5.04571 9.73826 5.04664 9.7377 5.04756 9.73714L11.7243 5.69682C11.7252 5.69625 11.7262 5.69568 11.7271 5.69511ZM12.2932 21.7241C12.2952 21.723 12.2972 21.7218 12.2991 21.7206L18.9759 17.6803C18.9779 17.6791 18.9798 17.6779 18.9818 17.6766L19.6608 17.2657L21.8366 20.8614L13.7899 25.7307L11.614 22.1351L12.2932 21.7241Z"/>
</mask>
<path fill-rule="evenodd" clip-rule="evenodd" d="M1.24121 5.95939C1.00496 6.10235 0.929334 6.40977 1.0723 6.64602L3.76584 11.0972C3.90881 11.3334 4.21623 11.4091 4.45248 11.2661L5.13751 10.8516L9.24779 17.6439C9.25288 17.6529 9.25825 17.6618 9.26391 17.6705L11.3536 21.1239L10.6685 21.5384C10.4323 21.6814 10.3567 21.9888 10.4996 22.2251L13.1932 26.6762C13.3361 26.9125 13.6435 26.9881 13.8798 26.8451L22.7821 21.458C23.0184 21.3151 23.094 21.0077 22.951 20.7714L20.2575 16.3202C20.1145 16.084 19.8071 16.0084 19.5708 16.1513L18.8859 16.5658L12.6698 6.29352L13.3548 5.87901C13.591 5.73604 13.6667 5.42862 13.5237 5.19237L10.8302 0.741213C10.6872 0.50496 10.3798 0.429334 10.1435 0.572299L1.24121 5.95939ZM11.8142 6.81123L5.99306 10.3338L9.7181 16.4896C10.1066 16.02 10.7437 15.4119 11.8697 14.7305C12.8055 14.1642 13.6295 14.0978 14.3542 14.0393L14.3724 14.0378C14.9414 13.9919 15.4474 13.9485 15.9925 13.7159L11.8142 6.81123ZM16.5141 14.5778C15.7582 14.9293 15.0797 14.984 14.4712 15.0331L14.4529 15.0346C13.7325 15.0927 13.113 15.1469 12.3875 15.586C11.1107 16.3586 10.5593 16.9997 10.2742 17.4085L12.2092 20.6061L18.0304 17.0835L16.5141 14.5778ZM11.7271 5.69511L12.4093 5.28232L10.2335 1.68671L2.18671 6.55608L4.36253 10.1517L5.04479 9.73882C5.04571 9.73826 5.04664 9.7377 5.04756 9.73714L11.7243 5.69682C11.7252 5.69625 11.7262 5.69568 11.7271 5.69511ZM12.2932 21.7241C12.2952 21.723 12.2972 21.7218 12.2991 21.7206L18.9759 17.6803C18.9779 17.6791 18.9798 17.6779 18.9818 17.6766L19.6608 17.2657L21.8366 20.8614L13.7899 25.7307L11.614 22.1351L12.2932 21.7241Z" fill="white"/>
<path d="M1.0723 6.64602L1.28619 6.51659H1.28619L1.0723 6.64602ZM1.24121 5.95939L1.11178 5.7455H1.11178L1.24121 5.95939ZM3.76584 11.0972L3.55196 11.2266L3.76584 11.0972ZM4.45248 11.2661L4.58191 11.48L4.58191 11.48L4.45248 11.2661ZM5.13751 10.8516L5.3514 10.7221C5.31707 10.6654 5.26162 10.6246 5.19723 10.6088C5.13285 10.593 5.06481 10.6033 5.00808 10.6377L5.13751 10.8516ZM9.24779 17.6439L9.46573 17.5212L9.46168 17.5145L9.24779 17.6439ZM9.26391 17.6705L9.4779 17.541L9.47365 17.5345L9.26391 17.6705ZM11.3536 21.1239L11.4831 21.3377C11.6012 21.2663 11.639 21.1126 11.5675 20.9944L11.3536 21.1239ZM10.6685 21.5384L10.5391 21.3245L10.6685 21.5384ZM10.4996 22.2251L10.7135 22.0956L10.4996 22.2251ZM13.1932 26.6762L13.4071 26.5468V26.5468L13.1932 26.6762ZM13.8798 26.8451L13.7504 26.6312L13.8798 26.8451ZM22.7821 21.458L22.9115 21.6719L22.7821 21.458ZM22.951 20.7714L22.7371 20.9008H22.7371L22.951 20.7714ZM20.2575 16.3202L20.4714 16.1908L20.4714 16.1908L20.2575 16.3202ZM19.5708 16.1513L19.4414 15.9374L19.5708 16.1513ZM18.8859 16.5658L18.672 16.6952C18.7435 16.8134 18.8972 16.8512 19.0153 16.7797L18.8859 16.5658ZM12.6698 6.29352L12.5404 6.07963C12.4836 6.11396 12.4429 6.16942 12.427 6.2338C12.4112 6.29818 12.4216 6.36622 12.4559 6.42295L12.6698 6.29352ZM13.3548 5.87901L13.4842 6.09289V6.09289L13.3548 5.87901ZM13.5237 5.19237L13.7376 5.06294V5.06294L13.5237 5.19237ZM10.8302 0.741213L11.0441 0.611783V0.611782L10.8302 0.741213ZM10.1435 0.572299L10.273 0.786186V0.786186L10.1435 0.572299ZM11.8142 6.81123L12.0281 6.6818C11.9566 6.56368 11.8029 6.52586 11.6848 6.59735L11.8142 6.81123ZM5.99306 10.3338L5.86363 10.1199C5.8069 10.1543 5.76613 10.2097 5.75029 10.2741C5.73445 10.3385 5.74484 10.4065 5.77917 10.4633L5.99306 10.3338ZM9.7181 16.4896L9.50421 16.619C9.54613 16.6883 9.61899 16.7329 9.69974 16.7389C9.78048 16.7448 9.85911 16.7113 9.91072 16.6489L9.7181 16.4896ZM11.8697 14.7305L11.7403 14.5166H11.7403L11.8697 14.7305ZM14.3542 14.0393L14.3341 13.7901H14.3341L14.3542 14.0393ZM14.3724 14.0378L14.3925 14.287L14.3926 14.287L14.3724 14.0378ZM15.9925 13.7159L16.0906 13.9458C16.1572 13.9174 16.2082 13.8615 16.2304 13.7925C16.2526 13.7236 16.2439 13.6484 16.2064 13.5865L15.9925 13.7159ZM16.5141 14.5778L16.728 14.4484C16.6619 14.3393 16.5243 14.2973 16.4087 14.3511L16.5141 14.5778ZM14.4712 15.0331L14.4913 15.2823L14.4913 15.2823L14.4712 15.0331ZM14.4529 15.0346L14.4328 14.7854L14.4328 14.7854L14.4529 15.0346ZM12.3875 15.586L12.5169 15.7999L12.3875 15.586ZM10.2742 17.4085L10.0691 17.2654C10.0126 17.3465 10.0091 17.4533 10.0603 17.5379L10.2742 17.4085ZM12.2092 20.6061L11.9953 20.7356C12.0296 20.7923 12.0851 20.8331 12.1494 20.8489C12.2138 20.8647 12.2819 20.8543 12.3386 20.82L12.2092 20.6061ZM18.0304 17.0835L18.1598 17.2974C18.2165 17.2631 18.2573 17.2076 18.2731 17.1433C18.289 17.0789 18.2786 17.0108 18.2442 16.9541L18.0304 17.0835ZM11.7271 5.69511L11.8552 5.90985L11.8566 5.909L11.7271 5.69511ZM12.4093 5.28232L12.5387 5.49621C12.6569 5.42472 12.6947 5.27101 12.6232 5.15289L12.4093 5.28232ZM10.2335 1.68671L10.4474 1.55728C10.413 1.50055 10.3576 1.45979 10.2932 1.44395C10.2288 1.42811 10.1608 1.43849 10.104 1.47282L10.2335 1.68671ZM2.18671 6.55608L2.05728 6.34219C2.00055 6.37652 1.95979 6.43197 1.94395 6.49636C1.92811 6.56074 1.93849 6.62878 1.97282 6.68551L2.18671 6.55608ZM4.36253 10.1517L4.14864 10.2811C4.18297 10.3378 4.23843 10.3786 4.30281 10.3944C4.3672 10.4103 4.43524 10.3999 4.49196 10.3656L4.36253 10.1517ZM5.04479 9.73882L5.17423 9.95272L5.17562 9.95186L5.04479 9.73882ZM5.04756 9.73714L5.17693 9.95106L5.17699 9.95103L5.04756 9.73714ZM11.7243 5.69682L11.8537 5.91071L11.8538 5.91067L11.7243 5.69682ZM12.2991 21.7206L12.1697 21.5067L12.1697 21.5067L12.2991 21.7206ZM12.2932 21.7241L12.1666 21.5085L12.1638 21.5102L12.2932 21.7241ZM18.9759 17.6803L18.8465 17.4664L18.8464 17.4664L18.9759 17.6803ZM18.9818 17.6766L18.8523 17.4627L18.8495 17.4645L18.9818 17.6766ZM19.6608 17.2657L19.8747 17.1363C19.8032 17.0182 19.6495 16.9804 19.5314 17.0519L19.6608 17.2657ZM21.8366 20.8614L21.966 21.0752C22.0228 21.0409 22.0635 20.9855 22.0794 20.9211C22.0952 20.8567 22.0848 20.7886 22.0505 20.7319L21.8366 20.8614ZM13.7899 25.7307L13.576 25.8602C13.6474 25.9783 13.8012 26.0161 13.9193 25.9446L13.7899 25.7307ZM11.614 22.1351L11.4846 21.9212C11.3665 21.9927 11.3287 22.1464 11.4001 22.2645L11.614 22.1351ZM1.28619 6.51659C1.2147 6.39847 1.25252 6.24476 1.37064 6.17328L1.11178 5.7455C0.757403 5.95995 0.643965 6.42107 0.858412 6.77545L1.28619 6.51659ZM3.97973 10.9678L1.28619 6.51659L0.858412 6.77545L3.55196 11.2266L3.97973 10.9678ZM4.32305 11.0522C4.20492 11.1237 4.05121 11.0859 3.97973 10.9678L3.55196 11.2266C3.7664 11.581 4.22753 11.6944 4.58191 11.48L4.32305 11.0522ZM5.00808 10.6377L4.32305 11.0522L4.58191 11.48L5.26694 11.0654L5.00808 10.6377ZM9.46168 17.5145L5.3514 10.7221L4.92362 10.981L9.03391 17.7733L9.46168 17.5145ZM9.47365 17.5345C9.47082 17.5301 9.46815 17.5257 9.46562 17.5212L9.02996 17.7666C9.0376 17.7802 9.04567 17.7935 9.05417 17.8066L9.47365 17.5345ZM11.5675 20.9944L9.47779 17.5411L9.05002 17.8L11.1397 21.2533L11.5675 20.9944ZM11.2242 20.91L10.5391 21.3245L10.798 21.7523L11.4831 21.3377L11.2242 20.91ZM10.5391 21.3245C10.1847 21.539 10.0713 22.0001 10.2857 22.3545L10.7135 22.0956C10.642 21.9775 10.6798 21.8238 10.798 21.7523L10.5391 21.3245ZM10.2857 22.3545L12.9793 26.8056L13.4071 26.5468L10.7135 22.0956L10.2857 22.3545ZM12.9793 26.8056C13.1937 27.16 13.6548 27.2735 14.0092 27.059L13.7504 26.6312C13.6322 26.7027 13.4785 26.6649 13.4071 26.5468L12.9793 26.8056ZM14.0092 27.059L22.9115 21.6719L22.6527 21.2442L13.7504 26.6312L14.0092 27.059ZM22.9115 21.6719C23.2659 21.4575 23.3794 20.9964 23.1649 20.642L22.7371 20.9008C22.8086 21.019 22.7708 21.1727 22.6527 21.2442L22.9115 21.6719ZM23.1649 20.642L20.4714 16.1908L20.0436 16.4497L22.7371 20.9008L23.1649 20.642ZM20.4714 16.1908C20.2569 15.8364 19.7958 15.723 19.4414 15.9374L19.7003 16.3652C19.8184 16.2937 19.9721 16.3316 20.0436 16.4497L20.4714 16.1908ZM19.4414 15.9374L18.7565 16.3519L19.0153 16.7797L19.7003 16.3652L19.4414 15.9374ZM12.4559 6.42295L18.672 16.6952L19.0998 16.4364L12.8837 6.16409L12.4559 6.42295ZM13.2254 5.66512L12.5404 6.07963L12.7992 6.50741L13.4842 6.09289L13.2254 5.66512ZM13.3098 5.3218C13.3813 5.43993 13.3435 5.59364 13.2254 5.66512L13.4842 6.09289C13.8386 5.87845 13.952 5.41732 13.7376 5.06294L13.3098 5.3218ZM10.6163 0.870643L13.3098 5.3218L13.7376 5.06294L11.0441 0.611783L10.6163 0.870643ZM10.273 0.786186C10.3911 0.714704 10.5448 0.752516 10.6163 0.870644L11.0441 0.611782C10.8296 0.257403 10.3685 0.143964 10.0141 0.358412L10.273 0.786186ZM1.37064 6.17328L10.273 0.786186L10.0141 0.358412L1.11178 5.7455L1.37064 6.17328ZM11.6848 6.59735L5.86363 10.1199L6.12249 10.5477L11.9437 7.02512L11.6848 6.59735ZM5.77917 10.4633L9.50421 16.619L9.93199 16.3601L6.20694 10.2044L5.77917 10.4633ZM9.91072 16.6489C10.2797 16.203 10.8947 15.6127 11.9992 14.9444L11.7403 14.5166C10.5927 15.211 9.93355 15.837 9.52548 16.3302L9.91072 16.6489ZM11.9992 14.9444C12.8809 14.4108 13.653 14.3467 14.3743 14.2885L14.3341 13.7901C13.6059 13.8489 12.73 13.9177 11.7403 14.5166L11.9992 14.9444ZM14.3742 14.2885L14.3925 14.287L14.3523 13.7886L14.3341 13.7901L14.3742 14.2885ZM14.3926 14.287C14.959 14.2413 15.5034 14.1964 16.0906 13.9458L15.8944 13.4859C15.3914 13.7005 14.9238 13.7425 14.3523 13.7886L14.3926 14.287ZM16.2064 13.5865L12.0281 6.6818L11.6004 6.94066L15.7786 13.8453L16.2064 13.5865ZM16.4087 14.3511C15.6974 14.6819 15.0595 14.7349 14.4511 14.7839L14.4913 15.2823C15.0999 15.2332 15.819 15.1768 16.6195 14.8045L16.4087 14.3511ZM14.4511 14.7839L14.4328 14.7854L14.473 15.2838L14.4913 15.2823L14.4511 14.7839ZM14.4328 14.7854C13.7105 14.8437 13.0382 14.9 12.258 15.3721L12.5169 15.7999C13.1879 15.3939 13.7545 15.3418 14.473 15.2838L14.4328 14.7854ZM12.258 15.3721C10.9534 16.1616 10.3756 16.8262 10.0691 17.2654L10.4792 17.5515C10.7431 17.1733 11.268 16.5556 12.5169 15.7999L12.258 15.3721ZM10.0603 17.5379L11.9953 20.7356L12.4231 20.4767L10.4881 17.2791L10.0603 17.5379ZM17.9009 16.8696L12.0797 20.3922L12.3386 20.82L18.1598 17.2974L17.9009 16.8696ZM18.2442 16.9541L16.728 14.4484L16.3002 14.7072L17.8165 17.213L18.2442 16.9541ZM11.8566 5.909L12.5387 5.49621L12.2799 5.06843L11.5977 5.48122L11.8566 5.909ZM12.6232 5.15289L10.4474 1.55728L10.0196 1.81614L12.1954 5.41175L12.6232 5.15289ZM10.104 1.47282L2.05728 6.34219L2.31614 6.76996L10.3629 1.9006L10.104 1.47282ZM1.97282 6.68551L4.14864 10.2811L4.57642 10.0223L2.4006 6.42665L1.97282 6.68551ZM4.49196 10.3656L5.17422 9.95271L4.91536 9.52494L4.2331 9.9378L4.49196 10.3656ZM5.17562 9.95186C5.17602 9.95161 5.17646 9.95135 5.17693 9.95106L4.91819 9.52322C4.91681 9.52405 4.9154 9.52491 4.91397 9.52579L5.17562 9.95186ZM5.17699 9.95103L11.8537 5.91071L11.5949 5.48293L4.91813 9.52325L5.17699 9.95103ZM11.8538 5.91067C11.8542 5.91042 11.8547 5.91015 11.8552 5.90984L11.5991 5.48038C11.5977 5.48121 11.5963 5.48207 11.5948 5.48297L11.8538 5.91067ZM12.1697 21.5067C12.1688 21.5073 12.1677 21.5079 12.1666 21.5085L12.4198 21.9397C12.4226 21.938 12.4256 21.9363 12.4286 21.9345L12.1697 21.5067ZM18.8464 17.4664L12.1697 21.5067L12.4286 21.9345L19.1053 17.8942L18.8464 17.4664ZM18.8495 17.4645C18.8484 17.4652 18.8474 17.4658 18.8465 17.4664L19.1053 17.8942C19.1083 17.8924 19.1112 17.8906 19.1141 17.8888L18.8495 17.4645ZM19.1112 17.8905L19.7902 17.4796L19.5314 17.0519L18.8524 17.4627L19.1112 17.8905ZM19.4469 17.3952L21.6227 20.9908L22.0505 20.7319L19.8747 17.1363L19.4469 17.3952ZM21.7072 20.6475L13.6604 25.5168L13.9193 25.9446L21.966 21.0752L21.7072 20.6475ZM14.0037 25.6013L11.8279 22.0057L11.4001 22.2645L13.576 25.8602L14.0037 25.6013ZM11.7435 22.349L12.4226 21.938L12.1638 21.5102L11.4846 21.9212L11.7435 22.349Z" fill="white" mask="url(#path-1-outside-1_1568_4040)"/>
</svg>
