<svg width="16" height="17" viewBox="0 0 16 17" fill="none" xmlns="http://www.w3.org/2000/svg">
<path fill-rule="evenodd" clip-rule="evenodd" d="M3.33333 7.83333C3.33333 5.62733 5.12733 3.83333 7.33333 3.83333C9.53933 3.83333 11.3333 5.62733 11.3333 7.83333C11.3333 10.0393 9.53933 11.8333 7.33333 11.8333C5.12733 11.8333 3.33333 10.0393 3.33333 7.83333ZM13.8047 13.362L11.5413 11.098C12.2433 10.1953 12.6667 9.064 12.6667 7.83333C12.6667 4.89267 10.274 2.5 7.33333 2.5C4.39267 2.5 2 4.89267 2 7.83333C2 10.774 4.39267 13.1667 7.33333 13.1667C8.564 13.1667 9.69533 12.7433 10.598 12.0413L12.862 14.3047C12.992 14.4347 13.1627 14.5 13.3333 14.5C13.504 14.5 13.6747 14.4347 13.8047 14.3047C14.0653 14.044 14.0653 13.6227 13.8047 13.362Z" fill="#28293D"/>
</svg>
