<svg width="11" height="11" viewBox="0 0 11 11" fill="none" xmlns="http://www.w3.org/2000/svg">
<path fill-rule="evenodd" clip-rule="evenodd" d="M5.75242 7.18748C5.81867 7.18748 5.88492 7.20331 5.94533 7.23456L7.51575 8.0554L7.217 6.32331C7.19325 6.18748 7.23867 6.04915 7.33783 5.9529L8.60283 4.72956L6.85158 4.47456C6.71617 4.45498 6.59908 4.3704 6.53825 4.2479L5.75242 2.66706L4.96658 4.2479C4.90575 4.3704 4.78867 4.45498 4.65325 4.47456L2.902 4.72956L4.167 5.9529C4.26617 6.04915 4.31158 6.18748 4.28783 6.32331L3.98908 8.0554L5.5595 7.23456C5.61992 7.20331 5.68617 7.18748 5.75242 7.18748ZM8.06992 9.23123C8.00367 9.23123 7.93742 9.21581 7.877 9.18415L5.75242 8.07415L3.62783 9.18415C3.487 9.25748 3.317 9.24456 3.18992 9.15123C3.06158 9.0579 2.99783 8.89998 3.0245 8.74373L3.4295 6.39873L1.71283 4.73831C1.59825 4.6279 1.55742 4.46206 1.60617 4.31081C1.6545 4.15956 1.78533 4.04956 1.94242 4.02665L4.31783 3.68165L5.37908 1.54581C5.51992 1.26248 5.98492 1.26248 6.12575 1.54581L7.187 3.68165L9.56242 4.02665C9.7195 4.04956 9.85033 4.15956 9.89867 4.31081C9.94742 4.46206 9.90658 4.6279 9.792 4.73831L8.07533 6.39873L8.48033 8.74373C8.507 8.89998 8.44325 9.0579 8.31492 9.15123C8.24283 9.20456 8.15658 9.23123 8.06992 9.23123Z" fill="white"/>
</svg>
