<svg width="196" height="209" viewBox="0 0 196 209" fill="none" xmlns="http://www.w3.org/2000/svg">
<path d="M165.177 128.097H84.2738C82.4093 128.097 80.9028 129.604 80.9028 131.468V178.662C80.9028 180.527 82.4093 182.033 84.2738 182.033H165.177C167.042 182.033 168.548 180.527 168.548 178.662V131.468C168.548 129.604 167.042 128.097 165.177 128.097ZM161.807 161.807H87.6448V159.831L112.637 134.839H123.329L115.6 142.568L120.366 147.334L132.863 134.837H161.807L161.807 161.807ZM103.105 134.839L87.6452 150.299V134.839H103.105ZM87.6452 175.291V168.549H161.807V175.291H87.6452Z" fill="url(#paint0_linear_1333_1866)"/>
<path d="M40.4512 155.062H47.1931V168.549H40.4512V155.062Z" fill="url(#paint1_linear_1333_1866)"/>
<path d="M194.842 88.994L174.616 62.0261C173.983 61.1774 172.982 60.6778 171.92 60.6778H132.735C136.193 54.7182 138.21 47.8245 138.21 40.4518C138.21 18.1463 120.064 0 97.7582 0C75.4527 0 57.3064 18.1463 57.3064 40.4518C57.3064 47.8245 59.3185 54.7182 62.7812 60.6778H23.5969C22.539 60.6778 21.5367 61.1774 20.9001 62.0261L0.674197 88.994C0.236277 89.5779 0 90.2883 0 91.0166V104.501C0 112.638 5.80156 119.447 13.4839 121.015V188.774H10.113C8.2484 188.774 6.74197 190.281 6.74197 192.145V205.629C6.74197 207.494 8.2484 209 10.113 209H185.404C187.269 209 188.775 207.494 188.775 205.629V192.145C188.775 190.281 187.269 188.774 185.404 188.774H182.033V121.015C189.716 119.447 195.517 112.642 195.517 104.501V91.0166C195.517 90.2883 195.281 89.5779 194.843 88.994H194.842ZM97.7578 6.74197C116.345 6.74197 131.468 21.8648 131.468 40.4518C131.468 59.0389 116.345 74.1617 97.7578 74.1617C79.1708 74.1617 64.048 59.0389 64.048 40.4518C64.048 21.8648 79.1708 6.74197 97.7578 6.74197ZM25.2836 67.4197H67.6925C75.1025 75.6727 85.8176 80.9037 97.759 80.9037C109.699 80.9037 120.415 75.6727 127.825 67.4197H170.234L185.404 87.6456H10.1126L25.2836 67.4197ZM33.711 94.3876H53.9369V104.501C53.9369 110.076 49.3998 114.614 43.824 114.614C38.2482 114.614 33.711 110.076 33.711 104.501V94.3876ZM60.6789 94.3876H80.9048V104.501C80.9048 110.076 76.3677 114.614 70.7919 114.614C65.2161 114.614 60.6789 110.076 60.6789 104.501V94.3876ZM87.6468 94.3876H107.873V104.501C107.873 110.076 103.336 114.614 97.7598 114.614C92.184 114.614 87.6468 110.076 87.6468 104.501V94.3876ZM114.615 94.3876H134.841V104.501C134.841 110.076 130.303 114.614 124.728 114.614C119.152 114.614 114.615 110.076 114.615 104.501V94.3876ZM141.583 94.3876H161.808V104.501C161.808 110.076 157.271 114.614 151.696 114.614C146.12 114.614 141.583 110.076 141.583 104.501V94.3876ZM6.74313 104.501V94.3876H26.969V104.501C26.969 110.076 22.4319 114.614 16.8561 114.614C11.2803 114.614 6.74313 110.076 6.74313 104.501ZM182.034 202.259H13.4851V195.517H182.034V202.259ZM67.4209 188.775H33.711V134.839H67.4209V188.775ZM74.1629 188.775V131.468C74.1629 129.604 72.6564 128.097 70.7919 128.097H30.34C28.4755 128.097 26.969 129.604 26.969 131.468V188.775H20.2271V121.016C24.3597 120.174 27.9068 117.781 30.34 114.511C33.4146 118.64 38.2921 121.357 43.824 121.357C49.3559 121.357 54.2336 118.64 57.3079 114.511C60.3825 118.64 65.26 121.357 70.7919 121.357C76.3238 121.357 81.2015 118.64 84.2758 114.511C87.3503 118.64 92.2279 121.357 97.7598 121.357C103.292 121.357 108.169 118.64 111.244 114.511C114.318 118.64 119.196 121.357 124.728 121.357C130.26 121.357 135.137 118.64 138.212 114.511C141.286 118.64 146.164 121.357 151.696 121.357C157.227 121.357 162.105 118.64 165.179 114.511C167.613 117.781 171.16 120.174 175.292 121.016V188.775H74.1629ZM178.663 114.614C173.088 114.614 168.55 110.076 168.55 104.501V94.3876H188.776V104.501C188.776 110.076 184.239 114.614 178.663 114.614Z" fill="url(#paint2_linear_1333_1866)"/>
<path d="M105.486 152.681L112.226 145.94L116.994 150.708L110.253 157.448L105.486 152.681Z" fill="url(#paint3_linear_1333_1866)"/>
<path d="M81.4917 29.2614C81.298 29.0936 81.1924 28.8952 81.1924 28.6664V24.6085C81.1924 24.3492 81.298 24.1356 81.4917 23.9526C81.6853 23.7848 81.9318 23.6932 82.1783 23.6932H113.146C113.41 23.6932 113.639 23.7848 113.832 23.9526C114.026 24.1356 114.132 24.3492 114.132 24.5933V28.6664C114.132 28.8952 114.044 29.0936 113.85 29.2614C113.656 29.4444 113.428 29.5207 113.128 29.5207H82.1783C81.9318 29.536 81.7029 29.4444 81.4917 29.2614ZM94.2554 56.9647C94.0618 56.7969 93.9562 56.5834 93.9562 56.3698V38.567C93.9562 38.3077 94.0618 38.1094 94.2554 37.9416C94.4491 37.789 94.6956 37.6975 94.9421 37.6975H108.023C108.322 37.6975 108.568 37.789 108.762 37.9568C108.956 38.1399 109.061 38.3382 109.061 38.5518V43.052C109.061 43.3114 108.956 43.5249 108.762 43.6928C108.568 43.8758 108.304 43.9521 108.023 43.9521H102.442C102.178 43.9521 101.949 44.0284 101.755 44.1962C101.562 44.364 101.456 44.5623 101.456 44.8216V56.3545C101.456 56.5834 101.35 56.7817 101.157 56.9495C100.963 57.1173 100.699 57.2088 100.417 57.2088H94.9597C94.678 57.2241 94.4491 57.1326 94.2554 56.9647Z" fill="url(#paint4_linear_1333_1866)"/>
<defs>
<linearGradient id="paint0_linear_1333_1866" x1="91.69" y1="141.581" x2="157.975" y2="158.153" gradientUnits="userSpaceOnUse">
<stop stop-color="#E8A3FF"/>
<stop offset="0.197917" stop-color="#A8BFFF"/>
<stop offset="0.375" stop-color="#2EFCA8"/>
<stop offset="0.744792" stop-color="#A8BFFF"/>
<stop offset="0.932292" stop-color="#E8A3FF"/>
</linearGradient>
<linearGradient id="paint1_linear_1333_1866" x1="41.281" y1="158.433" x2="46.6666" y2="158.847" gradientUnits="userSpaceOnUse">
<stop stop-color="#E8A3FF"/>
<stop offset="0.197917" stop-color="#A8BFFF"/>
<stop offset="0.375" stop-color="#2EFCA8"/>
<stop offset="0.744792" stop-color="#A8BFFF"/>
<stop offset="0.932292" stop-color="#E8A3FF"/>
</linearGradient>
<linearGradient id="paint2_linear_1333_1866" x1="24.0637" y1="52.25" x2="177.983" y2="74.4023" gradientUnits="userSpaceOnUse">
<stop stop-color="#E8A3FF"/>
<stop offset="0.197917" stop-color="#A8BFFF"/>
<stop offset="0.375" stop-color="#2EFCA8"/>
<stop offset="0.744792" stop-color="#A8BFFF"/>
<stop offset="0.932292" stop-color="#E8A3FF"/>
</linearGradient>
<linearGradient id="paint3_linear_1333_1866" x1="106.902" y1="148.817" x2="115.936" y2="150.207" gradientUnits="userSpaceOnUse">
<stop stop-color="#E8A3FF"/>
<stop offset="0.197917" stop-color="#A8BFFF"/>
<stop offset="0.375" stop-color="#2EFCA8"/>
<stop offset="0.744792" stop-color="#A8BFFF"/>
<stop offset="0.932292" stop-color="#E8A3FF"/>
</linearGradient>
<linearGradient id="paint4_linear_1333_1866" x1="85.2465" y1="32.0725" x2="111.123" y2="35.985" gradientUnits="userSpaceOnUse">
<stop stop-color="#E8A3FF"/>
<stop offset="0.197917" stop-color="#A8BFFF"/>
<stop offset="0.375" stop-color="#2EFCA8"/>
<stop offset="0.744792" stop-color="#A8BFFF"/>
<stop offset="0.932292" stop-color="#E8A3FF"/>
</linearGradient>
</defs>
</svg>
