<svg width="20" height="21" viewBox="0 0 20 21" fill="none" xmlns="http://www.w3.org/2000/svg">
<rect y="0.5" width="20" height="20" rx="2.5" fill="#00CFDE"/>
<path d="M15.0911 7.98947C15.0989 8.09797 15.0989 8.20646 15.0989 8.31595C15.0989 11.6522 12.4573 15.5 7.62695 15.5V15.498C6.20004 15.5 4.80278 15.107 3.60156 14.3661C3.80905 14.3901 4.01757 14.4021 4.22661 14.4026C5.40911 14.4036 6.55781 14.0221 7.4881 13.3196C6.36437 13.2991 5.37895 12.5947 5.0347 11.5662C5.42835 11.6392 5.83396 11.6242 6.22032 11.5228C4.99518 11.2848 4.11377 10.2498 4.11377 9.04791C4.11377 9.03691 4.11377 9.02641 4.11377 9.01591C4.47882 9.2114 4.88754 9.31989 5.30563 9.33189C4.15173 8.59044 3.79605 7.11453 4.49286 5.9606C5.82616 7.538 7.79335 8.49694 9.9051 8.59844C9.69346 7.72149 9.98258 6.80255 10.6648 6.18609C11.7225 5.23015 13.386 5.27915 14.3803 6.29558C14.9684 6.18409 15.5321 5.9766 16.048 5.68262C15.8519 6.26708 15.4416 6.76355 14.8935 7.07903C15.4141 7.02004 15.9226 6.88604 16.4016 6.68156C16.049 7.18952 15.6049 7.632 15.0911 7.98947Z" fill="white"/>
</svg>
