<svg width="20" height="21" viewBox="0 0 20 21" fill="none" xmlns="http://www.w3.org/2000/svg">
<rect y="0.5" width="20" height="20" rx="2.5" fill="#00B7C4"/>
<path fill-rule="evenodd" clip-rule="evenodd" d="M9 11C7.0705 11 5.5 12.57 5.5 14.5C5.5 14.776 5.7235 15 6 15C6.2765 15 6.5 14.776 6.5 14.5C6.5 13.1215 7.6215 12 9 12C10.3785 12 11.5 13.1215 11.5 14.5C11.5 14.776 11.7235 15 12 15C12.2765 15 12.5 14.776 12.5 14.5C12.5 12.57 10.9295 11 9 11ZM8 8C8 8.5515 8.4485 9 9 9C9.5515 9 10 8.5515 10 8C10 7.4485 9.5515 7 9 7C8.4485 7 8 7.4485 8 8ZM7 8C7 6.897 7.897 6 9 6C10.103 6 11 6.897 11 8C11 9.103 10.103 10 9 10C7.897 10 7 9.103 7 8ZM15 8C15 8.275 14.775 8.5 14.5 8.5H14V9C14 9.275 13.775 9.5 13.5 9.5C13.225 9.5 13 9.275 13 9V8.5H12.5C12.225 8.5 12 8.275 12 8C12 7.725 12.225 7.5 12.5 7.5H13V7C13 6.725 13.225 6.5 13.5 6.5C13.775 6.5 14 6.725 14 7V7.5H14.5C14.775 7.5 15 7.725 15 8Z" fill="white"/>
</svg>
