<svg width="184" height="187" viewBox="0 0 184 187" fill="none" xmlns="http://www.w3.org/2000/svg">
<g clip-path="url(#clip0_2854_2702)">
<path d="M57.4258 161.428H77.0086C79.1704 161.428 80.2517 162.511 80.2517 164.675V171.582C80.2517 173.254 79.4986 174.132 77.9932 174.214C79.4986 174.351 80.2517 175.201 80.2517 176.762V183.752C80.2517 185.918 79.1704 187 77.0086 187H57.4258V161.427V161.428ZM73.8888 171.706V165.128C73.8888 164.58 73.813 164.23 73.6631 164.079C73.5123 163.929 73.1632 163.853 72.6159 163.853H64.0761V172.981H72.6159C73.1632 172.981 73.5123 172.906 73.6631 172.755C73.813 172.604 73.8888 172.255 73.8888 171.706ZM73.8888 183.506V176.681C73.8888 176.16 73.813 175.817 73.6631 175.653C73.5123 175.488 73.1632 175.406 72.6159 175.406H64.0761V184.574H72.4926C73.0124 184.574 73.3757 184.499 73.5806 184.348C73.7854 184.198 73.8888 183.917 73.8888 183.506Z" fill="white"/>
<path d="M93.0204 161.428V183.301C93.0204 183.85 93.103 184.198 93.2671 184.349C93.4312 184.5 93.7736 184.575 94.2934 184.575H101.355C101.875 184.575 102.218 184.5 102.382 184.349C102.546 184.199 102.628 183.85 102.628 183.301V161.428H109.238V183.753C109.238 185.919 108.156 187 105.995 187H89.6142C87.4515 187 86.3711 185.918 86.3711 183.753V161.428H93.0223H93.0204Z" fill="white"/>
<path d="M129.762 187H123.153V178.655L112.52 161.428H119.088L126.396 174.748L133.335 161.428H139.862L129.763 178.531V187H129.762Z" fill="white"/>
<path d="M126.665 45.0654H129.184V55.5924H126.767L122.018 47.7224V55.5924H119.5V45.0654H121.967L126.665 52.9184V45.0654Z" fill="white"/>
<path d="M140.016 46.0647H134.777V50.1095H139.357V51.1079H134.777V55.5924H131.955V45.0654H140.016V46.0638V46.0647Z" fill="white"/>
<path d="M150.206 45.0654V46.0638H146.759V55.5924H144.039V46.0638H140.625V45.0654H150.207H150.206Z" fill="white"/>
<path d="M100.017 116.338C98.2548 114.574 95.9128 113.603 93.4219 113.603H72.7634L73.6892 111.858C73.729 111.782 73.7698 111.68 73.8134 111.572C73.8495 111.483 73.8893 111.383 73.9358 111.281L73.9965 111.145C74.0638 110.998 74.1227 110.87 74.1691 110.745L74.1824 110.709C74.3181 110.334 74.4309 109.945 74.5191 109.554L74.521 109.544C74.5429 109.449 74.5685 109.362 74.5903 109.285C74.6064 109.227 74.6216 109.172 74.6311 109.132C74.7259 108.599 74.7772 108.056 74.7838 107.514C74.7838 107.482 74.779 107.429 74.7743 107.372C74.7677 107.294 74.7591 107.197 74.7563 107.091C74.7421 106.678 74.7032 106.259 74.6387 105.848C74.6178 105.731 74.5874 105.604 74.5552 105.47C74.54 105.406 74.5239 105.342 74.5097 105.277C74.4262 104.921 74.3209 104.565 74.1995 104.221C74.1407 104.062 74.0638 103.857 73.9775 103.658L73.9709 103.642C73.8172 103.303 73.6408 102.966 73.4435 102.641C73.398 102.565 73.3581 102.496 73.3192 102.428C73.2595 102.324 73.2082 102.234 73.1551 102.153C72.8383 101.679 72.4684 101.226 72.0614 100.814L53.1673 81.8904C50.4677 79.9004 47.2701 78.8108 43.916 78.7395H21.4392L21.1119 78.0832C20.3417 76.5414 19.1607 75.2448 17.6971 74.3357C16.2335 73.4257 14.5489 72.9422 12.8263 72.9355H9.32616C6.83526 72.9355 4.49329 73.9073 2.73088 75.6713C0.970368 77.4353 0 79.7807 0 82.2751V112.644C0 115.139 0.970368 117.484 2.73183 119.249C4.49329 121.012 6.83526 121.984 9.32616 121.984H12.8301C15.875 121.977 18.731 120.477 20.4697 117.97L21.2191 116.889L42.8299 135.474C43.2492 135.835 43.7851 136.034 44.3381 136.034H93.4219C95.9099 136.029 98.25 135.055 100.011 133.292C101.771 131.529 102.743 129.185 102.748 126.691V122.943C102.748 120.449 101.779 118.103 100.017 116.338ZM17.5207 112.643C17.5207 113.897 17.0331 115.077 16.1472 115.964C15.2612 116.85 14.0841 117.339 12.8311 117.339H9.32711C8.07407 117.339 6.89692 116.85 6.01097 115.964C5.12502 115.077 4.63747 113.897 4.63747 112.643V82.2742C4.63747 81.0374 5.1383 79.8272 6.01097 78.9533C6.89597 78.0661 8.07407 77.5778 9.32711 77.5778H12.8311C14.0841 77.5778 15.2612 78.0661 16.1472 78.9533C17.0199 79.8272 17.5207 81.0374 17.5207 82.2742V112.643ZM98.1125 126.697C98.0944 127.939 97.6002 129.106 96.7228 129.984C95.8473 130.862 94.6815 131.356 93.4418 131.375H45.1975L22.1572 111.571V83.3837H43.7111C45.7268 83.4606 47.7396 83.9916 49.5305 84.9207L49.6937 85.0052L68.7766 104.119C69.6521 104.991 70.1549 106.205 70.1549 107.445C70.1549 108.686 69.6654 109.885 68.7757 110.772L68.3403 111.207H68.4712L66.2867 113.261C65.3922 114.101 64.2236 114.564 62.998 114.564C61.7725 114.564 60.6039 114.101 59.7094 113.261L59.6819 113.234L47.7197 101.255L47.7064 101.24C47.2805 100.784 46.6773 100.517 46.0531 100.507C45.428 100.498 44.8181 100.744 44.377 101.186C43.936 101.628 43.6884 102.24 43.6979 102.865C43.7073 103.49 43.9739 104.093 44.4282 104.52L44.4558 104.547L56.4796 116.591C58.0371 118.118 60.085 119.05 62.2601 119.218C64.4702 119.39 66.6727 118.762 68.4607 117.451L68.9578 117.087L69.5411 117.283C71.3055 117.881 73.1428 118.203 75.001 118.242H93.4228C94.6578 118.242 95.8663 118.743 96.739 119.617C97.6249 120.506 98.1125 121.684 98.1125 122.938V126.697Z" fill="white"/>
<path d="M149.175 107.669H145.381V135.027H149.175V107.669Z" fill="white"/>
<path d="M154.982 115.26L147.177 108.499L139.629 115.038L137.146 112.164L147.177 103.475L157.464 112.387L154.982 115.26Z" fill="white"/>
<path d="M123.031 107.669H119.236V135.027H123.031V107.669Z" fill="white"/>
<path d="M128.838 115.26L121.033 108.499L113.484 115.038L111.002 112.164L121.033 103.475L131.32 112.387L128.838 115.26Z" fill="white"/>
<path d="M174.229 52.0565C174.761 53.5621 175.974 54.7258 177.499 55.1931C179.023 55.6595 180.68 55.3755 181.961 54.4265C183.243 53.4766 183.999 51.9748 183.999 50.378C183.999 48.7812 183.243 47.2793 181.961 46.3294C180.68 45.3795 179.023 45.0955 177.499 45.5628C175.974 46.0302 174.761 47.1938 174.229 48.6995H163.864V34.2864L167.909 30.235H170.876C171.407 31.7406 172.621 32.9042 174.146 33.3716C175.67 33.838 177.326 33.554 178.608 32.605C179.889 31.6551 180.646 30.1533 180.646 28.5564C180.646 26.9596 179.889 25.4578 178.608 24.5079C177.326 23.558 175.67 23.274 174.146 23.7413C172.621 24.2087 171.407 25.3723 170.876 26.8779H167.216C166.771 26.8779 166.345 27.0546 166.03 27.37L161.876 31.5297L152.13 26.3612V16.8069H157.467C157.998 18.3125 159.211 19.4762 160.736 19.9435C162.261 20.4099 163.917 20.1259 165.198 19.177C166.48 18.227 167.237 16.7252 167.237 15.1284C167.237 13.5316 166.48 12.0298 165.198 11.0798C163.917 10.1299 162.261 9.8459 160.736 10.3133C159.211 10.7806 157.998 11.9443 157.467 13.4499H150.454C149.528 13.4499 148.778 14.2013 148.778 15.1284V24.5839L135.368 17.4785V9.78416C136.872 9.2522 138.034 8.03726 138.5 6.50979C138.966 4.98327 138.682 3.32471 137.735 2.04137C136.786 0.758035 135.287 0 133.692 0C132.098 0 130.598 0.758035 129.649 2.04137C128.701 3.32471 128.417 4.98327 128.884 6.50979C129.351 8.03726 130.513 9.2522 132.016 9.78416V17.4785L118.606 24.5867V15.1284C118.606 14.6829 118.43 14.2564 118.115 13.941C117.801 13.6266 117.374 13.4489 116.929 13.4489H109.917C109.385 11.9433 108.172 10.7797 106.647 10.3123C105.123 9.8459 103.466 10.1299 102.185 11.0789C100.904 12.0288 100.147 13.5306 100.147 15.1275C100.147 16.7243 100.904 18.2261 102.185 19.176C103.466 20.1259 105.123 20.4099 106.647 19.9426C108.172 19.4752 109.385 18.3116 109.917 16.806H115.253V26.3602L105.506 31.5287L101.352 27.369C101.038 27.0546 100.611 26.877 100.166 26.877H96.506C95.9748 25.3714 94.7616 24.2077 93.2364 23.7404C91.712 23.274 90.0559 23.558 88.7744 24.5069C87.4929 25.4569 86.7359 26.9587 86.7359 28.5555C86.7359 30.1523 87.4929 31.6541 88.7744 32.604C90.0559 33.554 91.712 33.838 93.2364 33.3706C94.7616 32.9033 95.9748 31.7396 96.506 30.234H99.4731L103.519 34.2854V48.6985H93.1529C92.6217 47.1929 91.4085 46.0292 89.8832 45.5619C88.3589 45.0955 86.7027 45.3795 85.4212 46.3285C84.1398 47.2784 83.3828 48.7802 83.3828 50.377C83.3828 51.9738 84.1398 53.4757 85.4212 54.4256C86.7027 55.3755 88.3589 55.6595 89.8832 55.1922C91.4085 54.7248 92.6217 53.5611 93.1529 52.0555H103.519V66.4686L99.4731 70.52H96.506C95.9748 69.0144 94.7616 67.8508 93.2364 67.3834C91.712 66.917 90.0559 67.201 88.7744 68.15C87.4929 69.0999 86.7359 70.6017 86.7359 72.1985C86.7359 73.7954 87.4929 75.2972 88.7744 76.2471C90.0559 77.197 91.712 77.481 93.2364 77.0137C94.7616 76.5463 95.9748 75.3827 96.506 73.8771H100.166C100.611 73.8771 101.037 73.7004 101.352 73.385L105.506 69.2253L115.252 74.3938V83.9481H109.916C109.385 82.4425 108.171 81.2788 106.646 80.8115C105.122 80.345 103.466 80.6291 102.184 81.578C100.903 82.528 100.146 84.0298 100.146 85.6266C100.146 87.2234 100.903 88.7252 102.184 89.6751C103.466 90.6251 105.122 90.9091 106.646 90.4417C108.171 89.9744 109.385 88.8107 109.916 87.3051H116.928C117.373 87.3051 117.799 87.1284 118.114 86.813C118.428 86.4986 118.605 86.0712 118.605 85.6256V76.1702L132.015 83.2755V90.967C130.512 91.499 129.35 92.7139 128.883 94.2405C128.417 95.7679 128.701 97.4255 129.648 98.7098C130.597 99.9932 132.097 100.75 133.691 100.75C135.286 100.75 136.785 99.9932 137.734 98.7098C138.682 97.4265 138.966 95.7679 138.499 94.2405C138.033 92.7139 136.871 91.499 135.367 90.967V83.2755L148.777 76.1673V85.6256C148.777 86.0712 148.953 86.4977 149.268 86.813C149.582 87.1275 150.009 87.3051 150.454 87.3051H157.467C157.998 88.8107 159.211 89.9744 160.736 90.4417C162.261 90.9081 163.917 90.6241 165.198 89.6751C166.48 88.7252 167.237 87.2234 167.237 85.6266C167.237 84.0298 166.48 82.528 165.198 81.578C163.917 80.6281 162.261 80.3441 160.736 80.8115C159.211 81.2788 157.998 82.4425 157.467 83.9481H152.13V74.3938L161.877 69.2253L166.031 73.385C166.345 73.6994 166.772 73.8771 167.217 73.8771H170.877C171.408 75.3827 172.622 76.5463 174.147 77.0137C175.671 77.4801 177.327 77.1961 178.609 76.2471C179.89 75.2972 180.647 73.7954 180.647 72.1985C180.647 70.6017 179.89 69.0999 178.609 68.15C177.327 67.2001 175.671 66.9161 174.147 67.3834C172.622 67.8508 171.408 69.0144 170.877 70.52H167.91L163.865 66.4686V52.0555H174.23L174.229 52.0565ZM178.949 48.6995C179.628 48.6995 180.238 49.1089 180.497 49.7358C180.757 50.3628 180.614 51.0847 180.134 51.5654C179.654 52.046 178.934 52.1885 178.307 51.9292C177.681 51.6699 177.272 51.0581 177.272 50.3789C177.272 49.4518 178.023 48.7004 178.948 48.7004L178.949 48.6995ZM175.597 26.8779C176.275 26.8779 176.886 27.2874 177.145 27.9143C177.405 28.5412 177.262 29.2632 176.782 29.7438C176.302 30.2245 175.582 30.367 174.955 30.1077C174.329 29.8483 173.92 29.2366 173.92 28.5574C173.92 27.6303 174.67 26.8789 175.596 26.8789L175.597 26.8779ZM162.188 13.4489C162.866 13.4489 163.477 13.8584 163.736 14.4853C163.995 15.1123 163.852 15.8342 163.372 16.3148C162.892 16.7955 162.172 16.938 161.545 16.6787C160.919 16.4193 160.51 15.8076 160.51 15.1284C160.51 14.2013 161.261 13.4499 162.187 13.4499L162.188 13.4489ZM105.197 16.806C104.518 16.806 103.908 16.3965 103.649 15.7696C103.389 15.1426 103.532 14.4207 104.012 13.9401C104.492 13.4594 105.212 13.3169 105.839 13.5762C106.465 13.8356 106.874 14.4473 106.874 15.1265C106.874 15.572 106.697 15.9985 106.382 16.3139C106.068 16.6283 105.642 16.806 105.197 16.806ZM91.787 30.235C91.1088 30.235 90.4979 29.8255 90.2389 29.1986C89.979 28.5716 90.1223 27.8497 90.6022 27.369C91.0822 26.8884 91.8022 26.7459 92.4291 27.0052C93.0552 27.2646 93.464 27.8763 93.464 28.5555C93.464 29.001 93.2876 29.4275 92.9727 29.7429C92.6587 30.0573 92.2318 30.235 91.787 30.235ZM88.4348 52.0565C87.7566 52.0565 87.1457 51.6471 86.8868 51.0201C86.6269 50.3932 86.7701 49.6712 87.2501 49.1906C87.73 48.7099 88.45 48.5674 89.077 48.8268C89.703 49.0861 90.1118 49.6978 90.1118 50.377C90.1118 50.8225 89.9354 51.2491 89.6205 51.5644C89.3065 51.8788 88.8797 52.0565 88.4348 52.0565ZM91.787 73.878C91.1088 73.878 90.4979 73.4686 90.2389 72.8416C89.979 72.2147 90.1223 71.4928 90.6022 71.0121C91.0822 70.5314 91.8022 70.389 92.4291 70.6483C93.0552 70.9076 93.464 71.5194 93.464 72.1985C93.464 72.6441 93.2876 73.0706 92.9727 73.3859C92.6587 73.7004 92.2318 73.878 91.787 73.878ZM105.197 87.307C104.518 87.307 103.908 86.8976 103.649 86.2706C103.389 85.6437 103.532 84.9218 104.012 84.4411C104.492 83.9604 105.212 83.8179 105.839 84.0773C106.465 84.3366 106.874 84.9483 106.874 85.6275C106.874 86.0731 106.697 86.4996 106.382 86.8149C106.068 87.1294 105.642 87.307 105.197 87.307ZM162.188 83.95C162.866 83.95 163.477 84.3594 163.736 84.9864C163.995 85.6133 163.852 86.3352 163.372 86.8159C162.892 87.2965 162.172 87.439 161.545 87.1797C160.919 86.9204 160.51 86.3086 160.51 85.6294C160.51 84.7023 161.261 83.9509 162.187 83.9509L162.188 83.95ZM175.597 70.521C176.275 70.521 176.886 70.9304 177.145 71.5574C177.405 72.1843 177.262 72.9062 176.782 73.3869C176.302 73.8676 175.582 74.01 174.955 73.7507C174.329 73.4914 173.92 72.8796 173.92 72.2004C173.92 71.2733 174.67 70.5219 175.596 70.5219L175.597 70.521ZM133.693 3.37696C134.371 3.37696 134.982 3.78637 135.241 4.41332C135.501 5.04027 135.358 5.76221 134.878 6.24286C134.398 6.72352 133.678 6.86601 133.051 6.60668C132.425 6.34735 132.016 5.73561 132.016 5.05642C132.016 4.1293 132.766 3.37791 133.692 3.37791L133.693 3.37696ZM133.693 97.379C133.015 97.379 132.404 96.9696 132.145 96.3426C131.885 95.7157 132.028 94.9937 132.508 94.5131C132.988 94.0324 133.708 93.8899 134.335 94.1493C134.961 94.4086 135.37 95.0203 135.37 95.6995C135.37 96.145 135.194 96.5716 134.879 96.8869C134.565 97.2014 134.138 97.379 133.693 97.379ZM160.512 66.1571L133.693 80.3735L106.874 66.1571V34.5989L133.693 20.3795L160.512 34.5989V66.1571Z" fill="white"/>
<path d="M132.944 23.6969L109.478 35.4474C108.908 35.7324 108.551 36.3137 108.551 36.9502V63.8082C108.547 64.4475 108.907 65.0336 109.478 65.3186L132.944 77.069C133.415 77.3056 133.97 77.3056 134.442 77.069L157.908 65.3186C158.479 65.0326 158.838 64.4475 158.834 63.8082V36.9502C158.834 36.3137 158.476 35.7324 157.908 35.4474L134.442 23.6969C133.97 23.4604 133.415 23.4604 132.944 23.6969ZM155.483 37.9866V62.7709L133.693 73.6816L111.903 62.7709V37.9866L133.693 27.0758L155.483 37.9866Z" fill="white"/>
</g>
<defs>
<clipPath id="clip0_2854_2702">
<rect width="184" height="187" fill="white"/>
</clipPath>
</defs>
</svg>
