<svg width="501" height="485" viewBox="0 0 501 485" fill="none" xmlns="http://www.w3.org/2000/svg">
<path d="M257.256 66.279C257.421 68.5573 257.421 70.8357 257.421 73.135C257.421 143.197 201.493 224 99.2249 224V223.958C69.0147 224 39.4321 215.748 14 200.188C18.3928 200.691 22.8076 200.943 27.2335 200.954C52.2692 200.975 76.5893 192.964 96.2854 178.212C72.4937 177.782 51.6306 162.988 44.3423 141.391C52.6765 142.924 61.264 142.609 69.4441 140.478C43.5056 135.48 24.8444 113.746 24.8444 88.5061C24.8444 88.2751 24.8444 88.0546 24.8444 87.8341C32.5731 91.9393 41.2266 94.2177 50.0783 94.4697C25.6481 78.8992 18.1176 47.9051 32.8704 23.6726C61.0988 56.7981 102.748 76.9358 147.458 79.0672C142.977 60.6513 149.098 41.3535 163.543 28.4078C185.936 8.33311 221.156 9.36205 242.206 30.7072C254.658 28.3658 266.592 24.0086 277.514 17.835C273.363 30.1087 264.676 40.5346 253.072 47.1597C264.093 45.9207 274.86 43.1069 285 38.8127C277.536 49.48 268.133 58.7719 257.256 66.279Z" fill="white"/>
<path d="M433.651 241.739C415.231 233.529 395.478 227.479 374.826 224.015C374.45 223.948 374.074 224.115 373.88 224.449C371.34 228.838 368.526 234.565 366.555 239.066C344.342 235.835 322.243 235.835 300.486 239.066C298.515 234.465 295.599 228.838 293.047 224.449C292.853 224.126 292.477 223.959 292.101 224.015C271.46 227.468 251.708 233.518 233.276 241.739C233.117 241.806 232.98 241.918 232.889 242.062C195.423 296.44 185.159 349.482 190.194 401.865C190.217 402.122 190.365 402.367 190.57 402.522C215.289 420.158 239.234 430.865 262.734 437.961C263.111 438.072 263.509 437.939 263.748 437.638C269.307 430.263 274.263 422.487 278.511 414.309C278.762 413.83 278.523 413.262 278.01 413.073C270.15 410.176 262.666 406.645 255.467 402.634C254.897 402.311 254.852 401.52 255.376 401.141C256.891 400.038 258.406 398.89 259.853 397.732C260.114 397.52 260.479 397.476 260.787 397.609C308.083 418.587 359.288 418.587 406.026 397.609C406.334 397.464 406.699 397.509 406.972 397.721C408.419 398.879 409.934 400.038 411.46 401.141C411.984 401.52 411.95 402.311 411.381 402.634C404.181 406.722 396.697 410.176 388.826 413.062C388.313 413.251 388.085 413.83 388.336 414.309C392.676 422.475 397.631 430.252 403.088 437.627C403.315 437.939 403.725 438.072 404.101 437.961C427.716 430.865 451.66 420.158 476.38 402.522C476.596 402.367 476.733 402.133 476.756 401.876C482.782 341.315 466.663 288.709 434.026 242.074C433.947 241.918 433.81 241.806 433.651 241.739ZM285.574 369.969C271.335 369.969 259.602 357.269 259.602 341.672C259.602 326.075 271.107 313.374 285.574 313.374C300.155 313.374 311.775 326.186 311.547 341.672C311.547 357.269 300.041 369.969 285.574 369.969ZM381.603 369.969C367.364 369.969 355.631 357.269 355.631 341.672C355.631 326.075 367.136 313.374 381.603 313.374C396.185 313.374 407.804 326.186 407.576 341.672C407.576 357.269 396.185 369.969 381.603 369.969Z" fill="white"/>
</svg>
