<svg width="120" height="110" viewBox="0 0 120 110" fill="none" xmlns="http://www.w3.org/2000/svg">
<path d="M79.9177 15.1785L82.3959 10.778C82.7243 10.2498 82.7573 9.58973 82.4821 9.03219C82.207 8.47464 81.6634 8.09786 81.0441 8.03565H74.5935V3.5714C74.5928 3.09798 74.4042 2.64412 74.0687 2.30959C73.7332 1.97468 73.279 1.78609 72.8047 1.7857H56.7054V0.89285C56.7054 0.399866 56.3049 0 55.811 0C55.3172 0 54.9166 0.399866 54.9166 0.89285V22.2551C54.391 22.4355 53.9352 22.7747 53.6122 23.2258L37.8155 45.7869C37.4393 46.3249 37.2739 46.9818 37.3507 47.6337C37.4275 48.2855 37.7407 48.8861 38.2318 49.3219C38.7225 49.7586 39.357 49.9996 40.0143 50H78.0924C78.7497 49.9992 79.3838 49.7582 79.8745 49.3219C80.3657 48.8861 80.6792 48.2847 80.756 47.6337C80.8328 46.9818 80.6678 46.3249 80.2916 45.7869L69.1844 29.9238C68.6811 29.2078 67.8608 28.7817 66.9852 28.7817C66.1096 28.7817 65.2885 29.2078 64.7857 29.9238L63.7427 31.4133L58.0098 23.2258H58.0102C57.6868 22.7743 57.2306 22.4351 56.7054 22.2547V16.0713H67.4383V20.5356C67.4152 20.9835 67.57 21.4225 67.869 21.7571C68.1685 22.0916 68.5883 22.2943 69.0366 22.3216H81.0437C81.6634 22.2594 82.2074 21.8827 82.4821 21.3251C82.7573 20.7676 82.7243 20.1075 82.3959 19.5793L79.9173 15.1788L79.9177 15.1785ZM40.0139 48.2139C39.6804 48.2143 39.3743 48.0292 39.2202 47.7342C39.0662 47.4388 39.0897 47.0824 39.281 46.8101L49.0673 32.8336C50.0723 33.5171 51.1614 34.2374 51.9743 34.7687C52.2918 34.9757 52.6673 35.0763 53.0455 35.0563C53.4241 35.0363 53.7863 34.8959 54.0798 34.6564C54.975 33.9275 55.6374 33.3684 56.047 32.9979L58.5848 34.8708C59.0841 35.2394 59.7684 35.2316 60.2591 34.8517L62.6617 32.9854L72.3411 46.8097C72.5327 47.0824 72.5559 47.4388 72.4018 47.7338C72.2478 48.0288 71.9413 48.2139 71.6081 48.2135H40.0139V48.2139ZM66.2523 30.9481C66.4263 30.7188 66.6975 30.5846 66.9852 30.5846C67.2729 30.5846 67.5441 30.7188 67.7178 30.9481L78.8249 46.8112C79.0162 47.084 79.0393 47.4404 78.8853 47.735C78.7316 48.03 78.4255 48.2155 78.0924 48.2151H74.1115C74.4125 47.4048 74.2992 46.499 73.8077 45.7877L64.835 32.9736L66.2523 30.9481ZM61.6349 31.5209L59.4024 33.2553L57.1091 31.5628H57.1095C56.7768 31.319 56.3707 31.1969 55.9588 31.2173C55.5469 31.2376 55.1545 31.3992 54.848 31.6747C54.4647 32.0205 53.8078 32.5734 52.9534 33.2753C52.1527 32.7518 51.0803 32.0436 50.0918 31.371L55.0777 24.2498C55.2517 24.0209 55.5229 23.8863 55.8106 23.8863C56.0983 23.8863 56.3699 24.0209 56.5436 24.2502L61.6345 31.5209H61.6349ZM56.705 3.57218H72.8043C72.8043 4.75574 72.804 1.26063 72.8055 14.2864H56.705V3.57179V3.57218ZM71.4365 16.0721L69.2259 19.0007V16.0721H71.4365ZM70.3065 20.5363L74.1103 15.4977C74.4187 15.1698 74.5916 14.7363 74.5928 14.2864V9.82213H80.854C80.8548 9.84991 80.8489 9.87809 80.836 9.90313L78.1802 14.619H78.1806C77.9846 14.9668 77.9846 15.3917 78.1806 15.7399L80.8364 20.4557H80.836C80.8489 20.4808 80.8548 20.5086 80.854 20.5367H70.3069L70.3065 20.5363Z" fill="white"/>
<path d="M31.9764 86V72.896H40.2132V75.1424H34.4474V78.3061H39.7639V80.5525H34.4474V86H31.9764ZM47.0306 86.2621C45.9573 86.2621 45.0338 86.0686 44.2601 85.6818C43.4988 85.2824 42.9122 84.7208 42.5004 83.997C42.101 83.2606 41.9013 82.3933 41.9013 81.3949V72.896H44.3724V81.4698C44.3724 82.2685 44.597 82.8987 45.0463 83.3605C45.5081 83.8222 46.1695 84.0531 47.0306 84.0531C47.8917 84.0531 48.5469 83.8222 48.9962 83.3605C49.458 82.8987 49.6889 82.2685 49.6889 81.4698V72.896H52.1599V81.3949C52.1599 82.3933 51.954 83.2606 51.5421 83.997C51.1428 84.7208 50.5562 85.2824 49.7825 85.6818C49.0212 86.0686 48.1039 86.2621 47.0306 86.2621ZM54.5537 86V72.896H59.2524L61.8545 84.3152H62.1915V72.896H64.6251V86H59.9264L57.3243 74.5808H56.9873V86H54.5537ZM67.0947 86V72.896H69.5657V78.1002H69.9027L74.1521 72.896H77.3158L71.8495 79.3544L77.503 86H74.2457L69.9027 80.6835H69.5657V86H67.0947ZM82.1825 86V81.4885L77.7272 72.896H80.479L83.2496 78.512H83.5865L86.3571 72.896H89.1089L84.6536 81.4885V86H82.1825ZM32.0043 106.262C30.357 106.262 29.0466 105.813 28.0731 104.914C27.0997 104.003 26.613 102.705 26.613 101.02V97.8755C26.613 96.1907 27.0997 94.899 28.0731 94.0005C29.0466 93.0894 30.357 92.6339 32.0043 92.6339C33.6517 92.6339 34.9621 93.0894 35.9355 94.0005C36.909 94.899 37.3957 96.1907 37.3957 97.8755V101.02C37.3957 102.705 36.909 104.003 35.9355 104.914C34.9621 105.813 33.6517 106.262 32.0043 106.262ZM32.0043 104.053C32.9278 104.053 33.6454 103.785 34.1571 103.248C34.6688 102.712 34.9246 101.994 34.9246 101.095V97.8006C34.9246 96.9021 34.6688 96.1845 34.1571 95.6478C33.6454 95.1112 32.9278 94.8429 32.0043 94.8429C31.0933 94.8429 30.3757 95.1112 29.8515 95.6478C29.3398 96.1845 29.084 96.9021 29.084 97.8006V101.095C29.084 101.994 29.3398 102.712 29.8515 103.248C30.3757 103.785 31.0933 104.053 32.0043 104.053ZM32.8654 109.37C32.2539 109.37 31.7547 109.176 31.3678 108.789C30.9934 108.415 30.8062 107.909 30.8062 107.273V106H33.2024V106.899C33.2024 107.273 33.3771 107.46 33.7266 107.46H34.831V109.37H32.8654ZM44.6175 106.262C43.5442 106.262 42.6207 106.069 41.8469 105.682C41.0857 105.282 40.4991 104.721 40.0873 103.997C39.6879 103.261 39.4882 102.393 39.4882 101.395V92.896H41.9593V101.47C41.9593 102.268 42.1839 102.899 42.6332 103.36C43.0949 103.822 43.7564 104.053 44.6175 104.053C45.4786 104.053 46.1338 103.822 46.5831 103.36C47.0449 102.899 47.2757 102.268 47.2757 101.47V92.896H49.7468V101.395C49.7468 102.393 49.5409 103.261 49.129 103.997C48.7297 104.721 48.1431 105.282 47.3693 105.682C46.6081 106.069 45.6908 106.262 44.6175 106.262ZM52.1406 106V92.896H60.5646V95.1424H54.6116V98.2686H60.0404V100.515H54.6116V103.754H60.6769V106H52.1406ZM67.055 106.262C66.0441 106.262 65.1518 106.081 64.3781 105.719C63.6043 105.357 62.999 104.839 62.5622 104.165C62.1254 103.492 61.907 102.68 61.907 101.732V101.208H64.3406V101.732C64.3406 102.518 64.584 103.111 65.0707 103.51C65.5574 103.897 66.2189 104.091 67.055 104.091C67.9037 104.091 68.5339 103.922 68.9457 103.585C69.3701 103.248 69.5822 102.818 69.5822 102.293C69.5822 101.932 69.4761 101.638 69.264 101.414C69.0643 101.189 68.7648 101.008 68.3654 100.871C67.9785 100.721 67.5043 100.584 66.9427 100.459L66.5121 100.365C65.6136 100.166 64.8398 99.916 64.1909 99.6165C63.5544 99.3045 63.0614 98.8989 62.712 98.3997C62.375 97.9005 62.2065 97.2515 62.2065 96.4528C62.2065 95.6541 62.3937 94.9739 62.7681 94.4123C63.155 93.8382 63.6917 93.4014 64.3781 93.1019C65.0769 92.7899 65.8944 92.6339 66.8304 92.6339C67.7664 92.6339 68.5963 92.7962 69.3201 93.1206C70.0565 93.4326 70.6305 93.9069 71.0424 94.5434C71.4667 95.1674 71.6789 95.9536 71.6789 96.9021V97.4637H69.2453V96.9021C69.2453 96.4029 69.1454 96.0035 68.9457 95.704C68.7585 95.392 68.484 95.1674 68.1221 95.0301C67.7601 94.8803 67.3296 94.8054 66.8304 94.8054C66.0816 94.8054 65.5262 94.949 65.1643 95.236C64.8149 95.5106 64.6401 95.8912 64.6401 96.3779C64.6401 96.7024 64.7213 96.977 64.8835 97.2016C65.0582 97.4262 65.3141 97.6134 65.651 97.7632C65.988 97.913 66.4185 98.044 66.9427 98.1563L67.3733 98.2499C68.3093 98.4496 69.1205 98.7054 69.8069 99.0174C70.5057 99.3294 71.0486 99.7413 71.4355 100.253C71.8224 100.765 72.0158 101.42 72.0158 102.219C72.0158 103.017 71.8099 103.722 71.3981 104.334C70.9987 104.933 70.4246 105.407 69.6758 105.757C68.9395 106.094 68.0659 106.262 67.055 106.262ZM76.4709 106V95.1424H72.652V92.896H82.7608V95.1424H78.9419V106H76.4709ZM88.7549 106.262C87.744 106.262 86.8517 106.081 86.0779 105.719C85.3042 105.357 84.6989 104.839 84.2621 104.165C83.8253 103.492 83.6069 102.68 83.6069 101.732V101.208H86.0405V101.732C86.0405 102.518 86.2838 103.111 86.7706 103.51C87.2573 103.897 87.9187 104.091 88.7549 104.091C89.6035 104.091 90.2338 103.922 90.6456 103.585C91.0699 103.248 91.2821 102.818 91.2821 102.293C91.2821 101.932 91.176 101.638 90.9638 101.414C90.7642 101.189 90.4646 101.008 90.0653 100.871C89.6784 100.721 89.2042 100.584 88.6426 100.459L88.212 100.365C87.3134 100.166 86.5397 99.916 85.8907 99.6165C85.2542 99.3045 84.7613 98.8989 84.4118 98.3997C84.0749 97.9005 83.9064 97.2515 83.9064 96.4528C83.9064 95.6541 84.0936 94.9739 84.468 94.4123C84.8549 93.8382 85.3915 93.4014 86.0779 93.1019C86.7768 92.7899 87.5942 92.6339 88.5302 92.6339C89.4662 92.6339 90.2962 92.7962 91.02 93.1206C91.7563 93.4326 92.3304 93.9069 92.7422 94.5434C93.1666 95.1674 93.3787 95.9536 93.3787 96.9021V97.4637H90.9451V96.9021C90.9451 96.4029 90.8453 96.0035 90.6456 95.704C90.4584 95.392 90.1838 95.1674 89.8219 95.0301C89.46 94.8803 89.0294 94.8054 88.5302 94.8054C87.7814 94.8054 87.2261 94.949 86.8642 95.236C86.5147 95.5106 86.34 95.8912 86.34 96.3779C86.34 96.7024 86.4211 96.977 86.5834 97.2016C86.7581 97.4262 87.0139 97.6134 87.3509 97.7632C87.6878 97.913 88.1184 98.044 88.6426 98.1563L89.0731 98.2499C90.0091 98.4496 90.8203 98.7054 91.5067 99.0174C92.2056 99.3294 92.7485 99.7413 93.1354 100.253C93.5222 100.765 93.7157 101.42 93.7157 102.219C93.7157 103.017 93.5097 103.722 93.0979 104.334C92.6986 104.933 92.1245 105.407 91.3757 105.757C90.6394 106.094 89.7658 106.262 88.7549 106.262Z" fill="white"/>
</svg>
