<svg width="193" height="187" viewBox="0 0 193 187" fill="none" xmlns="http://www.w3.org/2000/svg">
<g clip-path="url(#clip0_2854_2694)">
<path d="M84.0235 69.1914H87.4513V82.891H84.1614L77.6993 72.6489V82.891H74.2715V69.1914H77.6295L84.0235 79.4111V69.1914Z" fill="white"/>
<path d="M102.193 70.492H95.0628V75.7555H101.296V77.0546H95.0628V82.891H91.2227V69.1914H102.193V70.4906V70.492Z" fill="white"/>
<path d="M116.063 69.1914V70.4906H111.372V82.891H107.669V70.4906H103.023V69.1914H116.065H116.063Z" fill="white"/>
<path d="M148.759 78.2888C149.482 80.2488 151.133 81.7631 153.209 82.3712C155.284 82.9779 157.538 82.6081 159.283 81.3736C161.026 80.137 162.056 78.1827 162.056 76.1046C162.056 74.0265 161.026 72.0721 159.283 70.8363C157.538 69.6 155.284 69.2304 153.209 69.8386C151.133 70.4468 149.482 71.9611 148.759 73.9203H134.652V55.1638L140.158 49.8915H144.196C144.919 51.8508 146.57 53.3652 148.646 53.9734C150.72 54.5803 152.974 54.2108 154.719 52.9758C156.462 51.7396 157.493 49.7852 157.493 47.7072C157.493 45.6291 156.462 43.6747 154.719 42.4385C152.974 41.2023 150.72 40.8327 148.646 41.4409C146.57 42.0491 144.919 43.5634 144.196 45.5228H139.214C138.609 45.5228 138.029 45.7527 137.601 46.1631L131.947 51.5764L118.682 44.8504V32.4168H125.945C126.669 34.3761 128.32 35.8905 130.395 36.4986C132.47 37.1056 134.724 36.736 136.468 35.5011C138.212 34.2649 139.242 32.3105 139.242 30.2324C139.242 28.1544 138.212 26.2 136.468 24.9638C134.724 23.7276 132.47 23.358 130.395 23.9662C128.32 24.5744 126.669 26.0887 125.945 28.0481H116.401C115.141 28.0481 114.12 29.0259 114.12 30.2324V42.5374L95.8692 33.2907V23.2777C97.9152 22.5854 99.4973 21.0043 100.132 19.0165C100.766 17.03 100.38 14.8716 99.0901 13.2015C97.7992 11.5314 95.7584 10.5449 93.5884 10.5449C91.4177 10.5449 89.3769 11.5314 88.0861 13.2015C86.7953 14.8716 86.4093 17.03 87.0441 19.0165C87.6796 21.0043 89.261 22.5854 91.3069 23.2777V33.2907L73.0564 42.5411V30.2324C73.0564 29.6527 72.8163 29.0976 72.3877 28.6872C71.9603 28.278 71.3794 28.0469 70.7739 28.0469H61.2298C60.5068 26.0875 58.8556 24.5732 56.7798 23.965C54.7051 23.358 52.4511 23.7276 50.707 24.9626C48.9629 26.1987 47.9326 28.1532 47.9326 30.2312C47.9326 32.3092 48.9629 34.2636 50.707 35.4998C52.4511 36.736 54.7051 37.1056 56.7798 36.4974C58.8556 35.8892 60.5068 34.3749 61.2298 32.4156H68.4928V44.8491L55.2267 51.5752L49.5735 46.162C49.1462 45.7527 48.5652 45.5216 47.9597 45.5216H42.9778C42.2549 43.5622 40.6038 42.0479 38.5278 41.4397C36.4533 40.8327 34.1992 41.2023 32.4551 42.4373C30.711 43.6735 29.6808 45.6279 29.6808 47.7059C29.6808 49.7839 30.711 51.7383 32.4551 52.9745C34.1992 54.2108 36.4533 54.5803 38.5278 53.9722C40.6038 53.3639 42.2549 51.8496 42.9778 49.8903H47.0161L52.5221 55.1626V73.9189H38.4142C37.6913 71.9597 36.0402 70.4454 33.9642 69.8374C31.8897 69.2304 29.6356 69.6 27.8915 70.8348C26.1474 72.0714 25.1172 74.0258 25.1172 76.1039C25.1172 78.1813 26.1474 80.1363 27.8915 81.3722C29.6356 82.6081 31.8897 82.9779 33.9642 82.3698C36.0402 81.7617 37.6913 80.2474 38.4142 78.2881H52.5221V97.0444L47.0161 102.317H42.9778C42.2549 100.358 40.6038 98.8434 38.5278 98.2353C36.4533 97.6279 34.1992 97.9977 32.4551 99.2328C30.711 100.469 29.6808 102.423 29.6808 104.501C29.6808 106.579 30.711 108.534 32.4551 109.77C34.1992 111.006 36.4533 111.376 38.5278 110.768C40.6038 110.159 42.2549 108.645 42.9778 106.685H47.9597C48.5652 106.685 49.1449 106.456 49.5735 106.045L55.2267 100.632L68.4915 107.358V119.792H61.2284C60.5055 117.832 58.8543 116.318 56.7784 115.71C54.7039 115.103 52.4498 115.472 50.7057 116.707C48.9616 117.943 47.9313 119.898 47.9313 121.976C47.9313 124.054 48.9616 126.008 50.7057 127.245C52.4498 128.481 54.7039 128.851 56.7784 128.242C58.8543 127.634 60.5055 126.119 61.2284 124.16H70.7727C71.3781 124.16 71.9578 123.93 72.3864 123.52C72.8137 123.11 73.0552 122.554 73.0552 121.974V109.67L91.3055 118.916V128.926C89.2595 129.618 87.6781 131.199 87.0426 133.186C86.4093 135.173 86.7953 137.331 88.0846 139.002C89.3755 140.672 91.417 141.657 93.587 141.657C95.7569 141.657 97.7978 140.672 99.0893 139.002C100.38 137.332 100.766 135.173 100.131 133.186C99.4959 131.199 97.9144 129.618 95.8678 128.926V118.916L114.118 109.666V121.974C114.118 122.554 114.359 123.11 114.788 123.52C115.215 123.929 115.796 124.16 116.401 124.16H125.945C126.669 126.119 128.32 127.634 130.395 128.242C132.47 128.849 134.724 128.479 136.468 127.245C138.212 126.008 139.242 124.054 139.242 121.976C139.242 119.898 138.212 117.943 136.468 116.707C134.724 115.471 132.47 115.102 130.395 115.71C128.32 116.318 126.669 117.832 125.945 119.792H118.682V107.358L131.948 100.632L137.601 106.045C138.029 106.454 138.61 106.685 139.215 106.685H144.197C144.92 108.645 146.571 110.159 148.647 110.768C150.722 111.374 152.976 111.005 154.72 109.77C156.464 108.534 157.494 106.579 157.494 104.501C157.494 102.423 156.464 100.469 154.72 99.2328C152.976 97.9962 150.722 97.6272 148.647 98.2353C146.571 98.8434 144.92 100.358 144.197 102.317H140.159L134.653 97.0444V78.2881H148.761L148.759 78.2888ZM155.183 73.9203C156.106 73.9203 156.938 74.4532 157.29 75.2694C157.644 76.0849 157.449 77.0248 156.796 77.6498C156.142 78.2755 155.163 78.4611 154.309 78.1236C153.457 77.7862 152.901 76.9897 152.901 76.106C152.901 74.8996 153.922 73.9218 155.182 73.9218L155.183 73.9203ZM150.621 45.5228C151.544 45.5228 152.376 46.0556 152.728 46.8715C153.082 47.6873 152.886 48.6269 152.233 49.2524C151.58 49.8779 150.601 50.0633 149.747 49.7258C148.895 49.3883 148.339 48.5923 148.339 47.7084C148.339 46.5019 149.36 45.524 150.62 45.524L150.621 45.5228ZM132.37 28.0469C133.294 28.0469 134.125 28.5797 134.477 29.3955C134.831 30.2114 134.636 31.1509 133.983 31.7765C133.33 32.4019 132.35 32.5874 131.496 32.2499C130.644 31.9124 130.088 31.1163 130.088 30.2324C130.088 29.0259 131.109 28.0481 132.369 28.0481L132.37 28.0469ZM54.8058 32.4156C53.8828 32.4156 53.0514 31.8827 52.6989 31.0668C52.3452 30.251 52.5401 29.3115 53.1934 28.686C53.8467 28.0604 54.8265 27.875 55.6798 28.2125C56.5319 28.55 57.0883 29.3461 57.0883 30.23C57.0883 30.8097 56.8481 31.3648 56.4196 31.7752C55.9923 32.1843 55.4113 32.4156 54.8058 32.4156ZM36.5553 49.8915C35.6322 49.8915 34.8008 49.3587 34.4483 48.5428C34.0946 47.7269 34.2896 46.7874 34.9428 46.162C35.5961 45.5364 36.5759 45.351 37.4293 45.6885C38.2813 46.0259 38.8377 46.822 38.8377 47.7059C38.8377 48.2857 38.5975 48.8408 38.169 49.2512C37.7417 49.6603 37.1607 49.8915 36.5553 49.8915ZM31.9929 78.2888C31.0699 78.2888 30.2385 77.7567 29.886 76.9405C29.5323 76.1243 29.7272 75.1851 30.3805 74.5594C31.0337 73.9344 32.0136 73.7488 32.8669 74.0863C33.719 74.4237 34.2754 75.2195 34.2754 76.1039C34.2754 76.6832 34.0353 77.2385 33.6066 77.6491C33.1793 78.0583 32.5984 78.2888 31.9929 78.2888ZM36.5553 106.687C35.6322 106.687 34.8008 106.154 34.4483 105.338C34.0946 104.522 34.2896 103.583 34.9428 102.957C35.5961 102.332 36.5759 102.146 37.4293 102.484C38.2813 102.821 38.8377 103.617 38.8377 104.501C38.8377 105.081 38.5975 105.636 38.169 106.046C37.7417 106.456 37.1607 106.687 36.5553 106.687ZM54.8058 124.163C53.8828 124.163 53.0514 123.63 52.6989 122.814C52.3452 121.998 52.5401 121.058 53.1934 120.433C53.8467 119.808 54.8265 119.622 55.6798 119.96C56.5319 120.297 57.0883 121.094 57.0883 121.977C57.0883 122.557 56.8481 123.112 56.4196 123.522C55.9923 123.932 55.4113 124.163 54.8058 124.163ZM132.37 119.794C133.294 119.794 134.125 120.327 134.477 121.143C134.831 121.959 134.636 122.898 133.983 123.524C133.33 124.15 132.35 124.334 131.496 123.997C130.644 123.66 130.088 122.864 130.088 121.979C130.088 120.773 131.109 119.795 132.369 119.795L132.37 119.794ZM150.621 102.318C151.544 102.318 152.376 102.851 152.728 103.667C153.082 104.483 152.886 105.422 152.233 106.048C151.58 106.673 150.601 106.858 149.747 106.521C148.895 106.183 148.339 105.388 148.339 104.504C148.339 103.297 149.36 102.32 150.62 102.32L150.621 102.318ZM93.5892 14.9396C94.5124 14.9396 95.3438 15.4724 95.696 16.2882C96.0498 17.1041 95.8553 18.0436 95.2022 18.6692C94.5483 19.2946 93.5686 19.4801 92.7152 19.1426C91.8632 18.8051 91.3069 18.009 91.3069 17.1251C91.3069 15.9186 92.3284 14.9408 93.5884 14.9408L93.5892 14.9396ZM93.5892 137.27C92.6667 137.27 91.8353 136.738 91.4823 135.921C91.1286 135.105 91.3238 134.166 91.9769 133.54C92.6301 132.915 93.6105 132.73 94.4632 133.067C95.3152 133.405 95.8722 134.2 95.8722 135.085C95.8722 135.664 95.6315 136.219 95.2029 136.63C94.7758 137.039 94.1946 137.27 93.5892 137.27ZM130.09 96.6394L93.5892 115.14L57.0883 96.6394V55.5705L93.5892 37.0661L130.09 55.5705V96.6394Z" fill="white"/>
<path d="M92.5678 41.3823L60.6305 56.6739C59.8559 57.0447 59.3692 57.8013 59.3692 58.6295V93.5816C59.364 94.4133 59.8546 95.176 60.6305 95.5472L92.5678 110.838C93.2099 111.146 93.9651 111.146 94.6064 110.838L126.544 95.5472C127.321 95.1746 127.811 94.4133 127.805 93.5816V58.6295C127.805 57.8013 127.317 57.0447 126.544 56.6739L94.6064 41.3823C93.9651 41.0744 93.2099 41.0744 92.5678 41.3823ZM123.245 59.9782V92.2318L93.5879 106.43L63.9315 92.2318V59.9782L93.5879 45.7794L123.245 59.9782Z" fill="white"/>
<path d="M26.4585 163H32.9603V187H26.4585V176.119H15.5018V187H9V163H15.5018V173.842H26.4585V163ZM61.1646 166.048V183.952C61.1646 185.984 60.1077 187 57.994 187H42.3816C40.2678 187 39.211 185.984 39.211 183.952V166.048C39.211 164.016 40.2678 163 42.3816 163H57.994C60.1077 163 61.1646 164.016 61.1646 166.048ZM54.7029 183.527V166.473C54.7029 165.958 54.6227 165.636 54.4621 165.508C54.3016 165.354 53.9672 165.277 53.4588 165.277H46.957C46.4486 165.277 46.1141 165.354 45.9536 165.508C45.7931 165.636 45.7128 165.958 45.7128 166.473V183.527C45.7128 184.042 45.7931 184.376 45.9536 184.531C46.1141 184.659 46.4486 184.723 46.957 184.723H53.4588C53.9672 184.723 54.3016 184.659 54.4621 184.531C54.6227 184.376 54.7029 184.042 54.7029 183.527ZM73.94 184.723H85.9804V187H67.4382V163H73.94V184.723ZM106.025 183.527V166.473C106.025 165.958 105.945 165.636 105.784 165.508C105.624 165.354 105.289 165.277 104.781 165.277H96.6336V184.723H104.781C105.289 184.723 105.624 184.659 105.784 184.531C105.945 184.376 106.025 184.042 106.025 183.527ZM90.1318 163H109.356C111.47 163 112.527 164.016 112.527 166.048V183.952C112.527 185.984 111.47 187 109.356 187H90.1318V163ZM119.143 163H125.805V187H119.143V163ZM149.713 163H155.693V187H149.954L138.676 169.058V187H132.696V163H138.556L149.713 180.904V163ZM184 170.678H177.498V166.473C177.498 165.958 177.418 165.636 177.257 165.508C177.124 165.354 176.79 165.277 176.254 165.277H169.712C169.204 165.277 168.869 165.354 168.709 165.508C168.548 165.636 168.468 165.958 168.468 166.473V183.527C168.468 184.042 168.548 184.376 168.709 184.531C168.869 184.659 169.204 184.723 169.712 184.723H176.294C176.803 184.723 177.137 184.659 177.298 184.531C177.458 184.376 177.538 184.042 177.538 183.527V176.929H172.642V174.653H184V183.952C184 185.984 182.943 187 180.829 187H165.137C163.023 187 161.966 185.984 161.966 183.952V166.048C161.966 164.016 163.023 163 165.137 163H180.829C182.943 163 184 164.016 184 166.048V170.678Z" fill="white"/>
</g>
<defs>
<clipPath id="clip0_2854_2694">
<rect width="193" height="187" fill="white"/>
</clipPath>
</defs>
</svg>
