<svg width="120" height="110" viewBox="0 0 120 110" fill="none" xmlns="http://www.w3.org/2000/svg">
<path fill-rule="evenodd" clip-rule="evenodd" d="M63.2012 9.52549C64.0196 8.70302 64.527 7.57102 64.527 6.32049C64.527 3.82036 62.5004 1.79374 60.0003 1.79374C57.5001 1.79374 55.4735 3.82036 55.4735 6.32049C55.4735 7.57102 55.981 8.70303 56.7993 9.52142C58.5623 11.2944 61.4454 11.2816 63.2017 9.52505L63.2012 9.52549ZM63.2012 39.7604C64.0196 38.9379 64.527 37.8059 64.527 36.5554C64.527 34.0553 62.5004 32.0291 60.0003 32.0291C57.5001 32.0291 55.4735 34.0549 55.4735 36.5554C55.4735 37.8059 55.981 38.938 56.7993 39.7573C58.5623 41.5302 61.4454 41.5166 63.2017 39.7605L63.2012 39.7604ZM65.1694 40.1939C68.0122 40.7749 70.1006 43.3045 70.1006 46.2262V49.1031C70.1006 49.5978 69.6994 50 69.2046 50H50.7964C50.3017 50 49.8995 49.5978 49.8995 49.1031V46.2262C49.8995 43.3041 51.9884 40.774 54.833 40.1939C54.1067 39.1653 53.6791 37.9099 53.6791 36.5555C53.6791 33.0654 56.5096 30.2353 59.9998 30.2353C63.4899 30.2353 66.3204 33.0653 66.3204 36.5555C66.3204 37.9094 65.8937 39.165 65.1693 40.1939H65.1694ZM56.5693 41.8638C53.9194 41.8638 51.6935 43.378 51.6935 46.2262V48.2061H68.3076V46.2262C68.3076 43.377 66.0812 41.8638 63.4308 41.8638C61.3602 43.201 58.6458 43.2255 56.5692 41.8638H56.5693ZM43.1785 27.8642C43.9969 27.0417 44.5044 25.9088 44.5044 24.6592C44.5044 22.159 42.4777 20.1324 39.9776 20.1324C37.4775 20.1324 35.4508 22.159 35.4508 24.6592C35.4508 25.9088 35.9583 27.0417 36.7767 27.8601C38.5396 29.633 41.4228 29.6195 43.179 27.8637L43.1785 27.8642ZM83.223 27.8642C84.0422 27.0417 84.5497 25.9088 84.5497 24.6592C84.5497 22.159 82.5222 20.1324 80.023 20.1324C77.5228 20.1324 75.4962 22.159 75.4962 24.6592C75.4962 25.9088 76.0028 27.0417 76.822 27.8601C78.5845 29.633 81.4673 29.6195 83.2234 27.8637L83.223 27.8642ZM85.1911 28.2967C88.0339 28.8777 90.1232 31.4074 90.1232 34.33V37.2059C90.1232 37.7016 89.721 38.1028 89.2263 38.1028H70.8192C70.3236 38.1028 69.9223 37.7016 69.9223 37.2059V34.33C69.9223 31.4074 72.0112 28.8768 74.8548 28.2967C74.1286 27.2682 73.7019 26.0132 73.7019 24.6591C73.7019 21.1682 76.5319 18.3385 80.0225 18.3385C83.5126 18.3385 86.3427 21.1685 86.3427 24.6591C86.3427 26.0126 85.917 27.2686 85.1916 28.2967H85.1911ZM76.5915 29.9675C73.9416 29.9675 71.7157 31.4808 71.7157 34.33V36.309H88.3286V34.33C88.3286 31.4808 86.1022 29.9675 83.4528 29.9675C81.3821 31.3043 78.6677 31.3293 76.5911 29.9675H76.5915ZM45.1458 28.2967C47.9895 28.8777 50.0778 31.4074 50.0778 34.33V37.2059C50.0778 37.7016 49.6766 38.1028 49.1809 38.1028H30.7739C30.2791 38.1028 29.877 37.7016 29.877 37.2059V34.33C29.877 31.4074 31.9659 28.8768 34.8104 28.2967C34.0833 27.2682 33.6566 26.0132 33.6566 24.6591C33.6566 21.1682 36.4871 18.3385 39.9772 18.3385C43.4674 18.3385 46.2979 21.1685 46.2979 24.6591C46.2979 26.0126 45.8712 27.2686 45.1458 28.2967H45.1458ZM36.5461 29.9675C33.8962 29.9675 31.6703 31.4808 31.6703 34.33V36.309H48.2833V34.33C48.2833 31.4808 46.0574 29.9675 43.4074 29.9675C41.3368 31.3043 38.6224 31.3293 36.5458 29.9675H36.5461ZM70.2659 15.7251C72.0665 17.2021 73.5363 19.0667 74.5543 21.1619C74.0895 21.8868 73.764 22.7115 73.6183 23.5952C72.918 21.5331 71.7623 19.6804 70.2722 18.1584V15.9919C70.2722 15.9029 70.2699 15.8135 70.2658 15.725L70.2659 15.7251ZM72.6684 38.2746C71.5232 39.7157 70.1397 40.954 68.5796 41.933C68.1461 41.4641 67.6405 41.0597 67.0808 40.7379C68.2147 40.0952 69.2527 39.3035 70.1673 38.3885L70.3748 38.1779C70.7728 38.3594 72.1699 38.2745 72.6683 38.2745L72.6684 38.2746ZM51.4214 41.933C49.8604 40.9539 48.477 39.7166 47.3318 38.2746C47.8298 38.2746 49.2287 38.359 49.6258 38.1779C50.6235 39.1969 51.6724 40.0326 52.9184 40.7388C52.3588 41.0606 51.8549 41.4642 51.4214 41.933V41.933ZM45.4458 21.1613C46.4648 19.0629 47.9336 17.2037 49.7342 15.7236C49.6988 16.5152 49.7288 17.3599 49.7288 18.1573C48.2377 19.6793 47.0817 21.5312 46.3817 23.5951C46.2355 22.7104 45.9105 21.8866 45.4457 21.1613H45.4458ZM65.1694 9.95858C68.0122 10.5396 70.1006 13.0683 70.1006 15.9909V18.8678C70.1006 19.3625 69.6994 19.7647 69.2046 19.7647H50.7964C50.3017 19.7647 49.8995 19.3625 49.8995 18.8678V15.9909C49.8995 13.0683 51.9884 10.5386 54.833 9.95858C54.1067 8.93004 53.6791 7.67458 53.6791 6.32017C53.6791 2.83014 56.5096 0 59.9998 0C63.4899 0 66.3204 2.83002 66.3204 6.32017C66.3204 7.67365 65.8937 8.92964 65.1693 9.95858H65.1694ZM56.5693 11.6285C53.9194 11.6285 51.6935 13.1427 51.6935 15.9909V17.9708H68.3076V15.9909C68.3076 13.1417 66.0812 11.6285 63.4308 11.6285C61.3602 12.9657 58.6458 12.9902 56.5692 11.6285H56.5693Z" fill="white"/>
<path d="M27.79 86V72.896H36.0268V75.1424H30.261V78.3061H35.5775V80.5525H30.261V86H27.79ZM37.7898 86V72.896H43.4807C44.3044 72.896 45.022 73.0395 45.6335 73.3266C46.245 73.6136 46.7193 74.0192 47.0562 74.5434C47.3932 75.0675 47.5617 75.6853 47.5617 76.3966V76.6213C47.5617 77.4075 47.3745 78.044 47.0001 78.5307C46.6257 79.0174 46.1639 79.3731 45.6148 79.5978V79.9347C46.114 79.9597 46.5009 80.1344 46.7754 80.4589C47.05 80.7709 47.1873 81.189 47.1873 81.7131V86H44.7162V82.0688C44.7162 81.7693 44.6351 81.5259 44.4729 81.3387C44.3231 81.1515 44.0673 81.0579 43.7053 81.0579H40.2609V86H37.7898ZM40.2609 78.8115H43.2186C43.8052 78.8115 44.2607 78.6555 44.5852 78.3435C44.9221 78.019 45.0906 77.5947 45.0906 77.0706V76.8834C45.0906 76.3592 44.9284 75.9411 44.6039 75.6291C44.2794 75.3046 43.8177 75.1424 43.2186 75.1424H40.2609V78.8115ZM49.6178 86V72.896H52.0888V86H49.6178ZM54.5537 86V72.896H62.9777V75.1424H57.0248V78.2686H62.4536V80.515H57.0248V83.7536H63.09V86H54.5537ZM64.9192 86V72.896H69.6179L72.22 84.3152H72.557V72.896H74.9906V86H70.2918L67.6898 74.5808H67.3528V86H64.9192ZM77.0857 86V83.8285H78.808V75.0675H77.0857V72.896H82.4771C84.2368 72.896 85.5721 73.3453 86.4832 74.2438C87.4067 75.1299 87.8684 76.4528 87.8684 78.2125V80.6835C87.8684 82.4432 87.4067 83.7723 86.4832 84.6709C85.5721 85.557 84.2368 86 82.4771 86H77.0857ZM81.279 83.7536H82.5145C83.5129 83.7536 84.243 83.4915 84.7048 82.9674C85.1665 82.4432 85.3974 81.7069 85.3974 80.7584V78.1376C85.3974 77.1766 85.1665 76.4403 84.7048 75.9286C84.243 75.4045 83.5129 75.1424 82.5145 75.1424H81.279V83.7536ZM27.8814 106V92.896H30.3524V106H27.8814ZM32.8173 106V92.896H37.516L40.1181 104.315H40.4551V92.896H42.8887V106H38.19L35.5879 94.5808H35.2509V106H32.8173ZM47.7919 106L44.4597 92.896H47.0056L49.7762 104.409H50.0383L52.8088 92.896H55.3547L52.0226 106H47.7919ZM56.9303 106V92.896H59.4013V106H56.9303ZM64.8989 106V95.1424H61.08V92.896H71.1888V95.1424H67.3699V106H64.8989ZM72.8715 106V92.896H81.2955V95.1424H75.3426V98.2686H80.7714V100.515H75.3426V103.754H81.4079V106H72.8715ZM87.786 106.262C86.7751 106.262 85.8828 106.081 85.109 105.719C84.3352 105.357 83.73 104.839 83.2932 104.165C82.8564 103.492 82.638 102.68 82.638 101.732V101.208H85.0716V101.732C85.0716 102.518 85.3149 103.111 85.8016 103.51C86.2884 103.897 86.9498 104.091 87.786 104.091C88.6346 104.091 89.2648 103.922 89.6767 103.585C90.101 103.248 90.3132 102.818 90.3132 102.293C90.3132 101.932 90.2071 101.638 89.9949 101.414C89.7952 101.189 89.4957 101.008 89.0964 100.871C88.7095 100.721 88.2352 100.584 87.6736 100.459L87.2431 100.365C86.3445 100.166 85.5708 99.916 84.9218 99.6165C84.2853 99.3045 83.7924 98.8989 83.4429 98.3997C83.106 97.9005 82.9375 97.2515 82.9375 96.4528C82.9375 95.6541 83.1247 94.9739 83.4991 94.4123C83.886 93.8382 84.4226 93.4014 85.109 93.1019C85.8079 92.7899 86.6253 92.6339 87.5613 92.6339C88.4973 92.6339 89.3272 92.7962 90.0511 93.1206C90.7874 93.4326 91.3615 93.9069 91.7733 94.5434C92.1976 95.1674 92.4098 95.9536 92.4098 96.9021V97.4637H89.9762V96.9021C89.9762 96.4029 89.8764 96.0035 89.6767 95.704C89.4895 95.392 89.2149 95.1674 88.853 95.0301C88.4911 94.8803 88.0605 94.8054 87.5613 94.8054C86.8125 94.8054 86.2572 94.949 85.8952 95.236C85.5458 95.5106 85.3711 95.8912 85.3711 96.3779C85.3711 96.7024 85.4522 96.977 85.6144 97.2016C85.7892 97.4262 86.045 97.6134 86.382 97.7632C86.7189 97.913 87.1495 98.044 87.6736 98.1563L88.1042 98.2499C89.0402 98.4496 89.8514 98.7054 90.5378 99.0174C91.2367 99.3294 91.7796 99.7413 92.1664 100.253C92.5533 100.765 92.7468 101.42 92.7468 102.219C92.7468 103.017 92.5408 103.722 92.129 104.334C91.7296 104.933 91.1556 105.407 90.4068 105.757C89.6704 106.094 88.7968 106.262 87.786 106.262Z" fill="white"/>
</svg>
