<svg width="120" height="110" viewBox="0 0 120 110" fill="none" xmlns="http://www.w3.org/2000/svg">
<path d="M56.498 22.3524H57.7489V27.5737H56.5484L54.1899 23.6703V27.5737H52.939V22.3524H54.1644L56.498 26.2474V22.3524Z" fill="white"/>
<path d="M63.1293 22.8477H60.5272V24.8538H62.8019V25.349H60.5272V27.5733H59.1255V22.352H63.1293V22.8472V22.8477Z" fill="white"/>
<path d="M68.1912 22.3524V22.8476H66.4786V27.5737H65.1273V22.8476H63.4316V22.3524H68.1912Z" fill="white"/>
<path d="M80.1449 25.8344C80.4089 26.5816 81.0118 27.1591 81.7697 27.3911C82.5272 27.6225 83.3502 27.4816 83.987 27.0106C84.6238 26.5392 85 25.7939 85 25.0014C85 24.209 84.6238 23.4636 83.987 22.9922C83.3502 22.5208 82.5272 22.3798 81.7697 22.6118C81.0118 22.8437 80.4089 23.4212 80.1449 24.1684H74.9938V17.0155L77.0042 15.0049H78.4786C78.7426 15.7521 79.3455 16.3296 80.1034 16.5615C80.8609 16.793 81.6839 16.6521 82.3207 16.1811C82.9576 15.7097 83.3337 14.9644 83.3337 14.1719C83.3337 13.3794 82.9576 12.6341 82.3207 12.1627C81.6839 11.6913 80.8609 11.5503 80.1034 11.7823C79.3455 12.0142 78.7426 12.5917 78.4786 13.3389H76.6596C76.4385 13.3389 76.2269 13.4266 76.0704 13.5831L74.0063 15.6474L69.1629 13.0824V8.34087H71.8149C72.0788 9.08808 72.6817 9.66557 73.4397 9.89751C74.1972 10.129 75.0202 9.98803 75.657 9.51707C76.2938 9.04565 76.67 8.30033 76.67 7.50787C76.67 6.71541 76.2938 5.97009 75.657 5.49867C75.0202 5.02725 74.1972 4.88629 73.4397 5.11823C72.6817 5.35017 72.0788 5.92766 71.8149 6.67487H68.33C67.87 6.67487 67.4971 7.04776 67.4971 7.50787V12.2004L60.8334 8.67417V4.85565C61.5805 4.59165 62.1579 3.9887 62.3898 3.23066C62.6213 2.47308 62.4803 1.64998 62.0094 1.01309C61.5381 0.376196 60.7928 0 60.0005 0C59.2081 0 58.4629 0.376196 57.9915 1.01309C57.5201 1.64998 57.3792 2.47308 57.6111 3.23066C57.843 3.9887 58.4204 4.59165 59.1676 4.85565V8.67417L52.5038 12.2018V7.50787C52.5038 7.28678 52.4161 7.07511 52.2596 6.91859C52.1032 6.76208 51.8915 6.6744 51.6704 6.6744H48.1856C47.9216 5.92719 47.3188 5.3497 46.5608 5.11776C45.8033 4.88629 44.9803 5.02725 44.3435 5.4982C43.7067 5.96962 43.3305 6.71494 43.3305 7.5074C43.3305 8.29986 43.7067 9.04518 44.3435 9.5166C44.9803 9.98802 45.8033 10.129 46.5608 9.89704C47.3188 9.6651 47.9216 9.08761 48.1856 8.3404H50.8375V13.082L45.9937 15.647L43.9296 13.5826C43.7736 13.4266 43.5615 13.3384 43.3404 13.3384H41.5214C41.2574 12.5912 40.6545 12.0137 39.8966 11.7818C39.1391 11.5503 38.3161 11.6913 37.6793 12.1622C37.0424 12.6336 36.6663 13.379 36.6663 14.1714C36.6663 14.9639 37.0424 15.7092 37.6793 16.1806C38.3161 16.6521 39.1391 16.793 39.8966 16.5611C40.6545 16.3291 41.2574 15.7516 41.5214 15.0044H42.9958L45.0062 17.015V24.1679H39.8551C39.5911 23.4207 38.9882 22.8432 38.2303 22.6113C37.4728 22.3798 36.6498 22.5208 36.013 22.9917C35.3762 23.4632 35 24.2085 35 25.0009C35 25.7934 35.3762 26.5387 36.013 27.0101C36.6498 27.4816 37.4728 27.6225 38.2303 27.3906C38.9882 27.1586 39.5911 26.5811 39.8551 25.8339H45.0062V32.9868L42.9958 34.9975H41.5214C41.2574 34.2502 40.6545 33.6728 39.8966 33.4408C39.1391 33.2093 38.3161 33.3503 37.6793 33.8213C37.0424 34.2927 36.6663 35.038 36.6663 35.8305C36.6663 36.6229 37.0424 37.3682 37.6793 37.8397C38.3161 38.3111 39.1391 38.452 39.8966 38.2201C40.6545 37.9882 41.2574 37.4107 41.5214 36.6635H43.3404C43.5615 36.6635 43.7731 36.5758 43.9296 36.4193L45.9937 34.3549L50.8371 36.9199V41.6615H48.1851C47.9212 40.9143 47.3183 40.3368 46.5603 40.1048C45.8028 39.8734 44.9798 40.0143 44.343 40.4853C43.7062 40.9567 43.33 41.702 43.33 42.4945C43.33 43.2869 43.7062 44.0323 44.343 44.5037C44.9798 44.9751 45.8028 45.1161 46.5603 44.8841C47.3183 44.6522 47.9212 44.0747 48.1851 43.3275H51.67C51.891 43.3275 52.1027 43.2398 52.2592 43.0833C52.4157 42.9268 52.5033 42.7151 52.5033 42.494V37.8015L59.1671 41.3277V45.1448C58.42 45.4088 57.8425 46.0118 57.6106 46.7693C57.3792 47.5274 57.5201 48.35 57.991 48.9874C58.4624 49.6243 59.2076 50 60 50C60.7924 50 61.5376 49.6243 62.009 48.9874C62.4803 48.3505 62.6213 47.5274 62.3894 46.7693C62.1575 46.0118 61.58 45.4088 60.8329 45.1448V41.3277L67.4967 37.8001V42.494C67.4967 42.7151 67.5843 42.9268 67.7408 43.0833C67.8973 43.2398 68.109 43.3275 68.33 43.3275H71.8149C72.0788 44.0747 72.6817 44.6522 73.4397 44.8841C74.1972 45.1156 75.0202 44.9746 75.657 44.5037C76.2938 44.0323 76.67 43.2869 76.67 42.4945C76.67 41.702 76.2938 40.9567 75.657 40.4853C75.0202 40.0139 74.1972 39.8729 73.4397 40.1048C72.6817 40.3368 72.0788 40.9143 71.8149 41.6615H69.1629V36.9199L74.0067 34.3549L76.0709 36.4193C76.2269 36.5753 76.439 36.6635 76.6601 36.6635H78.4791C78.7431 37.4107 79.3459 37.9882 80.1039 38.2201C80.8614 38.4516 81.6844 38.3106 82.3212 37.8397C82.958 37.3682 83.3342 36.6229 83.3342 35.8305C83.3342 35.038 82.958 34.2927 82.3212 33.8213C81.6844 33.3498 80.8614 33.2089 80.1039 33.4408C79.3459 33.6728 78.7431 34.2502 78.4791 34.9975H77.0046L74.9942 32.9868V25.8339H80.1454L80.1449 25.8344ZM82.4904 24.1684C82.8275 24.1684 83.131 24.3716 83.2597 24.6827C83.3889 24.9939 83.3177 25.3522 83.0792 25.5907C82.8407 25.8292 82.4829 25.8999 82.1713 25.7712C81.8602 25.6425 81.6571 25.339 81.6571 25.0019C81.6571 24.5418 82.0299 24.1689 82.49 24.1689L82.4904 24.1684ZM80.8246 13.3389C81.1616 13.3389 81.4652 13.5421 81.5939 13.8532C81.723 14.1644 81.6519 14.5226 81.4134 14.7612C81.1748 14.9997 80.8171 15.0704 80.5055 14.9417C80.1944 14.813 79.9912 14.5094 79.9912 14.1724C79.9912 13.7123 80.3641 13.3394 80.8242 13.3394L80.8246 13.3389ZM74.1609 6.6744C74.4979 6.6744 74.8015 6.87758 74.9301 7.18872C75.0593 7.49986 74.9881 7.85814 74.7496 8.09668C74.5111 8.33522 74.1533 8.40593 73.8418 8.27723C73.5307 8.14854 73.3275 7.84494 73.3275 7.50787C73.3275 7.04776 73.7003 6.67487 74.1604 6.67487L74.1609 6.6744ZM45.8401 8.3404C45.503 8.3404 45.1995 8.13722 45.0708 7.82608C44.9416 7.51494 45.0128 7.15666 45.2513 6.91812C45.4898 6.67958 45.8476 6.60887 46.1592 6.73757C46.4703 6.86627 46.6735 7.16986 46.6735 7.50693C46.6735 7.72803 46.5858 7.9397 46.4293 8.09621C46.2728 8.25272 46.0611 8.3404 45.8401 8.3404ZM39.1763 15.0049C38.8393 15.0049 38.5357 14.8017 38.4071 14.4906C38.2779 14.1794 38.3491 13.8212 38.5876 13.5826C38.8261 13.3441 39.1839 13.2734 39.4954 13.4021C39.8066 13.5308 40.0097 13.8344 40.0097 14.1714C40.0097 14.3925 39.922 14.6042 39.7655 14.7607C39.6095 14.9167 39.3974 15.0049 39.1763 15.0049ZM37.5105 25.8344C37.1735 25.8344 36.8699 25.6312 36.7412 25.3201C36.6121 25.009 36.6833 24.6507 36.9218 24.4121C37.1603 24.1736 37.518 24.1029 37.8296 24.2316C38.1407 24.3603 38.3439 24.6639 38.3439 25.0009C38.3439 25.222 38.2562 25.4337 38.0997 25.5902C37.9432 25.7467 37.7316 25.8344 37.5105 25.8344ZM39.1763 36.6639C38.8393 36.6639 38.5357 36.4607 38.4071 36.1496C38.2779 35.8385 38.3491 35.4802 38.5876 35.2416C38.8261 35.0031 39.1839 34.9324 39.4954 35.0611C39.8066 35.1898 40.0097 35.4934 40.0097 35.8305C40.0097 36.0516 39.922 36.2632 39.7655 36.4197C39.6095 36.5758 39.3974 36.6639 39.1763 36.6639ZM45.8401 43.3284C45.503 43.3284 45.1995 43.1252 45.0708 42.8141C44.9416 42.503 45.0128 42.1447 45.2513 41.9061C45.4898 41.6676 45.8476 41.5969 46.1592 41.7256C46.4703 41.8543 46.6735 42.1579 46.6735 42.495C46.6735 42.716 46.5858 42.9277 46.4293 43.0842C46.2733 43.2403 46.0611 43.3284 45.8401 43.3284ZM74.1609 41.6624C74.4979 41.6624 74.8015 41.8656 74.9301 42.1767C75.0593 42.4879 74.9881 42.8462 74.7496 43.0847C74.5111 43.3232 74.1533 43.394 73.8418 43.2653C73.5307 43.1366 73.3275 42.833 73.3275 42.4959C73.3275 42.0358 73.7003 41.6629 74.1604 41.6629L74.1609 41.6624ZM80.8246 34.9979C81.1616 34.9979 81.4652 35.2011 81.5939 35.5122C81.723 35.8234 81.6519 36.1817 81.4134 36.4202C81.1748 36.6587 80.8171 36.7295 80.5055 36.6008C80.1944 36.4721 79.9912 36.1685 79.9912 35.8314C79.9912 35.3713 80.3641 34.9984 80.8242 34.9984L80.8246 34.9979ZM60.0005 1.67591C60.3375 1.67591 60.6411 1.87909 60.7697 2.19023C60.8989 2.50137 60.8277 2.85965 60.5892 3.09819C60.3507 3.33673 59.9929 3.40744 59.6814 3.27874C59.3703 3.15004 59.1671 2.84645 59.1671 2.50938C59.1671 2.04927 59.5399 1.67638 60 1.67638L60.0005 1.67591ZM60.0005 48.3269C59.6634 48.3269 59.3599 48.1237 59.2312 47.8126C59.102 47.5015 59.1732 47.1432 59.4117 46.9046C59.6502 46.6661 60.008 46.5954 60.3196 46.7241C60.6307 46.8528 60.8339 47.1564 60.8339 47.4934C60.8339 47.7145 60.7462 47.9262 60.5897 48.0827C60.4332 48.2392 60.2215 48.3269 60.0005 48.3269ZM73.328 32.8322L60.0005 39.8875L46.673 32.8322V17.1706L60.0005 10.1139L73.328 17.1706V32.8322Z" fill="white"/>
<path d="M59.6282 11.7674L47.9791 17.594C47.6966 17.7353 47.5191 18.0236 47.5191 18.3392V31.6571C47.5172 31.9741 47.6961 32.2647 47.9791 32.406L59.6282 38.2327C59.8622 38.35 60.1377 38.35 60.3717 38.2327L72.0208 32.406C72.3043 32.2642 72.4827 31.9741 72.4809 31.6571V18.3392C72.4809 18.0236 72.3029 17.7353 72.0208 17.594L60.3717 11.7674C60.1377 11.6501 59.8622 11.6501 59.6282 11.7674ZM70.8172 18.8531V31.1427L60.0002 36.553L49.1831 31.1427V18.8531L60.0002 13.4428L70.8172 18.8531Z" fill="white"/>
<path d="M42.3693 86V72.896H47.068L49.6701 84.3152H50.007V72.896H52.4406V86H47.7419L45.1398 74.5808H44.8029V86H42.3693ZM54.9102 86V72.896H63.147V75.1424H57.3813V78.3061H62.6977V80.5525H57.3813V86H54.9102ZM67.9427 86V75.1424H64.1238V72.896H74.2326V75.1424H70.4137V86H67.9427ZM20.9957 106L24.4402 92.896H28.7458L32.1903 106H29.6444L28.933 103.117H24.253L23.5416 106H20.9957ZM24.8333 100.833H28.3527L26.7615 94.4498H26.4245L24.8333 100.833ZM38.6286 106.262C37.0062 106.262 35.7208 105.813 34.7723 104.914C33.8238 104.003 33.3496 102.705 33.3496 101.02V97.8755C33.3496 96.1907 33.8238 94.899 34.7723 94.0005C35.7208 93.0894 37.0062 92.6339 38.6286 92.6339C40.2386 92.6339 41.4803 93.077 42.3539 93.963C43.24 94.8366 43.683 96.041 43.683 97.576V97.6883H41.2494V97.5011C41.2494 96.7274 41.031 96.0909 40.5942 95.5917C40.1699 95.0925 39.5147 94.8429 38.6286 94.8429C37.755 94.8429 37.0686 95.1112 36.5694 95.6478C36.0702 96.1845 35.8206 96.9146 35.8206 97.8381V101.058C35.8206 101.969 36.0702 102.699 36.5694 103.248C37.0686 103.785 37.755 104.053 38.6286 104.053C39.5147 104.053 40.1699 103.804 40.5942 103.304C41.031 102.793 41.2494 102.156 41.2494 101.395V101.058H43.683V101.32C43.683 102.855 43.24 104.066 42.3539 104.952C41.4803 105.825 40.2386 106.262 38.6286 106.262ZM48.4732 106V95.1424H44.6543V92.896H54.7631V95.1424H50.9442V106H48.4732ZM56.4458 106V92.896H58.9169V106H56.4458ZM63.8154 106L60.4832 92.896H63.0291L65.7997 104.409H66.0618L68.8323 92.896H71.3783L68.0461 106H63.8154ZM72.9538 106V92.896H75.4248V106H72.9538ZM80.9224 106V95.1424H77.1035V92.896H87.2123V95.1424H83.3934V106H80.9224ZM92.2647 106V101.488L87.8093 92.896H90.5611L93.3317 98.512H93.6687L96.4392 92.896H99.1911L94.7357 101.488V106H92.2647Z" fill="white"/>
</svg>
