<svg width="20" height="18" viewBox="0 0 20 18" fill="none" xmlns="http://www.w3.org/2000/svg">
<path fill-rule="evenodd" clip-rule="evenodd" d="M4.44444 5.11138C4.44444 4.75733 4.30411 4.4192 4.05381 4.1692C3.8041 3.91918 3.46496 3.7793 3.11108 3.7793H1.33336C0.979485 3.7793 0.640357 3.91919 0.390637 4.1692C0.140335 4.41922 0 4.75736 0 5.11138V15.7805C0 16.1325 0.140331 16.4725 0.390637 16.7226C0.640346 16.9726 0.979489 17.1126 1.33336 17.1126H3.11108C3.46496 17.1126 3.80409 16.9726 4.05381 16.7226C4.30411 16.4726 4.44444 16.1325 4.44444 15.7805V5.11138ZM3.55559 5.11138V15.7805C3.55559 15.8964 3.50886 16.0104 3.42537 16.0945C3.34219 16.1765 3.22894 16.2245 3.11108 16.2245H1.33336C1.2155 16.2245 1.10226 16.1765 1.01907 16.0945C0.935587 16.0104 0.888858 15.8964 0.888858 15.7805V5.11138C0.888858 4.99336 0.935587 4.8813 1.01907 4.79736C1.10226 4.71328 1.2155 4.66729 1.33336 4.66729H3.11108C3.22894 4.66729 3.34219 4.71327 3.42537 4.79736C3.50886 4.8813 3.55559 4.99336 3.55559 5.11138Z" fill="white"/>
<path fill-rule="evenodd" clip-rule="evenodd" d="M9.72179 10.6318C9.72179 9.91629 9.1249 9.33496 8.38842 9.33496H6.61071C5.87423 9.33496 5.27734 9.91626 5.27734 10.6318V15.8177C5.27734 16.5333 5.87423 17.1127 6.61071 17.1127H8.38842C9.1249 17.1127 9.72179 16.5333 9.72179 15.8177V10.6318ZM8.83293 10.6318V15.8177C8.83293 16.0549 8.63382 16.2493 8.38842 16.2493H6.61071C6.36531 16.2493 6.1662 16.0549 6.1662 15.8177V10.6318C6.1662 10.3927 6.36531 10.2001 6.61071 10.2001H8.38842C8.63382 10.2001 8.83293 10.3927 8.83293 10.6318Z" fill="white"/>
<path fill-rule="evenodd" clip-rule="evenodd" d="M14.7228 1.76083C14.7228 1.03448 14.1259 0.446289 13.3894 0.446289H11.6117C10.8752 0.446289 10.2783 1.03448 10.2783 1.76083V15.7984C10.2783 16.5248 10.8752 17.113 11.6117 17.113H13.3894C14.1259 17.113 14.7228 16.5248 14.7228 15.7984V1.76083ZM13.8339 1.76083V15.7984C13.8339 16.0391 13.6348 16.2365 13.3894 16.2365H11.6117C11.3663 16.2365 11.1672 16.0391 11.1672 15.7984V1.76083C11.1672 1.52013 11.3663 1.32276 11.6117 1.32276H13.3894C13.6348 1.32276 13.8339 1.52014 13.8339 1.76083Z" fill="white"/>
<path fill-rule="evenodd" clip-rule="evenodd" d="M19.9997 7.03844C19.9997 6.68954 19.8681 6.35648 19.6335 6.11008C19.3993 5.86369 19.0814 5.72363 18.7496 5.72363H17.083C16.7513 5.72363 16.4333 5.86369 16.1992 6.11008C15.9646 6.35646 15.833 6.68954 15.833 7.03844V15.7998C15.833 16.1466 15.9646 16.4817 16.1992 16.7281C16.4333 16.9745 16.7513 17.1125 17.083 17.1125H18.7496C19.0814 17.1125 19.3993 16.9745 19.6335 16.7281C19.8681 16.4818 19.9997 16.1467 19.9997 15.7998V7.03844ZM19.1664 7.03844V15.7998C19.1664 15.914 19.1226 16.0264 19.0443 16.1092C18.9663 16.19 18.8601 16.2373 18.7496 16.2373H17.083C16.9725 16.2373 16.8664 16.19 16.7884 16.1092C16.7101 16.0264 16.6663 15.914 16.6663 15.7998V7.03844C16.6663 6.92213 16.7101 6.8117 16.7884 6.72899C16.8664 6.64613 16.9725 6.60081 17.083 6.60081H18.7496C18.8601 6.60081 18.9663 6.64612 19.0443 6.72899C19.1226 6.8117 19.1664 6.92213 19.1664 7.03844Z" fill="white"/>
</svg>
