<svg width="294" height="226" viewBox="0 0 55 40" fill="none" xmlns="http://www.w3.org/2000/svg">
    <path d="M45.8489 3.31578C42.4496 1.78105 38.8044 0.650328 34.9931 0.00271665C34.9237 -0.00978206 34.8544 0.0214529 34.8186 0.0839242C34.3498 0.904368 33.8305 1.9747 33.4669 2.81598C29.3676 2.21211 25.2893 2.21211 21.2741 2.81598C20.9103 1.956 20.3722 0.904368 19.9013 0.0839242C19.8655 0.0235372 19.7962 -0.00769771 19.7268 0.00271665C15.9176 0.648259 12.2724 1.77898 8.87098 3.31578C8.84153 3.32827 8.81629 3.34912 8.79954 3.37617C1.88533 13.5403 -0.00876611 23.4545 0.920412 33.2458C0.924617 33.2937 0.951945 33.3396 0.989786 33.3687C5.55159 36.6651 9.97047 38.6663 14.3073 39.9927C14.3767 40.0136 14.4502 39.9886 14.4944 39.9323C15.5203 38.5538 16.4348 37.1003 17.2188 35.5718C17.2651 35.4823 17.221 35.3761 17.1264 35.3407C15.6759 34.7993 14.2947 34.1392 12.9661 33.3895C12.861 33.3292 12.8526 33.1812 12.9493 33.1104C13.2288 32.9043 13.5085 32.6898 13.7755 32.4732C13.8238 32.4337 13.8911 32.4253 13.9479 32.4503C22.6762 36.3715 32.1257 36.3715 40.751 32.4503C40.8078 32.4233 40.8751 32.4316 40.9255 32.4712C41.1926 32.6877 41.4721 32.9043 41.7538 33.1104C41.8505 33.1812 41.8442 33.3292 41.7391 33.3895C40.4105 34.1537 39.0293 34.7993 37.5767 35.3386C37.4821 35.374 37.4401 35.4823 37.4863 35.5718C38.2872 37.0982 39.2017 38.5517 40.2087 39.9303C40.2507 39.9886 40.3264 40.0136 40.3958 39.9927C44.7536 38.6663 49.1725 36.6651 53.7343 33.3687C53.7743 33.3396 53.7995 33.2958 53.8037 33.2479C54.9157 21.9281 51.9411 12.0951 45.9183 3.37824C45.9035 3.34912 45.8784 3.32827 45.8489 3.31578ZM18.5223 27.2839C15.8945 27.2839 13.7292 24.9101 13.7292 21.9947C13.7292 19.0794 15.8525 16.7055 18.5223 16.7055C21.2131 16.7055 23.3574 19.1002 23.3153 21.9947C23.3153 24.9101 21.192 27.2839 18.5223 27.2839ZM36.2439 27.2839C33.6161 27.2839 31.4509 24.9101 31.4509 21.9947C31.4509 19.0794 33.5741 16.7055 36.2439 16.7055C38.9348 16.7055 41.079 19.1002 41.037 21.9947C41.037 24.9101 38.9348 27.2839 36.2439 27.2839Z" fill="white" />
</svg>
