<svg width="294" height="294" viewBox="0 0 294 294" fill="none" xmlns="http://www.w3.org/2000/svg">
<g clip-path="url(#clip0_2252_3820)">
<path d="M61.0552 139.822C61.0549 138.182 61.3787 136.558 62.0078 135.044C62.637 133.529 63.5592 132.154 64.7215 130.997C65.8838 129.84 67.2632 128.924 68.7805 128.301C70.2979 127.679 71.9232 127.363 73.5632 127.37L94.3002 127.438C97.6067 127.438 100.778 128.752 103.116 131.09C105.454 133.428 106.767 136.599 106.767 139.905V218.319C109.103 217.627 112.099 216.889 115.381 216.119C117.66 215.583 119.691 214.293 121.145 212.458C122.598 210.623 123.39 208.35 123.39 206.009V108.743C123.39 107.106 123.712 105.484 124.339 103.972C124.965 102.459 125.884 101.084 127.042 99.9261C128.199 98.7682 129.574 97.8496 131.087 97.2228C132.599 96.5961 134.221 96.2734 135.858 96.2733H156.636C159.942 96.2738 163.113 97.5875 165.451 99.9254C167.789 102.263 169.103 105.434 169.103 108.74V199.019C169.103 199.019 174.303 196.913 179.372 194.774C181.254 193.978 182.861 192.645 183.99 190.942C185.12 189.239 185.724 187.241 185.725 185.197V77.5703C185.725 75.9332 186.047 74.312 186.674 72.7995C187.3 71.2869 188.218 69.9126 189.376 68.7549C190.534 67.5972 191.908 66.6789 193.42 66.0523C194.933 65.4258 196.554 65.1033 198.191 65.1033H218.969C222.276 65.1033 225.447 66.4168 227.785 68.7548C230.123 71.0927 231.437 74.2638 231.437 77.5703V166.195C249.451 153.14 267.708 137.437 282.196 118.556C284.298 115.816 285.689 112.597 286.245 109.188C286.801 105.779 286.504 102.286 285.381 99.0193C275.578 70.4505 257.191 45.6069 232.732 27.8854C208.273 10.1638 178.938 0.429483 148.737 0.0133118C67.2982 -1.08069 -0.00680704 65.3983 0.00119296 146.847C-0.0787702 172.62 6.64795 197.958 19.5012 220.297C21.2738 223.353 23.8815 225.839 27.0181 227.464C30.1546 229.089 33.6898 229.785 37.2082 229.47C41.1392 229.124 46.0332 228.635 51.8512 227.952C54.3835 227.664 56.7214 226.455 58.4196 224.554C60.1178 222.654 61.0576 220.195 61.0602 217.646V139.822" fill="white"/>
<path d="M60.6031 265.58C82.505 281.513 108.388 291.077 135.388 293.213C162.387 295.349 189.452 289.975 213.587 277.684C237.722 265.394 257.987 246.666 272.139 223.574C286.291 200.481 293.779 173.923 293.775 146.839C293.775 143.458 293.618 140.115 293.392 136.79C239.75 216.79 140.706 254.19 60.6021 265.583" fill="white"/>
</g>
<defs>
<clipPath id="clip0_2252_3820">
<rect width="293.775" height="293.671" fill="white"/>
</clipPath>
</defs>
</svg>
