<svg width="162" height="109" viewBox="0 0 162 109" fill="none" xmlns="http://www.w3.org/2000/svg">
<path d="M17.6727 71.9252C17.6727 45.2313 30.9273 18.5374 46.3909 18.5374C54.4909 18.5374 61.8545 23.7279 72.9 39.2993C62.5909 54.8707 56.7 65.2517 56.7 65.2517C42.7091 86.7551 38.2909 91.9456 30.1909 91.9456C22.0909 91.2041 17.6727 84.5306 17.6727 71.9252ZM108.245 62.2857L98.6727 46.7143C96.4636 42.2653 93.5182 38.5578 91.3091 34.8503C100.145 21.5034 106.773 14.8299 115.609 14.8299C133.282 14.8299 147.273 40.7823 147.273 72.6667C147.273 84.5306 143.591 91.9456 135.491 91.9456C126.655 91.2041 122.973 86.0136 108.245 62.2857ZM83.2091 23.7279C69.9545 7.41497 59.6455 0.741499 46.3909 0.741499C19.8818 0.741499 0 35.5918 0 71.9252C0 94.9116 11.0455 109 29.4545 109C42.7091 109 52.2818 103.068 69.2182 72.6667C69.2182 72.6667 76.5818 60.0612 81 51.1633C82.4727 54.1293 84.6818 57.0952 86.1546 60.0612L94.2545 73.4082C109.718 99.3605 118.555 108.258 134.018 108.258C151.691 108.258 162 93.4286 162 70.4422C162 31.8844 141.382 0 116.345 0C103.091 0.741497 92.7818 11.1225 83.2091 23.7279Z" fill="white"/>
</svg>
