<svg width="20" height="28" viewBox="0 0 20 28" fill="none" xmlns="http://www.w3.org/2000/svg">
<path d="M19.9582 11.1406L18.8395 8.78328L19.2249 6.21666C19.2498 6.04054 19.1644 5.86693 19.0072 5.77386L16.7388 4.37391L15.62 2.01364C15.5448 1.8538 15.3796 1.75093 15.1973 1.7503H12.5124L10.247 0.350347C10.0937 0.255614 9.89689 0.255614 9.74364 0.350347L7.4782 1.7503H4.78398C4.60167 1.75093 4.4365 1.8538 4.36128 2.01364L3.24254 4.37391L0.983379 5.77386C0.829692 5.86943 0.748184 6.04242 0.775064 6.21666L1.16048 8.78328L0.0417449 11.1406C-0.0334755 11.2998 -0.00551089 11.4866 0.11328 11.6191L1.8754 13.5814L2.26081 16.148L2.26059 16.1482C2.28595 16.3225 2.41471 16.4662 2.58987 16.5161L4.19028 16.9679V26.8397C4.19483 26.9876 4.2746 27.1239 4.4038 27.204C4.53299 27.2842 4.69492 27.2977 4.83668 27.2406L10.1009 24.9671L15.3684 27.2406C15.5125 27.3023 15.6794 27.2896 15.8117 27.207C15.9441 27.1243 16.0241 26.9826 16.0241 26.8307V16.9049L17.4101 16.5131C17.5844 16.4636 17.713 16.3211 17.7394 16.1481L18.1248 13.5815L19.8869 11.6192L19.8867 11.619C20.0055 11.4865 20.0335 11.2997 19.9583 11.1405L19.9582 11.1406ZM5.11333 17.2315H5.16297L6.8878 19.1639V25.3472V25.3712L5.11031 26.1399L5.11333 17.2315ZM10.0856 24.0253C10.0201 24.0253 9.95553 24.0384 9.89592 24.0641L7.82016 24.9676V19.224L9.99541 18.6108L12.1707 19.224V24.8779L10.306 24.0672H10.3062C10.2421 24.0384 10.1718 24.024 10.1009 24.0253L10.0856 24.0253ZM15.0919 17.169V26.1434L13.103 25.2788V19.1645L14.8246 17.2499L15.0919 17.169ZM17.3324 13.0916C17.2741 13.1567 17.2361 13.2366 17.2238 13.322L16.8633 15.7331L14.4331 16.4211C14.3473 16.4455 14.2707 16.4933 14.2124 16.5586L12.5561 18.3984L10.1259 17.7134C10.0407 17.6892 9.9501 17.6892 9.86491 17.7134L7.43472 18.3984L5.77837 16.5586C5.72005 16.4933 5.64354 16.4455 5.55769 16.4211L4.77774 16.1997L3.13377 15.7331L2.77329 13.322C2.76071 13.2366 2.723 13.1567 2.66447 13.0916L1.00812 11.2488L2.0586 9.0351C2.09589 8.95664 2.10889 8.86921 2.09588 8.78387L1.72911 6.37269L3.86081 5.0564H3.86103C3.93581 5.00965 3.99521 4.9433 4.03184 4.86505L5.08232 2.64837H7.61506C7.70437 2.64816 7.79173 2.62312 7.86673 2.57659L9.99538 1.26029L12.124 2.57659C12.199 2.62312 12.2864 2.64816 12.3757 2.64837H14.9084L15.9589 4.86505C15.9955 4.9433 16.0549 5.00965 16.1297 5.0564L18.2614 6.37269L17.9009 8.78387H17.9012C17.8881 8.86922 17.9012 8.95665 17.9384 9.0351L18.9889 11.2488L17.3324 13.0916Z" fill="white"/>
<path d="M10.0002 3.2793C8.18482 3.2793 6.44374 3.96482 5.16053 5.18475C3.87716 6.40472 3.15695 8.05931 3.1582 9.78393C3.15943 11.5085 3.88227 13.1622 5.16746 14.3804C6.45245 15.5986 8.19456 16.2816 10.01 16.2793C11.8256 16.2768 13.5655 15.589 14.847 14.3673C16.1285 13.1455 16.8463 11.4902 16.8424 9.76536C16.8363 8.04461 16.1129 6.3962 14.8307 5.18069C13.5485 3.96517 11.8117 3.28157 10.0002 3.2793H10.0002ZM10.0002 15.4473V15.4475C8.41875 15.4475 6.90187 14.851 5.78321 13.7891C4.66435 12.727 4.03521 11.2865 4.03395 9.78412C4.03253 8.28155 4.65924 6.84013 5.77628 5.77643C6.89332 4.71279 8.40901 4.11392 9.99068 4.11139C11.5722 4.10907 13.0901 4.70308 14.2106 5.76346C15.3312 6.82364 15.9628 8.26312 15.9667 9.7655C15.9653 11.2685 15.3361 12.7091 14.2174 13.7718C13.099 14.8345 11.5823 15.432 10.0002 15.4336V15.4473Z" fill="white"/>
</svg>
