<svg width="282" height="230" viewBox="0 0 282 230" fill="none" xmlns="http://www.w3.org/2000/svg">
<path d="M251.677 0H281.287L161.227 137.095C158.185 140.542 157.983 145.815 161.025 149.466L230.18 229.978H199.354L135.471 155.347L132.227 151.291C129.185 147.843 129.387 142.368 132.429 138.92L251.677 0Z" fill="white"/>
<path d="M184.957 149.465C182.929 147.234 182.321 143.989 182.929 141.15C183.538 139.528 184.552 137.905 185.768 136.688L193.678 127.968L281.897 229.978H253.91C253.91 229.978 202.195 169.542 184.957 149.465Z" fill="white"/>
<path d="M30.826 229.978H0L94.5061 120.668C97.5482 117.22 97.5482 111.947 94.5061 108.5L0.811211 0H30.4204L124.724 109.311C127.157 112.556 127.563 117.22 124.927 120.262C100.185 148.857 30.826 229.978 30.826 229.978Z" fill="white"/>
<path d="M82.3377 0H53.9453L141.353 101.199C141.353 101.199 141.556 100.996 151.291 89.4361C153.927 86.394 154.536 82.5408 151.493 79.4987C133.241 60.8409 82.3377 0 82.3377 0Z" fill="white"/>
<path d="M167.515 70.5754L228.153 0H199.355L167.718 36.9101L158.592 47.6587C155.549 51.1063 155.347 56.3792 158.389 60.0296C160.62 62.6661 167.515 70.5754 167.515 70.5754Z" fill="white"/>
<path d="M114.786 159.403L54.1484 229.979H82.7436L114.381 193.069L123.507 182.32C126.549 178.872 126.752 173.6 123.71 169.949C121.479 167.313 114.786 159.403 114.786 159.403Z" fill="white"/>
</svg>
