<svg width="113" height="113" viewBox="0 0 113 113" fill="none" xmlns="http://www.w3.org/2000/svg">
<path d="M91.1504 0H21.8496C9.79922 0 0 9.79539 0 21.8411V44.9176V91.1589C0 103.205 9.79922 113 21.8496 113H91.1504C103.201 113 113 103.205 113 91.1589V44.8735V21.797C112.956 9.79539 103.157 0 91.1504 0ZM97.4184 13.0164H99.9344V15.4873V32.166L80.8215 32.2101L80.7773 13.0605L97.4184 13.0164ZM40.3445 44.8735C43.9641 39.8876 49.8348 36.5783 56.4559 36.5783C63.077 36.5783 68.9477 39.8434 72.5672 44.8735C74.9508 48.1386 76.3191 52.1539 76.3191 56.4779C76.3191 67.4205 67.4027 76.3776 56.4117 76.3776C45.4207 76.3776 36.5926 67.4205 36.5926 56.4779C36.5926 52.1539 38.0051 48.1386 40.3445 44.8735ZM101.965 91.1148C101.965 97.0715 97.1094 101.925 91.1504 101.925H21.8496C15.8906 101.925 11.0352 97.0715 11.0352 91.1148V44.8735H27.8969C26.4402 48.4475 25.6016 52.3745 25.6016 56.4779C25.6016 73.5096 39.4617 87.3643 56.5 87.3643C73.5383 87.3643 87.3984 73.5096 87.3984 56.4779C87.3984 52.3745 86.5598 48.4475 85.1031 44.8735H101.965V91.1148Z" fill="white"/>
</svg>
