<svg width="124" height="113" viewBox="0 0 124 113" fill="none" xmlns="http://www.w3.org/2000/svg">
<path d="M27.2683 36.2407H3.18359V113H27.2683V36.2407Z" fill="white"/>
<path d="M14.7211 0C5.84018 0 0 5.7197 0 13.3139C0 20.7639 5.64711 26.6278 14.3832 26.6278H14.5763C23.6503 26.6278 29.2974 20.7159 29.2491 13.3139C29.0561 5.7197 23.602 0 14.7211 0Z" fill="white"/>
<path d="M93.055 35.5198C79.251 35.5198 70.6114 43.0179 69.0186 48.305V36.2407H41.9414C42.2793 42.6333 41.9414 113 41.9414 113H69.0186V71.5202C69.0186 69.165 68.9221 66.8579 69.5978 65.2237C71.4319 60.6095 75.438 55.8031 82.6296 55.8031C92.0414 55.8031 96.2888 62.9166 96.2888 73.2986V113H123.607V70.3186C123.607 46.5747 110.189 35.5198 93.055 35.5198Z" fill="white"/>
</svg>
