<svg width="137" height="137" viewBox="0 0 137 137" fill="none" xmlns="http://www.w3.org/2000/svg">
<path d="M68.5267 0C30.6764 0 0 30.6525 0 68.4733C0 96.5045 16.864 120.577 41.009 131.169C40.7948 126.408 40.9554 120.631 42.1868 115.442C43.5252 109.878 51.0203 78.1558 51.0203 78.1558C51.0203 78.1558 48.8253 73.7692 48.8253 67.3499C48.8253 57.1859 54.7143 49.6431 62.0488 49.6431C68.259 49.6431 71.3106 54.2972 71.3106 59.9141C71.3106 66.173 67.2954 75.5346 65.261 84.2007C63.5478 91.476 68.9015 97.3604 76.0754 97.3604C89.0848 97.3604 97.8112 80.7236 97.8112 60.984C97.8112 46.0055 87.6928 34.7716 69.2762 34.7716C48.5041 34.7716 35.5482 50.2315 35.5482 67.5638C35.5482 73.5553 37.3149 77.7278 40.0453 80.991C41.3302 82.4889 41.4908 83.0773 41.009 84.7892C40.6878 86.0195 39.9382 89.0687 39.617 90.2991C39.1352 92.0109 37.7432 92.6529 36.1907 92.0109C26.6076 88.1058 22.1641 77.6209 22.1641 65.852C22.1641 46.3799 38.5998 23.0562 71.15 23.0562C97.3294 23.0562 114.515 41.9934 114.515 62.2679C114.515 89.1222 99.5779 109.183 77.5209 109.183C70.1328 109.183 63.1731 105.171 60.7639 100.677C60.7639 100.677 56.8022 116.458 55.9457 119.507C54.5002 124.803 51.6627 130.046 49.0394 134.165C55.1961 135.984 61.7276 137 68.4732 137C106.324 137 137 106.348 137 68.5268C137.053 30.6525 106.377 0 68.5267 0Z" fill="white"/>
</svg>
