<svg width="20" height="25" viewBox="0 0 20 25" fill="none" xmlns="http://www.w3.org/2000/svg">
<path d="M9.04068 6.45301H17.4897C17.7489 6.45301 17.959 6.17886 17.959 5.84076C17.959 5.50266 17.7489 5.22852 17.4897 5.22852H9.04068C8.78147 5.22852 8.57129 5.50266 8.57129 5.84076C8.57129 6.17886 8.78147 6.45301 9.04068 6.45301Z" fill="#F8F8F8"/>
<path d="M9.04068 11.453H17.4897C17.7489 11.453 17.959 11.1789 17.959 10.8408C17.959 10.5027 17.7489 10.2285 17.4897 10.2285H9.04068C8.78147 10.2285 8.57129 10.5027 8.57129 10.8408C8.57129 11.1789 8.78147 11.453 9.04068 11.453Z" fill="#F8F8F8"/>
<path d="M9.04068 16.453H17.4897C17.7489 16.453 17.959 16.1789 17.959 15.8408C17.959 15.5027 17.7489 15.2285 17.4897 15.2285H9.04068C8.78147 15.2285 8.57129 15.5027 8.57129 15.8408C8.57129 16.1789 8.78147 16.453 9.04068 16.453Z" fill="#F8F8F8"/>
<path d="M9.04068 21.453H17.4897C17.7489 21.453 17.959 21.1789 17.959 20.8408C17.959 20.5027 17.7489 20.2285 17.4897 20.2285H9.04068C8.78147 20.2285 8.57129 20.5027 8.57129 20.8408C8.57129 21.1789 8.78147 21.453 9.04068 21.453Z" fill="#F8F8F8"/>
<path d="M19.5499 0.738287H4.54992C4.42918 0.737667 4.3129 0.785838 4.22727 0.872672L0.136364 5.04061C0.0507325 5.12599 0.00162078 5.2426 0 5.36478V24.3568C0 24.4796 0.0478899 24.5975 0.133117 24.6843C0.218343 24.7711 0.33401 24.8199 0.454545 24.8199H19.5455C19.666 24.8199 19.7815 24.7711 19.8669 24.6843C19.9521 24.5975 20 24.4796 20 24.3568V1.20161C20 0.947727 19.7991 0.740986 19.5499 0.738504V0.738287ZM19.0954 23.8935H0.913553V5.56833L4.74535 1.66439H19.0955L19.0954 23.8935Z" fill="#F8F8F8"/>
<path d="M3.67383 4.47038V6.80274C3.67383 6.92644 3.72297 7.04514 3.81044 7.1326C3.8979 7.22006 4.0166 7.26921 4.1403 7.26921H6.47266C6.59636 7.26921 6.71506 7.22007 6.80252 7.1326C6.88999 7.04514 6.93913 6.92644 6.93913 6.80274V4.47038C6.93913 4.34668 6.88999 4.22798 6.80252 4.14052C6.71506 4.05305 6.59636 4.00391 6.47266 4.00391H4.1403C3.8827 4.00391 3.67383 4.21278 3.67383 4.47038V4.47038ZM4.60677 4.93685H6.00619V6.33627H4.60677V4.93685Z" fill="#F8F8F8"/>
<path d="M6.47266 9.30957H4.1403C3.8827 9.30957 3.67383 9.51844 3.67383 9.77604V12.1084C3.67383 12.2321 3.72297 12.3508 3.81044 12.4383C3.89811 12.5257 4.0166 12.5749 4.1403 12.5749H6.47266C6.59636 12.5749 6.71506 12.5257 6.80252 12.4383C6.88999 12.3508 6.93913 12.2321 6.93913 12.1084V9.77604C6.93913 9.65234 6.88999 9.53364 6.80252 9.44618C6.71506 9.35872 6.59636 9.30957 6.47266 9.30957ZM6.00619 11.6419H4.60677V10.2425H6.00619V11.6419Z" fill="#F8F8F8"/>
<path d="M6.47266 14.208H4.1403C3.8827 14.208 3.67383 14.4169 3.67383 14.6745V17.0068C3.67383 17.1305 3.72297 17.2492 3.81044 17.3367C3.89811 17.4242 4.0166 17.4733 4.1403 17.4733H6.47266C6.59636 17.4733 6.71506 17.4242 6.80252 17.3367C6.88999 17.2492 6.93913 17.1305 6.93913 17.0068V14.6745C6.93913 14.5508 6.88999 14.4321 6.80252 14.3446C6.71506 14.2572 6.59636 14.208 6.47266 14.208ZM6.00619 16.5404H4.60677V15.141H6.00619V16.5404Z" fill="#F8F8F8"/>
<path d="M6.47266 19.5137H4.1403C3.8827 19.5137 3.67383 19.7225 3.67383 19.9801V22.3125C3.67383 22.4362 3.72297 22.5549 3.81044 22.6424C3.89811 22.7298 4.0166 22.779 4.1403 22.779H6.47266C6.59636 22.779 6.71506 22.7298 6.80252 22.6424C6.88999 22.5549 6.93913 22.4362 6.93913 22.3125V19.9801C6.93913 19.8564 6.88999 19.7377 6.80252 19.6503C6.71506 19.5628 6.59636 19.5137 6.47266 19.5137ZM6.00619 21.846H4.60677V20.4466H6.00619V21.846Z" fill="#F8F8F8"/>
</svg>
