<svg width="20" height="21" viewBox="0 0 20 21" fill="none" xmlns="http://www.w3.org/2000/svg">
<path d="M14.8917 1.4414C16.1166 2.69434 15.6454 4.52129 13.8209 5.47633C13.258 5.77102 12.6565 5.96749 12.0187 6.06659L18.6667 6.06584C19.403 6.06584 20 6.66478 20 7.40343V10.0786C20 10.5784 19.7268 11.0142 19.322 11.2438C19.3296 11.2997 19.3333 11.3575 19.3333 11.4162V19.4417C19.3333 20.1804 18.7363 20.7793 18 20.7793H2C1.26369 20.7793 0.666664 20.1804 0.666664 19.4417V11.4162C0.666664 11.3575 0.670385 11.2997 0.677676 11.2432C0.273219 11.0142 0 10.5784 0 10.0786V7.40341C0 6.66475 0.597028 6.06582 1.33333 6.06582L7.95924 6.06642C7.3216 5.96729 6.72027 5.77083 6.15729 5.47631C4.33288 4.5212 3.86175 2.69424 5.08663 1.44138C6.14065 0.362942 7.85836 0.692715 8.8579 1.77742C9.20284 2.15183 9.57486 2.78642 9.98914 3.69648C10.4036 2.78646 10.7755 2.15183 11.1205 1.77742C12.1199 0.692715 13.8376 0.362942 14.8918 1.44138L14.8917 1.4414ZM9.33326 11.416L1.99993 11.4164V19.442H9.33326V11.416ZM17.9999 11.4164L10.6666 11.416V19.4419H17.9999V11.4164ZM9.33326 7.40329L1.33326 7.40373V10.0789L9.33326 10.0785V7.40329ZM18.6666 7.40373L10.6666 7.40329V10.0785L18.6666 10.0789V7.40373ZM12.0994 2.68549C11.8464 2.96017 11.5174 3.54177 11.1299 4.41331L10.9602 4.80457C11.7906 4.81263 12.5358 4.64036 13.204 4.29059C14.2869 3.72376 14.4891 2.94001 13.9397 2.37796C13.5059 1.9343 12.6382 2.10089 12.0993 2.68549L12.0994 2.68549ZM6.0384 2.37796C5.48899 2.94002 5.69108 3.72377 6.77398 4.2906C7.38141 4.60857 8.05253 4.77996 8.79349 4.80236L9.01789 4.8046L8.84825 4.41334C8.46074 3.5418 8.13171 2.96022 7.87861 2.68552C7.33991 2.10091 6.47221 1.93433 6.03842 2.37799L6.0384 2.37796Z" fill="white"/>
</svg>
