<svg width="99" height="113" viewBox="0 0 99 113" fill="none" xmlns="http://www.w3.org/2000/svg">
<path d="M86.6714 24.1667C85.9005 23.7725 85.15 23.3404 84.4227 22.8719C82.3079 21.4888 80.3689 19.8591 78.6475 18.0179C74.3405 13.1427 72.7319 8.1968 72.1394 4.73399H72.1632C71.6682 1.8597 71.8729 0 71.9038 0H52.2866V75.0424C52.2866 76.0499 52.2866 77.0457 52.2438 78.0297C52.2438 78.1521 52.2319 78.2651 52.2247 78.3969C52.2247 78.451 52.2247 78.5075 52.2128 78.564C52.2128 78.5782 52.2128 78.5923 52.2128 78.6064C52.0061 81.2989 51.1336 83.8999 49.6722 86.1805C48.2108 88.4612 46.2053 90.3516 43.832 91.6855C41.3585 93.0776 38.561 93.8078 35.7153 93.8042C26.5753 93.8042 19.1677 86.4313 19.1677 77.3258C19.1677 68.2204 26.5753 60.8475 35.7153 60.8475C37.4454 60.8459 39.1649 61.1152 40.8099 61.6455L40.8337 41.8856C35.8399 41.2474 30.7665 41.6401 25.9337 43.0387C21.1009 44.4373 16.6136 46.8116 12.7548 50.0118C9.37356 52.9181 6.53096 56.3858 4.35488 60.259C3.52679 61.6714 0.402414 67.347 0.0240619 76.5584C-0.213895 81.7867 1.37328 87.2034 2.12998 89.4421V89.4892C2.6059 90.8074 4.45007 95.306 7.45547 99.0984C9.87891 102.14 12.7421 104.813 15.9529 107.029V106.982L16.0005 107.029C25.4974 113.413 36.027 112.994 36.027 112.994C37.8497 112.921 43.9557 112.994 50.8898 109.743C58.5806 106.139 62.959 100.77 62.959 100.77C65.7562 97.5614 67.9803 93.9051 69.5361 89.9576C71.3113 85.3413 71.9038 79.8046 71.9038 77.5918V37.7801C72.1418 37.9214 75.3114 39.9953 75.3114 39.9953C75.3114 39.9953 79.8778 42.8908 87.0022 44.7764C92.1135 46.1182 99 46.4007 99 46.4007V27.1351C96.5871 27.3941 91.6876 26.6408 86.6714 24.1667Z" fill="white"/>
</svg>
