<svg width="294" height="226" viewBox="0 0 52 40" fill="none" xmlns="http://www.w3.org/2000/svg">
    <path d="M46.4583 9.9579C46.4895 10.3919 46.4895 10.8258 46.4895 11.2638C46.4895 24.609 35.923 40 16.6015 40V39.992C10.8939 40 5.30487 38.4281 0.5 35.4643C1.32993 35.5603 2.16403 35.6083 3.0002 35.6103C7.73019 35.6143 12.325 34.0884 16.0462 31.2785C11.5512 31.1966 7.60955 28.3787 6.23257 24.265C7.80715 24.557 9.42958 24.497 10.975 24.091C6.07449 23.1391 2.54883 18.9993 2.54883 14.1916C2.54883 14.1476 2.54883 14.1056 2.54883 14.0636C4.00901 14.8456 5.64392 15.2796 7.31627 15.3276C2.70067 12.3617 1.27793 6.45812 4.06518 1.84241C9.39838 8.15201 17.2671 11.9878 25.7142 12.3937C24.8676 8.88596 26.0241 5.2102 28.7531 2.74435C32.9839 -1.07941 39.6379 -0.883419 43.6149 3.18232C45.9674 2.73635 48.2222 1.9064 50.2856 0.730479C49.5014 3.06833 47.8603 5.05421 45.6679 6.31613C47.75 6.08014 49.7843 5.54418 51.7 4.72623C50.2897 6.7581 48.5134 8.52799 46.4583 9.9579Z"
          fill="white"/>
</svg>
