<svg width="41" height="40" viewBox="0 0 41 40" fill="none" xmlns="http://www.w3.org/2000/svg">
    <path d="M20.0333 40C9.00333 40 0.0333252 31.03 0.0333252 20C0.0333252 8.97 9.00333 0 20.0333 0C31.0633 0 40.0333 8.97 40.0333 20C40.0333 31.03 31.0633 40 20.0333 40ZM35.4055 28.0029H27.6426C27.3 30.0891 26.8301 31.9979 26.2414 33.6441C25.8402 34.7691 25.3826 35.7641 24.8689 36.6391C29.4515 35.3129 33.2426 32.158 35.4055 28.0029ZM25.6033 20C25.6033 18.1275 25.4722 16.3599 25.2858 14.6663H15.2622C15.0758 16.3599 14.9447 18.1275 14.9447 20C14.9447 21.8739 15.0747 23.6426 15.2622 25.3362H25.2858C25.4744 23.6426 25.6033 21.8739 25.6033 20ZM18.6945 36.3386C19.3095 37.0674 19.8008 37.3048 20.2071 37.326C20.2685 37.326 20.3271 37.3174 20.3871 37.316C20.7833 37.2761 21.2682 37.0322 21.8533 36.3397C22.497 35.5785 23.1669 34.3372 23.7333 32.7485C24.2171 31.396 24.6194 29.7833 24.9319 28.0035H15.6134C15.9259 29.7836 16.331 31.396 16.8134 32.7485C17.3821 34.3361 18.052 35.576 18.6945 36.3386ZM15.762 36.7836C15.2107 35.8748 14.7283 34.8299 14.3033 33.6424C13.7157 31.9973 13.2445 30.0874 12.9021 28.0012L4.65854 28.0009C6.90854 32.326 10.926 35.5608 15.762 36.7836ZM2.69918 20C2.69918 21.8639 2.99913 23.6552 3.5404 25.3362H12.5454C12.3716 23.6387 12.2753 21.8513 12.2753 20C12.2753 18.1487 12.3716 16.3664 12.5454 14.6663H3.5404C2.9991 16.3474 2.69918 18.1362 2.69918 20ZM4.6604 11.9972H12.9025C13.2452 9.90846 13.715 7.99604 14.3038 6.34846C14.7276 5.16211 15.2111 4.12103 15.7625 3.21596C10.9276 4.43832 6.91111 7.67447 4.6604 11.9972ZM21.8533 3.66075C21.2721 2.97325 20.7919 2.72939 20.3982 2.68696C20.3332 2.68584 20.2707 2.67692 20.2082 2.67692C19.8019 2.69812 19.3095 2.93305 18.6956 3.66185C18.0519 4.42299 17.3831 5.65685 16.8156 7.24556C16.3332 8.59799 15.9255 10.2143 15.613 11.9981H24.9359C24.6234 10.2143 24.2182 8.59792 23.7347 7.24556C23.1672 5.6557 22.497 4.42332 21.8533 3.66075ZM24.872 3.3608C25.3856 4.2333 25.8396 5.22466 26.242 6.34824C26.8307 7.99581 27.3033 9.90823 27.6457 11.9969H35.4035C33.2412 7.84431 29.4533 4.68723 24.872 3.3608ZM27.9995 14.6658C28.1744 16.3644 28.2707 18.1471 28.2707 19.9995C28.2707 21.8519 28.1744 23.6382 27.9995 25.3357H36.5223C37.0647 23.6544 37.3635 21.8634 37.3635 19.9995C37.3635 18.1357 37.0647 16.3469 36.5223 14.6658H27.9995Z"
          fill="white"/>
</svg>
