<svg width="68" height="52" viewBox="0 0 68 52" fill="none" xmlns="http://www.w3.org/2000/svg">
<path fill-rule="evenodd" clip-rule="evenodd" d="M67.3209 2C67.3209 0.89543 66.4254 0 65.3209 0H2.00034C0.895773 0 0.00034194 0.895433 0.00034194 2V32.5003C0.00034194 32.5004 0.000246866 32.5004 0.00017097 32.5004V32.5004C9.50743e-05 32.5003 0 32.5004 0 32.5005V49.801C0 51.3406 1.66667 52.3029 3 51.5331L17.9826 42.8828C17.9827 42.8828 17.9827 42.8826 17.9826 42.8826V42.8826C17.9825 42.8825 17.9825 42.8822 17.9827 42.8822H65.3209C66.4254 42.8822 67.3209 41.9868 67.3209 40.8822V2Z" fill="white"/>
<circle cx="48.0384" cy="20.4817" r="4.84112" fill="black"/>
<circle cx="19.7376" cy="20.4817" r="4.84112" fill="black"/>
<circle cx="33.888" cy="20.4817" r="4.84112" fill="black"/>
</svg>
