<svg width="16" height="16" viewBox="0 0 16 16" fill="none" xmlns="http://www.w3.org/2000/svg">
<path d="M1.47978 6.14646L4.47629 3.14976C4.65366 2.97237 4.93118 2.9561 5.12693 3.10104L5.18302 3.14936L8.18625 6.14606C8.38173 6.34111 8.38207 6.6577 8.18702 6.85317C8.00971 7.03087 7.73195 7.04731 7.53605 6.90229L7.47992 6.85394L5.33134 4.70937L5.33178 12.5066C5.33178 12.7597 5.14368 12.9689 4.89963 13.002L4.83178 13.0066C4.57865 13.0066 4.36946 12.8185 4.33635 12.5744L4.33178 12.5066L4.33134 4.70804L2.18691 6.85354C2.0094 7.03106 1.73163 7.04721 1.53588 6.90198L1.4798 6.85357C1.30228 6.67606 1.28614 6.39829 1.43137 6.20254L1.47978 6.14646L4.47629 3.14976L1.47978 6.14646ZM11.0994 3.00127L11.1673 2.9967C11.4204 2.9967 11.6296 3.18481 11.6627 3.42886L11.6673 3.4967L11.6667 11.294L13.813 9.1466C13.9904 8.96901 14.2682 8.95276 14.464 9.09791L14.5201 9.1463C14.6977 9.32374 14.7139 9.60151 14.5688 9.79731L14.5204 9.85341L11.5229 12.8534C11.3454 13.031 11.0677 13.0472 10.8719 12.9021L10.8158 12.8537L7.81327 9.8537C7.61793 9.65852 7.61779 9.34194 7.81298 9.1466C7.99041 8.96901 8.26818 8.95276 8.46398 9.09791L8.52008 9.1463L10.6667 11.2914L10.6673 3.4967C10.6673 3.24357 10.8554 3.03438 11.0994 3.00127L11.1673 2.9967L11.0994 3.00127Z" fill="#CFD2CD"/>
</svg>
