<svg width="24" height="24" viewBox="0 0 24 24" fill="none" xmlns="http://www.w3.org/2000/svg">
<path d="M7.21965 8.71259L11.7144 4.21959C11.9805 3.95363 12.3968 3.92923 12.6904 4.14655L12.7745 4.21899L17.2794 8.712C17.5726 9.00444 17.5731 9.47909 17.2805 9.77217C17.0145 10.0386 16.5979 10.0633 16.3041 9.84582L16.2199 9.77333L12.997 6.55794V18.2503C12.997 18.6299 12.7148 18.9435 12.3488 18.9932L12.247 19C11.8673 19 11.5535 18.718 11.5038 18.3521L11.497 18.2503V6.55594L8.28035 9.77273C8.01409 10.0389 7.59743 10.0631 7.30381 9.84535L7.21969 9.77277C6.95341 9.50663 6.92919 9.09016 7.14704 8.79667L7.21965 8.71259Z" fill="#030303"/>
</svg>
