<svg width="13" height="12" viewBox="0 0 13 12" fill="none" xmlns="http://www.w3.org/2000/svg">
<path fill-rule="evenodd" clip-rule="evenodd" d="M7.75 6.62499H7.125V5.99999C7.125 5.65624 6.84375 5.37499 6.5 5.37499C6.15625 5.37499 5.875 5.65624 5.875 5.99999V6.62499H5.25C4.90625 6.62499 4.625 6.90624 4.625 7.24999C4.625 7.59374 4.90625 7.87499 5.25 7.87499H5.875V8.49999C5.875 8.84374 6.15625 9.12499 6.5 9.12499C6.84375 9.12499 7.125 8.84374 7.125 8.49999V7.87499H7.75C8.09375 7.87499 8.375 7.59374 8.375 7.24999C8.375 6.90624 8.09375 6.62499 7.75 6.62499M11.5 9.79274C11.5 9.94149 11.36 10.0627 11.1875 10.0627H1.8125C1.64 10.0627 1.5 9.94149 1.5 9.79274V7.09712V2.20712C1.5 2.05837 1.64 1.93774 1.8125 1.93774H4.39125L6.01625 3.92399C6.135 4.06962 6.3125 4.15399 6.5 4.15399H11.1875C11.36 4.15399 11.5 4.27462 11.5 4.42399V9.79274ZM11.1875 2.90399H6.79625L5.17188 0.917119C5.05313 0.771494 4.875 0.687744 4.68812 0.687744H1.8125C0.95125 0.687744 0.25 1.36899 0.25 2.20712V9.79274C0.25 10.6309 0.95125 11.3127 1.8125 11.3127H11.1875C12.0488 11.3127 12.75 10.6309 12.75 9.79274V4.42399C12.75 3.58524 12.0488 2.90399 11.1875 2.90399V2.90399Z" fill="#1C1C28"/>
</svg>
