<svg width="12" height="10" viewBox="0 0 12 10" fill="none" xmlns="http://www.w3.org/2000/svg">
<path fill-rule="evenodd" clip-rule="evenodd" d="M2 4.99994C2 4.44694 2.448 3.99994 3 3.99994L11 3.99994C11.552 3.99994 12 4.44694 12 4.99994C12 5.55294 11.552 5.99994 11 5.99994L3 5.99994C2.448 5.99994 2 5.55294 2 4.99994Z" fill="#231F20"/>
<path fill-rule="evenodd" clip-rule="evenodd" d="M0.00114371 4.99991C0.00114372 4.79891 0.0621439 4.59791 0.183144 4.42491L2.99714 0.424907C3.31514 -0.0270926 3.93914 -0.136093 4.39014 0.181907C4.84214 0.499907 4.95114 1.12291 4.63314 1.57491L2.23714 4.98091L4.80114 8.39991C5.13414 8.84191 5.04314 9.46891 4.60114 9.79991C4.15914 10.1319 3.53214 10.0419 3.20114 9.59991L0.201144 5.59991C0.068144 5.42291 0.0011437 5.21091 0.00114371 4.99991Z" fill="#231F20"/>
</svg>
