<svg width="11" height="10" viewBox="0 0 11 10" fill="none" xmlns="http://www.w3.org/2000/svg">
<path fill-rule="evenodd" clip-rule="evenodd" d="M9.10385 2.12038L5.43698 5.78601C5.3426 5.64476 5.23448 5.51101 5.11135 5.38851C4.98823 5.26538 4.85448 5.15788 4.71323 5.06538L8.38135 1.39851C8.5726 1.20663 8.91135 1.20601 9.10448 1.39913C9.2001 1.49476 9.25198 1.61976 9.2501 1.76726C9.25198 1.89913 9.19948 2.02413 9.10385 2.12038M3.15385 8.71288L1.76135 8.73851L1.78573 7.34413C1.79885 6.55288 2.45448 5.89663 3.2476 5.88288C3.25635 5.88288 3.26385 5.88226 3.2726 5.88226C3.6376 5.88226 3.97573 6.01976 4.2276 6.27226C4.48573 6.52976 4.62385 6.87726 4.6176 7.25101C4.60448 8.04351 3.9476 8.69913 3.15385 8.71288M10.5001 1.76726C10.5064 1.29476 10.3239 0.849756 9.98823 0.514755C9.32448 -0.148369 8.1601 -0.150245 7.4976 0.514755L3.36448 4.64601C3.3176 4.64351 3.2726 4.63351 3.22573 4.63288C1.76698 4.65913 0.560105 5.86601 0.53573 7.32288L0.500105 9.36413C0.49698 9.53351 0.563855 9.69726 0.68323 9.81663C0.80073 9.93413 0.960105 9.99976 1.1251 9.99976H1.13698L3.17823 9.96288C4.63573 9.93726 5.84198 8.73038 5.86761 7.27226C5.86823 7.22538 5.85823 7.18101 5.85698 7.13351L9.98761 3.00413C10.3239 2.66788 10.5064 2.22288 10.5001 1.76726" fill="black"/>
</svg>
