<svg width="19" height="19" viewBox="0 0 19 19" fill="none" xmlns="http://www.w3.org/2000/svg">
<path fill-rule="evenodd" clip-rule="evenodd" d="M5.54167 12.6666C5.54167 12.2312 5.89792 11.875 6.33333 11.875C6.76875 11.875 7.125 12.2312 7.125 12.6666C7.125 13.1021 6.76875 13.4583 6.33333 13.4583C5.89792 13.4583 5.54167 13.1021 5.54167 12.6666ZM9.5 11.875H12.6667C13.1021 11.875 13.4583 12.2312 13.4583 12.6666C13.4583 13.1021 13.1021 13.4583 12.6667 13.4583H9.5C9.06458 13.4583 8.70833 13.1021 8.70833 12.6666C8.70833 12.2312 9.06458 11.875 9.5 11.875ZM14.25 15.8333H4.75C4.31379 15.8333 3.95833 15.4779 3.95833 15.0416V10.2916H15.0417V15.0416C15.0417 15.4779 14.6862 15.8333 14.25 15.8333M4.75 4.74998H5.54167V5.54165C5.54167 5.97706 5.89792 6.33331 6.33333 6.33331C6.76875 6.33331 7.125 5.97706 7.125 5.54165V4.74998H11.875V5.54165C11.875 5.97706 12.2313 6.33331 12.6667 6.33331C13.1021 6.33331 13.4583 5.97706 13.4583 5.54165V4.74998H14.25C14.6862 4.74998 15.0417 5.10544 15.0417 5.54165V8.70831H3.95833V5.54165C3.95833 5.10544 4.31379 4.74998 4.75 4.74998M14.25 3.16665H13.4583V2.37498C13.4583 1.93956 13.1021 1.58331 12.6667 1.58331C12.2313 1.58331 11.875 1.93956 11.875 2.37498V3.16665H7.125V2.37498C7.125 1.93956 6.76875 1.58331 6.33333 1.58331C5.89792 1.58331 5.54167 1.93956 5.54167 2.37498V3.16665H4.75C3.44058 3.16665 2.375 4.23223 2.375 5.54165V15.0416C2.375 16.3511 3.44058 17.4166 4.75 17.4166H14.25C15.5594 17.4166 16.625 16.3511 16.625 15.0416V5.54165C16.625 4.23223 15.5594 3.16665 14.25 3.16665" fill="#1C1C28"/>
</svg>
