<svg width="21" height="22" viewBox="0 0 21 22" fill="none" xmlns="http://www.w3.org/2000/svg">
<path fill-rule="evenodd" clip-rule="evenodd" d="M10.5 14.0625C9.77637 14.0625 9.1875 13.4736 9.1875 12.75C9.1875 12.0264 9.77637 11.4375 10.5 11.4375C11.2236 11.4375 11.8125 12.0264 11.8125 12.75C11.8125 13.4736 11.2236 14.0625 10.5 14.0625ZM10.5 9.6875C8.81125 9.6875 7.4375 11.0613 7.4375 12.75C7.4375 14.4388 8.81125 15.8125 10.5 15.8125C12.1888 15.8125 13.5625 14.4388 13.5625 12.75C13.5625 11.0613 12.1888 9.6875 10.5 9.6875ZM17.5 16.25C17.5 16.7321 17.108 17.125 16.625 17.125H4.375C3.892 17.125 3.5 16.7321 3.5 16.25V9.25C3.5 8.76788 3.892 8.375 4.375 8.375H16.625C17.108 8.375 17.5 8.76788 17.5 9.25V16.25ZM8.75 5.3125C8.75 5.071 8.94688 4.875 9.1875 4.875H11.8125C12.0531 4.875 12.25 5.071 12.25 5.3125V6.625H8.75V5.3125ZM16.625 6.625H14V5.3125C14 4.10675 13.0191 3.125 11.8125 3.125H9.1875C7.98088 3.125 7 4.10675 7 5.3125V6.625H4.375C2.92775 6.625 1.75 7.80275 1.75 9.25V16.25C1.75 17.6973 2.92775 18.875 4.375 18.875H16.625C18.0723 18.875 19.25 17.6973 19.25 16.25V9.25C19.25 7.80275 18.0723 6.625 16.625 6.625Z"/>
</svg>
