<svg width="20" height="20" viewBox="0 0 20 20" fill="none" xmlns="http://www.w3.org/2000/svg">
<rect width="20" height="20" rx="2.5" fill="url(#paint0_linear_1820_8618)"/>
<path fill-rule="evenodd" clip-rule="evenodd" d="M9.33594 12H6.66927C6.3026 12 6.0026 11.7 6.0026 11.3333C6.0026 10.9666 6.3026 10.6666 6.66927 10.6666H9.33594C9.7026 10.6666 10.0026 10.9666 10.0026 11.3333C10.0026 11.7 9.7026 12 9.33594 12ZM13.3359 12H12.0026C11.6359 12 11.3359 11.7 11.3359 11.3333C11.3359 10.9666 11.6359 10.6666 12.0026 10.6666H13.3359C13.7026 10.6666 14.0026 10.9666 14.0026 11.3333C14.0026 11.7 13.7026 12 13.3359 12ZM15.3359 12.6666C15.3359 13.034 15.0373 13.3333 14.6693 13.3333H5.33594C4.96794 13.3333 4.66927 13.034 4.66927 12.6666V9.33331H15.3359V12.6666ZM4.66927 7.33331C4.66927 6.96598 4.96794 6.66665 5.33594 6.66665H14.6693C15.0373 6.66665 15.3359 6.96598 15.3359 7.33331V7.99998H4.66927V7.33331ZM14.6693 5.33331H5.33594C4.23327 5.33331 3.33594 6.23065 3.33594 7.33331V12.6666C3.33594 13.7693 4.23327 14.6666 5.33594 14.6666H14.6693C15.7719 14.6666 16.6693 13.7693 16.6693 12.6666V7.33331C16.6693 6.23065 15.7719 5.33331 14.6693 5.33331Z" fill="white"/>
<defs>
<linearGradient id="paint0_linear_1820_8618" x1="-6.46018" y1="6.87151" x2="7.28284" y2="26.8715" gradientUnits="userSpaceOnUse">
<stop stop-color="#FDDD48"/>
<stop offset="1" stop-color="#00B7C4"/>
</linearGradient>
</defs>
</svg>
