<svg width="11" height="15" viewBox="0 0 11 15" fill="none" xmlns="http://www.w3.org/2000/svg">
<path fill-rule="evenodd" clip-rule="evenodd" d="M8.23725 7.49777L2.8125 3.0169L2.8125 11.8965L8.23725 7.49777ZM2.763 0.748899C3.29288 0.748899 3.81488 0.925524 4.22888 1.26752L9.96638 6.00827C10.4243 6.38627 10.6875 6.93077 10.6875 7.50002C10.6875 8.06927 10.4243 8.61377 9.96638 8.99177L4.22887 13.7314C3.54487 14.2984 2.5695 14.412 1.74375 14.0239C1.01588 13.6796 0.5625 12.9968 0.5625 12.2396L0.562501 2.7604C0.562501 2.00327 1.01588 1.3204 1.74375 0.976149C2.06888 0.823149 2.41763 0.748899 2.763 0.748899V0.748899Z"/>
</svg>
