<svg width="38" height="36" viewBox="0 0 38 36" fill="none" xmlns="http://www.w3.org/2000/svg">
<path fill-rule="evenodd" clip-rule="evenodd" d="M33.4163 32.375C33.4163 33.9639 32.1283 35.25 30.5413 35.25C28.9543 35.25 27.6663 33.9639 27.6663 32.375C27.6663 30.7861 28.9543 29.5 30.5413 29.5C32.1283 29.5 33.4163 30.7861 33.4163 32.375V32.375ZM14.2497 32.375C14.2497 33.9639 12.9617 35.25 11.3747 35.25C9.78767 35.25 8.49967 33.9639 8.49967 32.375C8.49967 30.7861 9.78767 29.5 11.3747 29.5C12.9617 29.5 14.2497 30.7861 14.2497 32.375V32.375ZM28.3985 21.8333H13.7973L10.6598 10.3333H34.1485L28.3985 21.8333ZM37.4088 8.317C36.7053 7.1785 35.4863 6.5 34.1485 6.5H9.61517L8.43259 2.16258C8.20451 1.32883 7.44742 0.75 6.58301 0.75H2.74967C1.68976 0.75 0.833008 1.60867 0.833008 2.66667C0.833008 3.72467 1.68976 4.58333 2.74967 4.58333H5.11867L10.4834 24.2541C10.7115 25.0878 11.4686 25.6667 12.333 25.6667H29.583C30.3094 25.6667 30.9726 25.2565 31.2984 24.6067L37.5774 12.0468C38.1754 10.8489 38.1122 9.4555 37.4088 8.317V8.317Z" fill="white"/>
</svg>
