<svg width="20" height="21" viewBox="0 0 20 21" fill="none" xmlns="http://www.w3.org/2000/svg">
<path fill-rule="evenodd" clip-rule="evenodd" d="M12.707 7.793C12.316 7.402 11.684 7.402 11.293 7.793L10 9.086L8.707 7.793C8.316 7.402 7.684 7.402 7.293 7.793C6.902 8.184 6.902 8.816 7.293 9.207L8.586 10.5L7.293 11.793C6.902 12.184 6.902 12.816 7.293 13.207C7.488 13.402 7.744 13.5 8 13.5C8.256 13.5 8.512 13.402 8.707 13.207L10 11.914L11.293 13.207C11.488 13.402 11.744 13.5 12 13.5C12.256 13.5 12.512 13.402 12.707 13.207C13.098 12.816 13.098 12.184 12.707 11.793L11.414 10.5L12.707 9.207C13.098 8.816 13.098 8.184 12.707 7.793ZM10 18.5C5.589 18.5 2 14.911 2 10.5C2 6.089 5.589 2.5 10 2.5C14.411 2.5 18 6.089 18 10.5C18 14.911 14.411 18.5 10 18.5ZM10 0.5C4.486 0.5 0 4.986 0 10.5C0 16.014 4.486 20.5 10 20.5C15.514 20.5 20 16.014 20 10.5C20 4.986 15.514 0.5 10 0.5Z"/>
</svg>
