<svg width="18" height="20" viewBox="0 0 18 20" fill="none" xmlns="http://www.w3.org/2000/svg">
<path fill-rule="evenodd" clip-rule="evenodd" d="M16 17C16 17.552 15.551 18 15 18H3C2.449 18 2 17.552 2 17V6C2 5.448 2.449 5 3 5V6C3 7.103 3.897 8 5 8H13C14.103 8 15 7.103 15 6V5C15.551 5 16 5.448 16 6V17ZM5 2L13 2.003V3V6H5V3V2ZM15 3V2C15 0.897 14.103 0 13 0H5C3.897 0 3 0.897 3 2V3C1.346 3 0 4.346 0 6V17C0 18.654 1.346 20 3 20H15C16.654 20 18 18.654 18 17V6C18 4.346 16.654 3 15 3Z" fill="white"/>
</svg>
