<svg width="21" height="14" viewBox="0 0 21 14" fill="none" xmlns="http://www.w3.org/2000/svg">
<path fill-rule="evenodd" clip-rule="evenodd" d="M9.5 10H5.5C4.95 10 4.5 9.55 4.5 9C4.5 8.45 4.95 8 5.5 8H9.5C10.05 8 10.5 8.45 10.5 9C10.5 9.55 10.05 10 9.5 10ZM15.5 10H13.5C12.95 10 12.5 9.55 12.5 9C12.5 8.45 12.95 8 13.5 8H15.5C16.05 8 16.5 8.45 16.5 9C16.5 9.55 16.05 10 15.5 10ZM18.5 11C18.5 11.551 18.052 12 17.5 12H3.5C2.948 12 2.5 11.551 2.5 11V6H18.5V11ZM2.5 3C2.5 2.449 2.948 2 3.5 2H17.5C18.052 2 18.5 2.449 18.5 3V4H2.5V3ZM17.5 0H3.5C1.846 0 0.5 1.346 0.5 3V11C0.5 12.654 1.846 14 3.5 14H17.5C19.154 14 20.5 12.654 20.5 11V3C20.5 1.346 19.154 0 17.5 0Z"/>
</svg>
