<svg width="20" height="20" viewBox="0 0 20 20" fill="none" xmlns="http://www.w3.org/2000/svg">
<rect width="20" height="20" rx="2.5" fill="url(#paint0_linear_1820_8688)"/>
<path fill-rule="evenodd" clip-rule="evenodd" d="M14.4601 12.642L10.6667 14.4046V9.9273L14.6667 8.0693V12.3593C14.6667 12.4753 14.5881 12.5833 14.4601 12.642ZM5.53539 12.6426C5.40939 12.584 5.33206 12.476 5.33339 12.3546V8.0693L9.33339 9.9273V14.406L5.53539 12.6426ZM9.80472 5.37596C9.86539 5.3473 9.93272 5.3333 10.0001 5.3333C10.0667 5.3333 10.1341 5.3473 10.1947 5.37596L13.7474 7.0253L10.0001 8.76663L6.25205 7.0253L9.80472 5.37596ZM15.7707 6.8393C15.7687 6.83396 15.7694 6.82796 15.7667 6.82263C15.7647 6.8173 15.7594 6.81396 15.7561 6.80863C15.7254 6.75796 15.6881 6.7133 15.6527 6.66663C15.6321 6.64396 15.6154 6.61863 15.5927 6.5993C15.4361 6.4153 15.2514 6.2533 15.0221 6.1473L10.7554 4.1653C10.7547 4.1653 10.7541 4.1653 10.7541 4.16463C10.2747 3.9433 9.72472 3.94396 9.24405 4.1653L4.97939 6.14663C4.75006 6.25263 4.56472 6.41396 4.40806 6.59796C4.38339 6.61863 4.36539 6.64663 4.34339 6.6713C4.30872 6.71596 4.27339 6.7593 4.24406 6.8073C4.24072 6.8133 4.23539 6.8173 4.23272 6.82263C4.23006 6.82863 4.23072 6.83463 4.22806 6.84063C4.08739 7.08196 4.00006 7.3533 4.00006 7.63863V12.35C3.99472 12.9833 4.37606 13.5726 4.97206 13.8513L9.23805 15.8326C9.47939 15.9453 9.73806 16.0013 9.99739 16.0013C10.2561 16.0013 10.5147 15.9453 10.7554 15.8333L15.0201 13.852C15.6147 13.5773 15.9994 12.992 16.0001 12.36V7.63796C15.9994 7.35263 15.9121 7.0813 15.7707 6.8393Z" fill="white"/>
<defs>
<linearGradient id="paint0_linear_1820_8688" x1="-6.46018" y1="6.46018" x2="6.46018" y2="26.4602" gradientUnits="userSpaceOnUse">
<stop stop-color="#00CFDE"/>
<stop offset="1" stop-color="#05A660"/>
</linearGradient>
</defs>
</svg>
