<svg width="20" height="20" viewBox="0 0 20 20" fill="none" xmlns="http://www.w3.org/2000/svg">
<rect width="20" height="20" rx="2.5" fill="url(#paint0_linear_1820_8628)"/>
<path fill-rule="evenodd" clip-rule="evenodd" d="M14.6693 15.3333L5.33594 15.3333C4.96927 15.3333 4.66927 15.0333 4.66927 14.6666L4.66927 13.3333C4.66927 12.9666 4.96927 12.6666 5.33594 12.6666C5.7026 12.6666 6.0026 12.9666 6.0026 13.3333L6.0026 14L14.0026 14L14.0026 13.3333C14.0026 12.9666 14.3026 12.6666 14.6693 12.6666C15.0359 12.6666 15.3359 12.9666 15.3359 13.3333L15.3359 14.6666C15.3359 15.0333 15.0359 15.3333 14.6693 15.3333ZM12.6686 8.66665C12.8719 8.66665 13.0713 8.75865 13.2026 8.93331C13.4239 9.22798 13.3639 9.64598 13.0693 9.86665L10.4026 11.8666C10.1719 12.04 9.8546 12.0446 9.61927 11.8786L6.9526 10.0026C6.65127 9.79065 6.57861 9.37465 6.79061 9.07398C7.00261 8.77331 7.41794 8.69998 7.71927 8.91198L9.33783 10.0506C9.33658 10.0339 9.33594 10.017 9.33594 9.99998L9.33594 4.66665C9.33594 4.29865 9.63394 3.99998 10.0026 3.99998C10.3713 3.99998 10.6693 4.29865 10.6693 4.66665L10.6693 9.99986L12.2693 8.79998C12.3893 8.70998 12.5293 8.66665 12.6686 8.66665Z" fill="white"/>
<defs>
<linearGradient id="paint0_linear_1820_8628" x1="-6.46018" y1="6.46018" x2="6.46018" y2="26.4602" gradientUnits="userSpaceOnUse">
<stop stop-color="#3E7BFA"/>
<stop offset="1" stop-color="#6600CC"/>
</linearGradient>
</defs>
</svg>
