<svg width="28" height="28" viewBox="0 0 28 28" fill="none" xmlns="http://www.w3.org/2000/svg">
<path fill-rule="evenodd" clip-rule="evenodd" d="M22.1693 23.3334L5.83594 23.3334C5.81165 23.3334 5.78753 23.3326 5.7636 23.3311C5.72371 23.3287 5.68435 23.3242 5.64562 23.3177C5.09364 23.2262 4.66927 22.7436 4.66927 22.1667L4.66927 19.8334C4.66927 19.1917 5.19427 18.6667 5.83593 18.6667C6.4776 18.6667 7.0026 19.1917 7.0026 19.8334L7.0026 21L21.0026 21L21.0026 19.8334C21.0026 19.1917 21.5276 18.6667 22.1693 18.6667C22.8109 18.6667 23.3359 19.1917 23.3359 19.8334L23.3359 22.1667C23.3359 22.8084 22.8109 23.3334 22.1693 23.3334ZM18.6681 11.6667C19.0239 11.6667 19.3728 11.8277 19.6026 12.1334C19.9899 12.649 19.8849 13.3805 19.3693 13.7667L14.7026 17.2667C14.2989 17.57 13.7436 17.5782 13.3318 17.2877L8.66511 14.0047C8.13777 13.6337 8.01061 12.9057 8.38161 12.3795C8.75261 11.8534 9.47944 11.725 10.0068 12.096L12.8392 14.0886C12.8371 14.0594 12.8359 14.0298 12.8359 14L12.8359 4.66671C12.8359 4.02271 13.3574 3.50004 14.0026 3.50004C14.6478 3.50004 15.1693 4.02271 15.1693 4.66671L15.1693 13.9998L17.9693 11.9C18.1793 11.7425 18.4243 11.6667 18.6681 11.6667Z" fill="white"/>
</svg>
