<svg width="13" height="9" viewBox="0 0 13 9" fill="none" xmlns="http://www.w3.org/2000/svg">
<path fill-rule="evenodd" clip-rule="evenodd" d="M6.50003 5.43739C5.98316 5.43739 5.56253 5.01677 5.56253 4.49989C5.56253 3.98302 5.98316 3.56239 6.50003 3.56239C7.01691 3.56239 7.43753 3.98302 7.43753 4.49989C7.43753 5.01677 7.01691 5.43739 6.50003 5.43739M6.50003 2.31239C5.29378 2.31239 4.31253 3.29364 4.31253 4.49989C4.31253 5.70614 5.29378 6.68739 6.50003 6.68739C7.70628 6.68739 8.68753 5.70614 8.68753 4.49989C8.68753 3.29364 7.70628 2.31239 6.50003 2.31239M6.63734 7.62339C3.94609 7.68589 2.19047 5.38402 1.60797 4.49714C2.24922 3.49402 3.86422 1.44027 6.36297 1.37652C9.04359 1.30839 10.8092 3.61589 11.3917 4.50277C10.7511 5.50589 9.13547 7.55964 6.63734 7.62339M12.6673 4.18902C12.2686 3.49402 10.0661 0.0102658 6.33109 0.127141C2.87609 0.214641 0.866719 3.25839 0.332969 4.18902C0.222344 4.38152 0.222344 4.61839 0.332969 4.81089C0.726094 5.49652 2.85109 8.87464 6.51547 8.87464C6.56672 8.87464 6.61797 8.87402 6.66922 8.87277C10.1236 8.78464 12.1336 5.74152 12.6673 4.81089C12.7773 4.61839 12.7773 4.38152 12.6673 4.18902"/>
</svg>
