<svg width="46" height="42" viewBox="0 0 46 42" fill="none" xmlns="http://www.w3.org/2000/svg">
<path fill-rule="evenodd" clip-rule="evenodd" d="M45.2024 22.1194C44.2687 23.7461 42.0727 27.1616 38.6482 30.2846L35.4734 27.1099C37.8584 24.9701 39.5842 22.6166 40.6102 21.0101C38.5132 17.8174 32.1614 9.51038 22.5067 9.75563C21.1567 9.78938 19.8899 10.0009 18.6839 10.3204L15.1289 6.76537C17.3159 5.90137 19.7257 5.32537 22.3919 5.25787C35.8357 4.83712 43.7669 17.3786 45.2024 19.8806C45.5984 20.5736 45.5984 21.4264 45.2024 22.1194V22.1194ZM27.3149 31.6796L30.8699 35.2346C28.6852 36.0986 26.2732 36.6746 23.6092 36.7421C23.4247 36.7466 23.2402 36.7489 23.0557 36.7489C9.86394 36.7489 2.21394 24.5876 0.798688 22.1194C0.400437 21.4264 0.400437 20.5736 0.798688 19.8806C1.73019 18.2539 3.92619 14.8384 7.35069 11.7131L10.5254 14.8901C8.14044 17.0299 6.41694 19.3834 5.38869 20.9899C7.48569 24.1826 13.8082 32.4694 23.4944 32.2444C24.8444 32.2106 26.1112 31.9991 27.3149 31.6796V31.6796ZM22.9994 24.3739C21.1387 24.3739 19.6244 22.8619 19.6244 20.9989C19.6244 20.9426 19.6492 20.8909 19.6514 20.8324L23.1682 24.3491C23.1097 24.3514 23.0579 24.3739 22.9994 24.3739V24.3739ZM6.59019 1.40812C5.71269 0.530625 4.28844 0.530625 3.40869 1.40812C2.53119 2.28787 2.53119 3.71213 3.40869 4.58963L16.0784 17.2594C15.4552 18.4024 15.1244 19.6736 15.1244 20.9989C15.1244 25.3414 18.6592 28.8739 22.9994 28.8739C24.3269 28.8739 25.5982 28.5431 26.7412 27.9221L39.4087 40.5896C39.8497 41.0306 40.4234 41.2489 40.9994 41.2489C41.5754 41.2489 42.1514 41.0306 42.5902 40.5896C43.4699 39.7121 43.4699 38.2879 42.5902 37.4081L6.59019 1.40812Z" fill="#555770"/>
</svg>
