<svg width="25" height="26" viewBox="0 0 25 26" fill="none" xmlns="http://www.w3.org/2000/svg">
<path fill-rule="evenodd" clip-rule="evenodd" d="M9.37208 15.0834H12.4971C13.0721 15.0834 13.5387 14.6167 13.5387 14.0417C13.5387 13.4667 13.0721 13 12.4971 13H9.37208C8.79708 13 8.33042 13.4667 8.33042 14.0417C8.33042 14.6167 8.79708 15.0834 9.37208 15.0834M18.1682 21.3334H6.82552C6.50677 21.3334 6.2474 21.1 6.2474 20.8125V5.18754C6.2474 4.90004 6.50677 4.66671 6.82552 4.66671H12.4974V7.94796C12.4974 9.58546 13.7651 10.9167 15.3245 10.9167H18.7474V20.8125C18.7474 21.1 18.488 21.3334 18.1682 21.3334V21.3334ZM14.5807 5.68546L17.437 8.83337H15.3245C14.9141 8.83337 14.5807 8.4365 14.5807 7.94796V5.68546ZM20.5599 9.17504L14.8891 2.92504C14.6911 2.70733 14.412 2.58337 14.1172 2.58337H6.82552C5.35781 2.58337 4.16406 3.75212 4.16406 5.18754V20.8125C4.16406 22.248 5.35781 23.4167 6.82552 23.4167H18.1682C19.6359 23.4167 20.8307 22.248 20.8307 20.8125V9.87504C20.8307 9.61567 20.7339 9.36671 20.5599 9.17504V9.17504Z" fill="white"/>
</svg>
