<svg width="28" height="28" viewBox="0 0 28 28" fill="none" xmlns="http://www.w3.org/2000/svg">
<path fill-rule="evenodd" clip-rule="evenodd" d="M22.1667 21.2985C22.1667 21.7769 21.777 22.1665 21.2987 22.1665H19.8333V19.8332H22.1667V21.2985ZM5.83333 21.2985V19.8332H8.16667V22.1665H6.70133C6.223 22.1665 5.83333 21.7769 5.83333 21.2985V21.2985ZM6.70133 5.83321H8.16667V8.16654H5.83333V6.70121C5.83333 6.22288 6.223 5.83321 6.70133 5.83321V5.83321ZM22.1667 6.70121V8.16654H19.8333V5.83321H21.2987C21.777 5.83321 22.1667 6.22288 22.1667 6.70121V6.70121ZM19.8333 17.4999H22.1667V15.1665H19.8333V17.4999ZM19.8333 12.8332H22.1667V10.4999H19.8333V12.8332ZM10.5 22.1665H17.5V5.83321H10.5V22.1665ZM5.83333 17.4999H8.16667V15.1665H5.83333V17.4999ZM5.83333 12.8332H8.16667V10.4999H5.83333V12.8332ZM21.2987 3.49988H6.70133C4.93617 3.49988 3.5 4.93721 3.5 6.70121V21.2985C3.5 23.0637 4.93617 24.4999 6.70133 24.4999H21.2987C23.0638 24.4999 24.5 23.0637 24.5 21.2985V6.70121C24.5 4.93721 23.0638 3.49988 21.2987 3.49988V3.49988Z" fill="white"/>
</svg>
