<svg width="19" height="24" viewBox="0 0 19 24" fill="none" xmlns="http://www.w3.org/2000/svg">
<path fill-rule="evenodd" clip-rule="evenodd" d="M4.36895 8.93886C1.82895 11.6876 1.8827 16.0451 4.5302 18.7439C5.8227 20.0651 7.5402 20.7939 9.3702 20.7951H9.37645C11.2102 20.7951 12.9339 20.0664 14.2327 18.7439C16.9277 15.9964 16.9227 11.5276 14.2214 8.78386L10.4889 4.97011C10.1114 8.07261 8.9477 10.7951 6.8752 10.7951C6.2402 10.7951 5.2052 10.5126 4.36895 8.93886V8.93886ZM9.37645 23.2951H9.3677C6.8602 23.2926 4.5077 22.2989 2.74395 20.4926C-0.898551 16.7801 -0.903551 10.7389 2.7327 7.03261L3.96145 5.79011C4.27895 5.47261 4.7402 5.35011 5.17645 5.46386C5.6102 5.58136 5.9477 5.92261 6.0602 6.35761C6.3477 7.46886 6.6902 8.01511 6.87895 8.22261C7.3227 7.75511 8.1252 5.86636 8.1252 2.67011C8.1252 2.48636 8.1252 2.31261 8.1152 2.13886C8.09145 1.77011 8.2327 1.40886 8.5002 1.15386C8.99645 0.682612 9.79145 0.682612 10.2677 1.17261L16.0052 7.03386C19.6552 10.7389 19.6614 16.7801 16.0177 20.4939C14.2439 22.3014 11.8864 23.2951 9.37645 23.2951V23.2951Z" fill="white"/>
</svg>
