<svg width="15" height="15" viewBox="0 0 15 15" fill="none" xmlns="http://www.w3.org/2000/svg">
<path fill-rule="evenodd" clip-rule="evenodd" d="M8.125 11.875H10.9375V9.375H8.125V11.875ZM4.0625 11.875H6.875V9.375H4.0625V11.875ZM3.125 5.75C3.125 5.69812 3.13312 5.65625 3.14125 5.625H5.08938H6.875V8.125H3.14125C3.13312 8.09375 3.125 8.05188 3.125 8V5.75ZM4.375 3.75C4.375 3.405 4.69563 3.125 5.08938 3.125C5.875 3.125 6.35625 3.80625 6.62125 4.375H5.08938C4.69563 4.375 4.375 4.095 4.375 3.75ZM9.91063 3.125C10.3044 3.125 10.625 3.405 10.625 3.75C10.625 4.095 10.3044 4.375 9.91063 4.375H8.375C8.6375 3.80625 9.1175 3.125 9.91063 3.125ZM11.875 5.75V8C11.875 8.05188 11.8669 8.09375 11.8588 8.125H8.125V5.625H9.91063H11.8588C11.8669 5.65625 11.875 5.69812 11.875 5.75ZM12 4.375H11.7544C11.8281 4.17875 11.875 3.97062 11.875 3.75C11.875 2.71625 10.9938 1.875 9.91063 1.875C8.70938 1.875 7.95563 2.62438 7.5 3.37313C7.04437 2.62438 6.29063 1.875 5.08938 1.875C4.00625 1.875 3.125 2.71625 3.125 3.75C3.125 3.97062 3.1725 4.17875 3.24563 4.375H3C2.36937 4.375 1.875 4.97937 1.875 5.75V8C1.875 8.69187 2.275 9.24563 2.8125 9.3525V12.0831C2.8125 12.6575 3.32063 13.125 3.945 13.125H11.0544C11.6794 13.125 12.1875 12.6575 12.1875 12.0831V9.3525C12.725 9.24563 13.125 8.69187 13.125 8V5.75C13.125 4.97937 12.6306 4.375 12 4.375Z"/>
</svg>
