<svg width="10" height="16" viewBox="0 0 10 16" fill="none" xmlns="http://www.w3.org/2000/svg">
<path fill-rule="evenodd" clip-rule="evenodd" d="M2 0C0.896 0 0 0.896 0 2C0 3.104 0.896 4 2 4C3.104 4 4 3.104 4 2C4 0.896 3.104 0 2 0Z" fill="#555770"/>
<path fill-rule="evenodd" clip-rule="evenodd" d="M2 6C0.896 6 0 6.896 0 8C0 9.104 0.896 10 2 10C3.104 10 4 9.104 4 8C4 6.896 3.104 6 2 6Z" fill="#555770"/>
<path fill-rule="evenodd" clip-rule="evenodd" d="M2 12C0.896 12 0 12.896 0 14C0 15.104 0.896 16 2 16C3.104 16 4 15.104 4 14C4 12.896 3.104 12 2 12Z" fill="#555770"/>
<path fill-rule="evenodd" clip-rule="evenodd" d="M8 0C6.896 0 6 0.896 6 2C6 3.104 6.896 4 8 4C9.104 4 10 3.104 10 2C10 0.896 9.104 0 8 0Z" fill="#555770"/>
<path fill-rule="evenodd" clip-rule="evenodd" d="M8 6C6.896 6 6 6.896 6 8C6 9.104 6.896 10 8 10C9.104 10 10 9.104 10 8C10 6.896 9.104 6 8 6Z" fill="#555770"/>
<path fill-rule="evenodd" clip-rule="evenodd" d="M8 12C6.896 12 6 12.896 6 14C6 15.104 6.896 16 8 16C9.104 16 10 15.104 10 14C10 12.896 9.104 12 8 12Z" fill="#555770"/>
</svg>
