<svg width="13" height="13" viewBox="0 0 13 13" fill="none" xmlns="http://www.w3.org/2000/svg">
<path fill-rule="evenodd" clip-rule="evenodd" d="M9 11.4924H10.8687L10.875 6.25741L6.49875 1.7624L2.12875 6.23178L2.125 11.4924H4V7.11741C4 6.77178 4.27937 6.49241 4.625 6.49241H8.375C8.72 6.49241 9 6.77178 9 7.11741V11.4924ZM7.75 11.4924H5.25V7.74241H7.75V11.4924ZM11.765 5.35803L6.94688 0.43053C6.71125 0.189905 6.28875 0.189905 6.05312 0.43053L1.23437 5.35865C1.00625 5.59303 0.875 5.92053 0.875 6.2574V11.4924C0.875 12.1818 1.40438 12.7424 2.055 12.7424H4.625H8.375H10.9444C11.595 12.7424 12.125 12.1818 12.125 11.4924V6.2574C12.125 5.92053 11.9937 5.59303 11.765 5.35803V5.35803Z" fill="black"/>
</svg>
