<svg width="28" height="28" viewBox="0 0 28 28" fill="none" xmlns="http://www.w3.org/2000/svg">
<path fill-rule="evenodd" clip-rule="evenodd" d="M9.33333 11.6667C10.2993 11.6667 11.0833 10.8827 11.0833 9.91667C11.0833 8.95067 10.2993 8.16667 9.33333 8.16667C8.36733 8.16667 7.58333 8.95067 7.58333 9.91667C7.58333 10.8827 8.36733 11.6667 9.33333 11.6667ZM21 22.1667H7.6545L15.827 15.3475C16.114 15.1037 16.6343 15.1048 16.9155 15.3463L22.1667 19.8263V21C22.1667 21.644 21.644 22.1667 21 22.1667ZM7 5.83333H21C21.644 5.83333 22.1667 6.356 22.1667 7V16.758L18.4298 13.5707C17.2748 12.5883 15.4677 12.5883 14.3232 13.5637L5.83333 20.6477V7C5.83333 6.356 6.356 5.83333 7 5.83333ZM21 3.5H7C5.07033 3.5 3.5 5.07033 3.5 7V21C3.5 22.9297 5.07033 24.5 7 24.5H21C22.9297 24.5 24.5 22.9297 24.5 21V7C24.5 5.07033 22.9297 3.5 21 3.5Z" fill="white"/>
</svg>
