<svg width="18" height="18" viewBox="0 0 18 18" fill="none" xmlns="http://www.w3.org/2000/svg">
<path fill-rule="evenodd" clip-rule="evenodd" d="M13.3199 11.655L8.99988 14.1353L4.67988 11.655L5.95038 11.1143L8.62638 12.6503C8.74188 12.717 8.87088 12.75 8.99988 12.75C9.12888 12.75 9.25713 12.717 9.37338 12.6503L12.0494 11.1135L13.3199 11.655ZM8.62638 9.65025C8.74188 9.717 8.87088 9.75 8.99988 9.75C9.12888 9.75 9.25713 9.717 9.37338 9.65025L12.0494 8.1135L13.3199 8.655L8.99988 11.1353L4.67988 8.655L5.95038 8.1135L8.62638 9.65025ZM8.99988 3.81525L13.3199 5.655L8.99988 8.13525L4.67988 5.655L8.99988 3.81525ZM15.7484 8.511C15.7311 8.22675 15.5549 7.977 15.2931 7.86525L13.6791 7.17825L15.3734 6.2055C15.6201 6.0645 15.7649 5.79525 15.7484 5.511C15.7311 5.2275 15.5549 4.977 15.2931 4.86525L9.29313 2.31C9.10563 2.22975 8.89338 2.22975 8.70588 2.31L2.70588 4.86525C2.44413 4.977 2.26788 5.2275 2.25138 5.511C2.23413 5.79525 2.37963 6.0645 2.62638 6.2055L4.31988 7.17825L2.70588 7.86525C2.44413 7.977 2.26788 8.22675 2.25138 8.511C2.23413 8.79525 2.37963 9.0645 2.62638 9.2055L4.31988 10.1783L2.70588 10.8653C2.44413 10.977 2.26788 11.2268 2.25138 11.511C2.23413 11.7953 2.37963 12.0645 2.62638 12.2055L8.62638 15.6503C8.74188 15.717 8.87088 15.75 8.99988 15.75C9.12888 15.75 9.25713 15.717 9.37338 15.6503L15.3734 12.2055C15.6201 12.0645 15.7649 11.7953 15.7484 11.511C15.7311 11.2275 15.5549 10.977 15.2939 10.8653L13.6799 10.1775L15.3734 9.2055C15.6201 9.0645 15.7649 8.79525 15.7484 8.511Z" fill="#555770"/>
</svg>
