<svg width="20" height="20" viewBox="0 0 20 20" fill="none" xmlns="http://www.w3.org/2000/svg">
<rect width="20" height="20" rx="2.5" fill="url(#paint0_linear_1820_8318)"/>
<path fill-rule="evenodd" clip-rule="evenodd" d="M9.72132 5.2748C10.9942 3.99905 13.0481 3.76863 14.4667 4.87813C16.166 6.20697 16.2774 8.68322 14.801 10.1631L13.9709 10.9944C13.7417 11.2242 13.3707 11.2242 13.1414 10.9944C12.9122 10.7651 12.9122 10.3924 13.1414 10.1631L13.9709 9.3313C14.9363 8.36472 14.8838 6.75763 13.8122 5.86047C12.8632 5.06538 11.4387 5.21705 10.5642 6.09322L9.82166 6.83697C9.59299 7.0668 9.22082 7.0668 8.99216 6.83697C8.76291 6.60772 8.76057 6.2373 9.09541 5.90188L9.72132 5.2748ZM10.7514 8.42089L8.4181 10.7542C8.19002 10.9823 8.19002 11.351 8.4181 11.5791C8.53185 11.6928 8.68118 11.75 8.83052 11.75C8.97985 11.75 9.12918 11.6928 9.24293 11.5791L11.5763 9.24573C11.8043 9.01764 11.8043 8.64898 11.5763 8.42089C11.3482 8.19281 10.9795 8.19281 10.7514 8.42089ZM10.1607 13.1479L9.41752 13.8894C8.54194 14.7626 7.11452 14.9131 6.16486 14.1215C5.09211 13.2279 5.03902 11.626 6.00561 10.6618L6.83686 9.83343C7.06611 9.60477 7.06611 9.23377 6.83686 9.00452C6.60761 8.77643 6.23544 8.77643 6.00561 9.00452L5.26186 9.7471C3.99486 11.0106 3.77261 13.0429 4.86811 14.4569C6.19286 16.1679 8.67786 16.2834 10.1607 14.8052L10.9919 13.9769C11.2212 13.7476 11.2212 13.3772 10.9919 13.1479C10.7621 12.9187 10.3905 12.9187 10.1607 13.1479Z" fill="white"/>
<defs>
<linearGradient id="paint0_linear_1820_8318" x1="-6.46018" y1="6.46018" x2="6.46018" y2="26.4602" gradientUnits="userSpaceOnUse">
<stop stop-color="#5B8DEF"/>
<stop offset="1" stop-color="#0063F7"/>
</linearGradient>
</defs>
</svg>
