<svg width="38" height="38" viewBox="0 0 38 38" fill="none" xmlns="http://www.w3.org/2000/svg">
<path fill-rule="evenodd" clip-rule="evenodd" d="M18.0663 4.14885C22.0666 0.139352 28.5218 -0.584815 32.9804 2.90219C38.3209 7.07852 38.6711 14.861 34.0309 19.5122L31.4221 22.1247C30.7016 22.847 29.5356 22.847 28.8151 22.1247C28.0946 21.4042 28.0946 20.2327 28.8151 19.5122L31.4221 16.8979C34.4563 13.86 34.2913 8.80918 30.9234 5.98952C27.9406 3.49068 23.4636 3.96735 20.7154 6.72102L18.3816 9.05852C17.6629 9.78085 16.4933 9.78085 15.7746 9.05852C15.0541 8.33802 15.0468 7.17385 16.0991 6.11969L18.0663 4.14885ZM21.3038 14.0366L13.9704 21.3699C13.2536 22.0867 13.2536 23.2454 13.9704 23.9622C14.3279 24.3197 14.7973 24.4994 15.2666 24.4994C15.7359 24.4994 16.2053 24.3197 16.5628 23.9622L23.8961 16.6289C24.6129 15.9121 24.6129 14.7534 23.8961 14.0366C23.1793 13.3197 22.0206 13.3197 21.3038 14.0366ZM19.4471 28.893L17.1115 31.2231C14.3596 33.9676 9.87347 34.4407 6.8888 31.9528C3.5173 29.1441 3.35047 24.1098 6.3883 21.0793L9.0008 18.476C9.7213 17.7573 9.7213 16.5913 9.0008 15.8708C8.2803 15.154 7.11063 15.154 6.3883 15.8708L4.0508 18.2047C0.0688004 22.1756 -0.6297 28.563 2.8133 33.007C6.9768 38.3841 14.7868 38.7472 19.4471 34.1015L22.0596 31.4981C22.7801 30.7777 22.7801 29.6135 22.0596 28.893C21.3373 28.1725 20.1695 28.1725 19.4471 28.893Z" fill="white"/>
</svg>
