<svg width="12" height="7" viewBox="0 0 12 7" fill="none" xmlns="http://www.w3.org/2000/svg">
<path fill-rule="evenodd" clip-rule="evenodd" d="M0.75 0.583333C0.75 0.261333 1.01133 0 1.33333 0C1.65533 0 1.91667 0.261333 1.91667 0.583333C1.91667 0.905333 1.65533 1.16667 1.33333 1.16667C1.01133 1.16667 0.75 0.905333 0.75 0.583333ZM0.75 3.5C0.75 3.178 1.01133 2.91667 1.33333 2.91667C1.65533 2.91667 1.91667 3.178 1.91667 3.5C1.91667 3.822 1.65533 4.08333 1.33333 4.08333C1.01133 4.08333 0.75 3.822 0.75 3.5ZM1.33333 5.83333C1.01133 5.83333 0.75 6.09467 0.75 6.41667C0.75 6.73867 1.01133 7 1.33333 7C1.65533 7 1.91667 6.73867 1.91667 6.41667C1.91667 6.09467 1.65533 5.83333 1.33333 5.83333ZM3.62904 2.91667H10.7043C11.0047 2.91667 11.2503 3.16225 11.2503 3.46267V3.53733C11.2503 3.83775 11.0047 4.08333 10.7043 4.08333H3.62904C3.32863 4.08333 3.08363 3.83775 3.08363 3.53733V3.46267C3.08363 3.16225 3.32863 2.91667 3.62904 2.91667ZM10.7043 5.83333H3.62904C3.32863 5.83333 3.08363 6.07892 3.08363 6.37933V6.454C3.08363 6.75442 3.32863 7 3.62904 7H10.7043C11.0047 7 11.2503 6.75442 11.2503 6.454V6.37933C11.2503 6.07892 11.0047 5.83333 10.7043 5.83333ZM3.62904 0H10.7043C11.0047 0 11.2503 0.245583 11.2503 0.546V0.620667C11.2503 0.921083 11.0047 1.16667 10.7043 1.16667H3.62904C3.32863 1.16667 3.08363 0.921083 3.08363 0.620667V0.546C3.08363 0.245583 3.32863 0 3.62904 0Z" fill="black"/>
</svg>
