<svg width="20" height="20" viewBox="0 0 20 20" fill="none" xmlns="http://www.w3.org/2000/svg">
<rect width="20" height="20" rx="2.5" fill="url(#paint0_linear_1820_8698)"/>
<path fill-rule="evenodd" clip-rule="evenodd" d="M13.5 13.1279C13.5 13.3329 13.333 13.4999 13.128 13.4999H12.5V12.4999H13.5V13.1279ZM6.5 13.1279V12.4999H7.5V13.4999H6.872C6.667 13.4999 6.5 13.3329 6.5 13.1279ZM6.872 6.49994H7.5V7.49994H6.5V6.87194C6.5 6.66694 6.667 6.49994 6.872 6.49994ZM13.5 6.87194V7.49994H12.5V6.49994H13.128C13.333 6.49994 13.5 6.66694 13.5 6.87194ZM12.5 11.4999H13.5V10.4999H12.5V11.4999ZM12.5 9.49994H13.5V8.49994H12.5V9.49994ZM8.5 13.4999H11.5V6.49994H8.5V13.4999ZM6.5 11.4999H7.5V10.4999H6.5V11.4999ZM6.5 9.49994H7.5V8.49994H6.5V9.49994ZM13.128 5.49994H6.872C6.1155 5.49994 5.5 6.11594 5.5 6.87194V13.1279C5.5 13.8844 6.1155 14.4999 6.872 14.4999H13.128C13.8845 14.4999 14.5 13.8844 14.5 13.1279V6.87194C14.5 6.11594 13.8845 5.49994 13.128 5.49994Z" fill="white"/>
<defs>
<linearGradient id="paint0_linear_1820_8698" x1="-6.46018" y1="6.46018" x2="6.46018" y2="26.4602" gradientUnits="userSpaceOnUse">
<stop stop-color="#FF3B3B"/>
<stop offset="1" stop-color="#6600CC"/>
</linearGradient>
</defs>
</svg>
