<svg width="24" height="24" viewBox="0 0 24 24" fill="none" xmlns="http://www.w3.org/2000/svg">
<path fill-rule="evenodd" clip-rule="evenodd" d="M15.5109 17.0063C14.6879 17.0063 14.0189 16.3373 14.0189 15.5143C14.0189 14.6913 14.6879 14.0223 15.5109 14.0223C16.2319 14.0223 16.8329 14.5343 16.9729 15.2133V15.2143C16.9919 15.3113 17.0029 15.4113 17.0029 15.5143C17.0029 16.3373 16.3339 17.0063 15.5109 17.0063ZM6.53888 19.0003C5.71587 19.0003 5.04688 18.3303 5.04688 17.5073C5.04688 16.6853 5.71587 16.0153 6.53888 16.0153C7.25887 16.0153 7.86088 16.5273 8.00087 17.2063V17.2093C8.02087 17.3053 8.03187 17.4053 8.03187 17.5073C8.03187 18.3303 7.36287 19.0003 6.53888 19.0003ZM18.9499 14.9923V4.00034C18.9499 3.69634 18.8129 3.40934 18.5759 3.21934C18.3389 3.03034 18.0279 2.95834 17.7339 3.02434L8.76188 5.01734C8.30387 5.11934 7.97888 5.52534 7.97888 5.99334V14.3343C7.53788 14.1343 7.05387 14.0153 6.53888 14.0153C4.61388 14.0153 3.04688 15.5823 3.04688 17.5073C3.04688 19.4333 4.61388 21.0003 6.53888 21.0003C8.46488 21.0003 10.0319 19.4333 10.0319 17.5073C10.0319 17.3293 10.0049 17.1573 9.97888 16.9853V6.79634L16.9499 5.24634V12.3403C16.5099 12.1403 16.0259 12.0223 15.5109 12.0223C13.5849 12.0223 12.0189 13.5883 12.0189 15.5143C12.0189 17.4403 13.5849 19.0063 15.5109 19.0063C17.4369 19.0063 19.0029 17.4403 19.0029 15.5143C19.0029 15.3353 18.9769 15.1643 18.9499 14.9923Z" fill="white"/>
</svg>
