<svg width="11" height="10" viewBox="0 0 11 10" fill="none" xmlns="http://www.w3.org/2000/svg">
<path fill-rule="evenodd" clip-rule="evenodd" d="M8.01181 4.17419L6.32744 2.48981L7.54494 1.27169L9.22869 2.95544L8.01181 4.17419ZM3.67493 8.51544L1.81431 8.68481L1.97931 6.83731L5.48993 3.32669L7.17493 5.01169L3.67493 8.51544ZM10.1274 2.08606L10.1268 2.08544L8.41556 0.374187C7.95243 -0.0876881 7.15681 -0.109563 6.71806 0.331062L1.09556 5.95356C0.89181 6.15669 0.76556 6.42669 0.73931 6.71231L0.502435 9.31856C0.486185 9.50294 0.55181 9.68544 0.68306 9.81669C0.801185 9.93481 0.96056 9.99981 1.12493 9.99981C1.14431 9.99981 1.16306 9.99919 1.18181 9.99731L3.78806 9.76044C4.07431 9.73419 4.34368 9.60856 4.54681 9.40544L10.1699 3.78231C10.6249 3.32606 10.6056 2.56481 10.1274 2.08606V2.08606Z" fill="black"/>
</svg>
