<svg width="9" height="11" viewBox="0 0 9 11" fill="none" xmlns="http://www.w3.org/2000/svg">
<path fill-rule="evenodd" clip-rule="evenodd" d="M1.5515 7.43673L3.04 7.30123L5.84 4.49873L4.492 3.15023L1.6835 5.95873L1.5515 7.43673ZM5.162 2.48073L6.5095 3.82823L7.483 2.85323L6.136 1.50623L5.162 2.48073ZM0.646552 8.34273C0.541552 8.23773 0.489052 8.09173 0.502052 7.94373L0.691552 5.85873C0.712552 5.63023 0.813552 5.41473 0.976552 5.25173L5.47455 0.753729C5.82555 0.401229 6.46205 0.418729 6.83255 0.788229L8.20155 2.15723L8.20205 2.15773C8.58455 2.54073 8.60005 3.14973 8.23605 3.51473L3.73755 8.01323C3.57505 8.17573 3.35955 8.27673 3.13055 8.29773L1.04555 8.48723C1.03055 8.48823 1.01555 8.48873 1.00005 8.48873C0.868552 8.48873 0.741052 8.43673 0.646552 8.34273V8.34273ZM8.5 9.98873C8.5 10.2637 8.275 10.4887 8 10.4887H1C0.7255 10.4887 0.5 10.2637 0.5 9.98873C0.5 9.71423 0.7255 9.48873 1 9.48873H8C8.275 9.48873 8.5 9.71423 8.5 9.98873V9.98873Z" fill="white"/>
</svg>
