<svg width="20" height="20" viewBox="0 0 20 20" fill="none" xmlns="http://www.w3.org/2000/svg">
<rect width="20" height="20" rx="2.5" fill="url(#paint0_linear_1820_8607)" fill-opacity="0.9"/>
<path fill-rule="evenodd" clip-rule="evenodd" d="M14.5176 5.48538C14.3152 5.28238 13.9868 5.28238 13.7844 5.48538L5.48819 13.7815C5.38669 13.883 5.33594 14.0155 5.33594 14.1485C5.33594 14.2809 5.38669 14.4139 5.48819 14.5148C5.6906 14.7172 6.01844 14.7172 6.22144 14.5148L14.5176 6.21863C14.72 6.01563 14.72 5.6878 14.5176 5.48538M12.3361 14.0833C11.8537 14.0833 11.4611 13.6907 11.4611 13.2083C11.4611 12.7259 11.8537 12.3333 12.3361 12.3333C12.8185 12.3333 13.2111 12.7259 13.2111 13.2083C13.2111 13.6907 12.8185 14.0833 12.3361 14.0833M12.3361 11.1666C11.2103 11.1666 10.2944 12.0825 10.2944 13.2083C10.2944 14.3341 11.2103 15.25 12.3361 15.25C13.4619 15.25 14.3778 14.3341 14.3778 13.2083C14.3778 12.0825 13.4619 11.1666 12.3361 11.1666M7.66945 6.49997C8.15186 6.49997 8.54445 6.89255 8.54445 7.37497C8.54445 7.85739 8.15186 8.24997 7.66945 8.24997C7.18703 8.24997 6.79445 7.85739 6.79445 7.37497C6.79445 6.89255 7.18703 6.49997 7.66945 6.49997M7.66945 9.41664C8.79528 9.41664 9.71111 8.5008 9.71111 7.37497C9.71111 6.24914 8.79528 5.3333 7.66945 5.3333C6.54361 5.3333 5.62778 6.24914 5.62778 7.37497C5.62778 8.5008 6.54361 9.41664 7.66945 9.41664" fill="white"/>
<defs>
<linearGradient id="paint0_linear_1820_8607" x1="-6.46018" y1="6.87151" x2="7.28284" y2="26.8715" gradientUnits="userSpaceOnUse">
<stop stop-color="#FDED72"/>
<stop offset="1" stop-color="#FF8080"/>
</linearGradient>
</defs>
</svg>
