<svg width="14" height="14" viewBox="0 0 14 14" fill="none" xmlns="http://www.w3.org/2000/svg">
<path fill-rule="evenodd" clip-rule="evenodd" d="M6.66927 8.73305V5.26705L8.54194 6.99971L6.66927 8.73305ZM7.2286 3.96838C6.8966 3.66038 6.41194 3.58038 5.9946 3.76371C5.58794 3.94105 5.33594 4.32038 5.33594 4.75305V9.24705C5.33594 9.67971 5.58794 10.059 5.9946 10.2364C6.14327 10.3017 6.30127 10.333 6.4566 10.333C6.7386 10.333 7.01527 10.2297 7.22794 10.0324L9.65594 7.78571C9.8766 7.58171 10.0026 7.29571 10.0026 6.99971C10.0026 6.70438 9.8766 6.41771 9.65594 6.21438L7.2286 3.96838ZM7.0026 12.3333C4.06194 12.3333 1.66927 9.94065 1.66927 6.99998C1.66927 4.05931 4.06194 1.66665 7.0026 1.66665C9.94327 1.66665 12.3359 4.05931 12.3359 6.99998C12.3359 9.94065 9.94327 12.3333 7.0026 12.3333M7.0026 0.333313C3.3266 0.333313 0.335938 3.32398 0.335938 6.99998C0.335938 10.676 3.3266 13.6666 7.0026 13.6666C10.6786 13.6666 13.6693 10.676 13.6693 6.99998C13.6693 3.32398 10.6786 0.333313 7.0026 0.333313" fill="black"/>
</svg>
