<svg width="28" height="28" viewBox="0 0 28 28" fill="none" xmlns="http://www.w3.org/2000/svg">
<path fill-rule="evenodd" clip-rule="evenodd" d="M16.9141 7.00004H11.0807C10.4356 7.00004 9.91406 7.52154 9.91406 8.16671C9.91406 8.81187 10.4356 9.33337 11.0807 9.33337H16.9141C17.5592 9.33337 18.0807 8.81187 18.0807 8.16671C18.0807 7.52154 17.5592 7.00004 16.9141 7.00004ZM20.9974 22.1667C20.9974 22.8107 20.4747 23.3334 19.8307 23.3334H8.16406C7.52006 23.3334 6.9974 22.8107 6.9974 22.1667V5.83337C6.9974 5.18937 7.52006 4.66671 8.16406 4.66671H19.8307C20.4747 4.66671 20.9974 5.18937 20.9974 5.83337V22.1667ZM19.8307 2.33337H8.16406C6.2344 2.33337 4.66406 3.90371 4.66406 5.83337V22.1667C4.66406 24.0964 6.2344 25.6667 8.16406 25.6667H19.8307C21.7604 25.6667 23.3307 24.0964 23.3307 22.1667V5.83337C23.3307 3.90371 21.7604 2.33337 19.8307 2.33337Z" fill="white"/>
<path fill-rule="evenodd" clip-rule="evenodd" d="M16.9141 7H11.0807C10.4356 7 9.91406 7.5215 9.91406 8.16667C9.91406 8.81183 10.4356 9.33333 11.0807 9.33333H16.9141C17.5592 9.33333 18.0807 8.81183 18.0807 8.16667C18.0807 7.5215 17.5592 7 16.9141 7Z" fill="white"/>
<path fill-rule="evenodd" clip-rule="evenodd" d="M16.9141 12.1333H11.0807C10.4356 12.1333 9.91406 12.6548 9.91406 13.3C9.91406 13.9451 10.4356 14.4666 11.0807 14.4666H16.9141C17.5592 14.4666 18.0807 13.9451 18.0807 13.3C18.0807 12.6548 17.5592 12.1333 16.9141 12.1333Z" fill="white"/>
<path fill-rule="evenodd" clip-rule="evenodd" d="M16.9141 17.7333H11.0807C10.4356 17.7333 9.91406 18.2548 9.91406 18.8999C9.91406 19.5451 10.4356 20.0666 11.0807 20.0666H16.9141C17.5592 20.0666 18.0807 19.5451 18.0807 18.8999C18.0807 18.2548 17.5592 17.7333 16.9141 17.7333Z" fill="white"/>
</svg>
