<svg width="15" height="15" viewBox="0 0 15 15" fill="none" xmlns="http://www.w3.org/2000/svg">
<path fill-rule="evenodd" clip-rule="evenodd" d="M13.5517 6.45378C13.5472 6.46371 13.5427 6.47365 13.5384 6.48375C13.5342 6.49422 13.5308 6.50514 13.5274 6.51603C13.5219 6.53375 13.5165 6.55139 13.5072 6.56687C13.4887 6.59751 13.4645 6.62323 13.4403 6.64904C13.4334 6.6564 13.4265 6.66376 13.4197 6.67125C13.4121 6.67907 13.4054 6.68766 13.3987 6.69623C13.3894 6.70821 13.3801 6.72017 13.3684 6.73C13.3334 6.75859 13.293 6.77846 13.2527 6.79826C13.2498 6.79967 13.2469 6.80109 13.2441 6.8025C13.2355 6.80663 13.2274 6.81183 13.2193 6.81704C13.2078 6.82443 13.1963 6.83185 13.1834 6.83625C13.1159 6.86125 13.0441 6.875 12.9697 6.875C12.9359 6.875 12.9009 6.8725 12.8666 6.86625L10.2103 6.42562C9.86968 6.36938 9.63968 6.0475 9.69593 5.70688C9.75218 5.36687 10.0734 5.13375 10.4147 5.19313L11.4422 5.36312C10.6641 3.99687 9.17843 3.125 7.54343 3.125C5.69406 3.125 4.06468 4.19875 3.39156 5.85938C3.29343 6.10313 3.05906 6.25 2.81218 6.25C2.73406 6.25 2.65468 6.23563 2.57781 6.20438C2.25781 6.075 2.10343 5.71062 2.23343 5.39062C3.09843 3.255 5.18281 1.875 7.54343 1.875C9.67593 1.875 11.6141 3.04375 12.5922 4.8675L12.8228 3.63438C12.8866 3.29563 13.2141 3.07125 13.5522 3.13625C13.8916 3.19937 14.1153 3.52625 14.0516 3.86562L13.5834 6.36562C13.5774 6.39751 13.5646 6.42563 13.5517 6.45378ZM11.6084 9.14075C11.7377 8.82012 12.1027 8.66637 12.4221 8.79575C12.7421 8.92512 12.8965 9.2895 12.7665 9.6095C11.9015 11.7451 9.81712 13.1251 7.4565 13.1251C5.324 13.1251 3.38587 11.9564 2.40775 10.1326L2.1765 11.3651C2.12087 11.6657 1.85837 11.8751 1.56275 11.8751C1.52462 11.8751 1.48587 11.8714 1.44712 11.8639C1.10775 11.8007 0.884621 11.4739 0.948371 11.1345L1.4165 8.6345C1.42125 8.60995 1.43177 8.58816 1.44234 8.56627C1.44845 8.55361 1.45458 8.54091 1.45962 8.52762C1.46456 8.51517 1.46888 8.50228 1.4732 8.48937C1.48255 8.46145 1.49193 8.43343 1.50775 8.4095C1.51697 8.39528 1.52903 8.3839 1.54116 8.37244C1.54876 8.36527 1.55639 8.35807 1.56337 8.35012C1.56888 8.34375 1.57432 8.33733 1.57976 8.33093C1.6095 8.29586 1.63898 8.26112 1.6765 8.23575C1.68018 8.23307 1.68458 8.23147 1.68893 8.22988C1.6927 8.22851 1.69643 8.22716 1.69962 8.22512C1.76025 8.18575 1.82525 8.15512 1.89712 8.1395C1.9015 8.13849 1.90606 8.13875 1.9106 8.13901C1.91449 8.13923 1.91837 8.13945 1.92212 8.13888C1.99087 8.12762 2.06025 8.12075 2.13337 8.13325L4.78962 8.5745C5.13025 8.63013 5.36025 8.95262 5.304 9.29325C5.25337 9.59888 4.98837 9.81575 4.68775 9.81575C4.654 9.81575 4.61962 9.81325 4.58525 9.807L3.55775 9.637C4.33587 11.0033 5.8215 11.8751 7.4565 11.8751C9.30587 11.8751 10.9352 10.8014 11.6084 9.14075Z" fill="white"/>
</svg>
