<svg width="26" height="26" viewBox="0 0 26 26" fill="none" xmlns="http://www.w3.org/2000/svg">
<path fill-rule="evenodd" clip-rule="evenodd" d="M6.4058 5.41665H19.4015C21.5454 5.41665 23.2906 7.13157 23.2906 9.23974V11.9167C23.2906 12.5157 22.8064 13 22.2073 13C21.6082 13 21.124 12.5157 21.124 11.9167V9.23974C21.124 8.32757 20.3516 7.58332 19.4015 7.58332H6.4058L7.80655 8.98407C8.22905 9.40765 8.22905 10.0923 7.80655 10.5159C7.5953 10.7272 7.31797 10.8333 7.04064 10.8333C6.7633 10.8333 6.48597 10.7272 6.27472 10.5159L3.02472 7.2659C2.60114 6.84232 2.60114 6.15765 3.02472 5.73407L6.27472 2.48407C6.69722 2.06049 7.38297 2.06049 7.80655 2.48407C8.22905 2.90765 8.22905 3.59232 7.80655 4.0159L6.4058 5.41665ZM18.1912 15.4841C18.6148 15.0605 19.2994 15.0605 19.723 15.4841L22.973 18.7341C23.3966 19.1577 23.3966 19.8423 22.973 20.2659L19.723 23.5159C19.5118 23.7272 19.2344 23.8333 18.9571 23.8333C18.6798 23.8333 18.4024 23.7272 18.1912 23.5159C17.7676 23.0923 17.7676 22.4077 18.1912 21.9841L19.5919 20.5833H6.59625C4.45125 20.5833 2.70709 18.8684 2.70709 16.7602V14.0833C2.70709 13.4842 3.19242 13 3.79042 13C4.38842 13 4.87375 13.4842 4.87375 14.0833V16.7602C4.87375 17.6735 5.64617 18.4167 6.59625 18.4167H19.5919L18.1912 17.0159C17.7676 16.5923 17.7676 15.9077 18.1912 15.4841Z"/>
</svg>
