<svg width="25" height="25" viewBox="0 0 25 25" fill="none" xmlns="http://www.w3.org/2000/svg">
<path fill-rule="evenodd" clip-rule="evenodd" d="M12.4209 11.4611C12.447 11.4592 12.4734 11.4582 12.5 11.4582L20.8333 11.4582C21.4083 11.4582 21.875 11.9238 21.875 12.4998C21.875 13.0759 21.4083 13.5415 20.8333 13.5415L12.5002 13.5415L14.375 16.0415C14.7219 16.5019 14.6271 17.155 14.1667 17.4998C13.7062 17.8457 13.0531 17.7519 12.7083 17.2915L9.58333 13.1248C9.44479 12.9405 9.375 12.7196 9.375 12.4998C9.375 12.2905 9.43854 12.0811 9.56458 11.9009L12.4958 7.73421C12.8271 7.26338 13.4771 7.14984 13.9469 7.48109C14.4177 7.81234 14.5312 8.46129 14.2 8.93213L12.4209 11.4611ZM7.29166 6.24984L6.25 6.24984L6.25 18.7498L7.29166 18.7498C7.86458 18.7498 8.33333 19.2186 8.33333 19.7915C8.33333 20.3644 7.86458 20.8332 7.29166 20.8332L5.20833 20.8332C4.63541 20.8332 4.16666 20.3644 4.16666 19.7915L4.16666 5.20817C4.16666 4.63525 4.63541 4.1665 5.20833 4.1665L7.29167 4.1665C7.86458 4.1665 8.33333 4.63525 8.33333 5.20817C8.33333 5.78109 7.86458 6.24984 7.29166 6.24984Z" fill="black"/>
<rect x="24" y="1" width="23" height="23" rx="4" transform="rotate(90 24 1)" stroke="black" stroke-width="2"/>
</svg>
