<svg width="22" height="22" viewBox="0 0 22 22" fill="none" xmlns="http://www.w3.org/2000/svg">
<path fill-rule="evenodd" clip-rule="evenodd" d="M14.2513 17.3244L12.2406 11.2935L18.2726 5.26038L14.2513 17.3244ZM16.7408 3.72855L10.7088 9.76055L4.6768 7.74988L16.7408 3.72855ZM21.8238 1.19355C21.8184 1.0928 21.8 0.9953 21.7664 0.90105C21.7556 0.867467 21.7436 0.834966 21.7285 0.802466C21.6765 0.68655 21.6104 0.577133 21.5172 0.483966C21.4241 0.3908 21.3146 0.324716 21.1976 0.272716C21.1662 0.25755 21.1348 0.245633 21.1012 0.2348C21.0048 0.201216 20.9062 0.181716 20.8033 0.1763C20.7795 0.175216 20.7578 0.1698 20.7329 0.1698C20.6246 0.171966 20.5151 0.187133 20.409 0.2218L0.908969 6.7218C0.465885 6.87022 0.167969 7.28297 0.167969 7.74988C0.167969 8.2168 0.465885 8.63063 0.908969 8.77797L10.1444 11.8568L13.2243 21.0933C13.3716 21.5353 13.7844 21.8332 14.2513 21.8332C14.7182 21.8332 15.131 21.5353 15.2783 21.0933L21.7783 1.5933C21.813 1.48605 21.8292 1.37772 21.8303 1.26938C21.8314 1.24338 21.8249 1.21955 21.8238 1.19355V1.19355Z"/>
</svg>
