<svg width="20" height="20" viewBox="0 0 20 20" fill="none" xmlns="http://www.w3.org/2000/svg">
<path fill-rule="evenodd" clip-rule="evenodd" d="M14.9974 15.8332C14.9974 16.2923 14.6241 16.6665 14.1641 16.6665H5.83073C5.37073 16.6665 4.9974 16.2923 4.9974 15.8332V6.6665H14.9974V15.8332ZM8.33073 3.6065C8.33073 3.47734 8.50906 3.33317 8.7474 3.33317H11.2474C11.4857 3.33317 11.6641 3.47734 11.6641 3.6065V4.99984H8.33073V3.6065ZM17.4974 4.99984H16.6641H13.3307V3.6065C13.3307 2.5365 12.3966 1.6665 11.2474 1.6665H8.7474C7.59823 1.6665 6.66406 2.5365 6.66406 3.6065V4.99984H3.33073H2.4974C2.03906 4.99984 1.66406 5.37484 1.66406 5.83317C1.66406 6.2915 2.03906 6.6665 2.4974 6.6665H3.33073V15.8332C3.33073 17.2115 4.4524 18.3332 5.83073 18.3332H14.1641C15.5424 18.3332 16.6641 17.2115 16.6641 15.8332V6.6665H17.4974C17.9557 6.6665 18.3307 6.2915 18.3307 5.83317C18.3307 5.37484 17.9557 4.99984 17.4974 4.99984Z" fill="#1C1C28"/>
</svg>
