<svg width="13" height="14" viewBox="0 0 13 14" fill="none" xmlns="http://www.w3.org/2000/svg">
<path fill-rule="evenodd" clip-rule="evenodd" d="M5.25 9.5C5.25 9.84375 4.96875 10.125 4.625 10.125C4.28125 10.125 4 9.84375 4 9.5V7C4 6.65625 4.28125 6.375 4.625 6.375C4.96875 6.375 5.25 6.65625 5.25 7V9.5ZM9 9.5C9 9.84375 8.71875 10.125 8.375 10.125C8.03125 10.125 7.75 9.84375 7.75 9.5V7C7.75 6.65625 8.03125 6.375 8.375 6.375C8.71875 6.375 9 6.65625 9 7V9.5ZM10.25 11.375C10.25 11.7194 9.97 12 9.625 12H3.375C3.03 12 2.75 11.7194 2.75 11.375V4.5H10.25V11.375ZM5.25 2.205C5.25 2.10813 5.38375 2 5.5625 2H7.4375C7.61625 2 7.75 2.10813 7.75 2.205V3.25H5.25V2.205ZM12.125 3.25H11.5H9V2.205C9 1.4025 8.29937 0.75 7.4375 0.75H5.5625C4.70063 0.75 4 1.4025 4 2.205V3.25H1.5H0.875C0.53125 3.25 0.25 3.53125 0.25 3.875C0.25 4.21875 0.53125 4.5 0.875 4.5H1.5V11.375C1.5 12.4088 2.34125 13.25 3.375 13.25H9.625C10.6588 13.25 11.5 12.4088 11.5 11.375V4.5H12.125C12.4688 4.5 12.75 4.21875 12.75 3.875C12.75 3.53125 12.4688 3.25 12.125 3.25V3.25Z" fill="black"/>
</svg>
