<svg width="66" height="66" viewBox="0 0 66 66" fill="none" xmlns="http://www.w3.org/2000/svg">
<path fill-rule="evenodd" clip-rule="evenodd" d="M33 8.24976C40.0978 8.24976 46.3512 12.8175 48.6063 19.3735C55.3135 20.2838 60.5 26.0478 60.5 32.9998C60.5 36.3575 59.279 39.5888 57.0625 42.0995C56.518 42.7128 55.7617 43.029 55 43.029C54.3537 43.029 53.7048 42.8035 53.1795 42.3415C52.0437 41.3323 51.9338 39.597 52.9402 38.4558C54.2685 36.9543 55 35.0128 55 32.9998C55 28.4513 51.2985 24.7498 46.75 24.7498H46.475C45.166 24.7498 44.0385 23.8258 43.78 22.5415C42.7515 17.4485 38.2195 13.7498 33 13.7498C27.7833 13.7498 23.2485 17.4485 22.2227 22.5415C21.9642 23.8258 20.834 24.7498 19.525 24.7498H19.25C14.7015 24.7498 11 28.4513 11 32.9998C11 35.0128 11.7315 36.9543 13.0625 38.4558C14.0662 39.597 13.959 41.3323 12.8205 42.3415C11.682 43.348 9.944 43.2353 8.94025 42.0995C6.721 39.5888 5.5 36.3575 5.5 32.9998C5.5 26.0478 10.6865 20.2838 17.3937 19.3735C19.6515 12.8175 25.905 8.24976 33 8.24976ZM31.0893 31.02C32.1728 29.986 33.886 29.9943 34.9448 31.0558L43.1948 39.3058C44.2701 40.381 44.2701 42.119 43.1948 43.1943C42.6586 43.7305 41.9545 44 41.2505 44C40.5465 44 39.8425 43.7305 39.3063 43.1943L35.7505 39.6385V55C35.7505 56.5208 34.5185 57.75 33.0005 57.75C31.4825 57.75 30.2505 56.5208 30.2505 55V39.479L26.6618 42.944C25.57 44.0028 23.8293 43.967 22.7733 42.8753C21.7173 41.7808 21.7475 40.0428 22.8393 38.9868L31.0893 31.02Z" fill="#C7C9D9"/>
</svg>
