<svg width="20" height="21" viewBox="0 0 20 21" fill="none" xmlns="http://www.w3.org/2000/svg">
<path fill-rule="evenodd" clip-rule="evenodd" d="M1.83464 0.666626H18.168C18.7695 0.666626 19.2686 1.12805 19.3286 1.71445C19.3326 1.75354 19.3346 1.79319 19.3346 1.83329V4.16663C19.3346 4.80829 18.8096 5.33329 18.168 5.33329C17.5263 5.33329 17.0013 4.80829 17.0013 4.16663V2.99996H3.0013V4.16663C3.0013 4.80829 2.4763 5.33329 1.83464 5.33329C1.19297 5.33329 0.667969 4.80829 0.667969 4.16663V1.83329C0.667969 1.75308 0.676172 1.6747 0.691781 1.59893C0.801042 1.06858 1.27318 0.666626 1.83464 0.666626ZM5.3358 12.3333C4.97997 12.3333 4.63114 12.1723 4.4013 11.8666C4.01397 11.351 4.11897 10.6195 4.63464 10.2333L9.3013 6.73329C9.70497 6.42996 10.2603 6.42179 10.6721 6.71229L15.3388 9.99529C15.8661 10.3663 15.9933 11.0943 15.6223 11.6205C15.2513 12.1466 14.5245 12.275 13.9971 11.904L11.1647 9.91141C11.1669 9.94064 11.168 9.97017 11.168 9.99996V19.3333C11.168 19.9773 10.6465 20.5 10.0013 20.5C9.35614 20.5 8.83463 19.9773 8.83463 19.3333V10.0002L6.03464 12.1C5.82464 12.2575 5.57964 12.3333 5.3358 12.3333Z"/>
</svg>
