<svg width="38" height="26" viewBox="0 0 38 26" fill="none" xmlns="http://www.w3.org/2000/svg">
<path fill-rule="evenodd" clip-rule="evenodd" d="M33.667 17.766L28.5172 12.9993L33.667 8.23452V17.766ZM24.5003 20.3327C24.5003 21.3447 23.679 22.166 22.667 22.166H6.16699C5.15499 22.166 4.33366 21.3447 4.33366 20.3327V5.66602C4.33366 4.65585 5.15499 3.83268 6.16699 3.83268H22.667C23.679 3.83268 24.5003 4.65585 24.5003 5.66602V20.3327ZM35.5223 4.10035C34.3747 3.59985 33.0437 3.81802 32.1288 4.66135L28.167 8.32802V5.66602C28.167 2.63368 25.6993 0.166016 22.667 0.166016H6.16699C3.13466 0.166016 0.666992 2.63368 0.666992 5.66602V20.3327C0.666992 23.3668 3.13466 25.8327 6.16699 25.8327H22.667C25.6993 25.8327 28.167 23.3668 28.167 20.3327V17.6725L32.1288 21.3373C32.7155 21.8818 33.4763 22.166 34.2518 22.166C34.6808 22.166 35.1117 22.0798 35.5223 21.9002C36.6388 21.4125 37.3337 20.3693 37.3337 19.1795V6.82102C37.3337 5.63118 36.6388 4.58802 35.5223 4.10035V4.10035Z" fill="white"/>
</svg>
