<svg width="20" height="17" viewBox="0 0 20 17" fill="none" xmlns="http://www.w3.org/2000/svg">
<path fill-rule="evenodd" clip-rule="evenodd" d="M12.329 16.9997C12.262 16.9997 12.193 16.9967 12.124 16.9897C11.244 16.9027 10.554 16.2817 10.364 15.4067L7.681 3.01469L4.918 9.39669C4.759 9.76269 4.398 9.99969 4 9.99969H1C0.447 9.99969 0 9.55169 0 8.99969C0 8.44669 0.447 7.99969 1 7.99969H3.344L5.85 2.21069C6.205 1.39469 6.987 0.919692 7.876 1.00869C8.756 1.09569 9.446 1.71669 9.636 2.59169L12.319 14.9837L15.082 8.60169C15.241 8.23569 15.601 7.99969 16 7.99969H19C19.553 7.99969 20 8.44669 20 8.99969C20 9.55169 19.553 9.99969 19 9.99969H16.656L14.15 15.7877C13.823 16.5407 13.122 16.9997 12.329 16.9997Z" fill="white"/>
</svg>
