<svg width="22" height="22" viewBox="0 0 22 22" fill="none" xmlns="http://www.w3.org/2000/svg">
<path fill-rule="evenodd" clip-rule="evenodd" d="M18 19.2096H12.1667V8.70964H19.1667V18.043C19.1667 18.687 18.6428 19.2096 18 19.2096M2.83333 18.043V8.70964H9.83333V19.2096H4C3.35717 19.2096 2.83333 18.687 2.83333 18.043M4 2.8763H18C18.6428 2.8763 19.1667 3.39897 19.1667 4.04297V6.3763H2.83333V4.04297C2.83333 3.39897 3.35717 2.8763 4 2.8763M18 0.542969H4C2.07033 0.542969 0.5 2.1133 0.5 4.04297V7.33063V7.7553V18.043C0.5 19.9726 2.07033 21.543 4 21.543H18C19.9297 21.543 21.5 19.9726 21.5 18.043V7.7553V7.33063V4.04297C21.5 2.1133 19.9297 0.542969 18 0.542969" fill="white"/>
</svg>
